%TF.GenerationSoftware,KiCad,Pcbnew,8.0.7*%
%TF.CreationDate,2025-07-18T12:07:20-04:00*%
%TF.ProjectId,Amplifier_board,416d706c-6966-4696-9572-5f626f617264,rev?*%
%TF.SameCoordinates,Original*%
%TF.FileFunction,Copper,L1,Top*%
%TF.FilePolarity,Positive*%
%FSLAX46Y46*%
G04 Gerber Fmt 4.6, Leading zero omitted, Abs format (unit mm)*
G04 Created by KiCad (PCBNEW 8.0.7) date 2025-07-18 12:07:20*
%MOMM*%
%LPD*%
G01*
G04 APERTURE LIST*
G04 Aperture macros list*
%AMRoundRect*
0 Rectangle with rounded corners*
0 $1 Rounding radius*
0 $2 $3 $4 $5 $6 $7 $8 $9 X,Y pos of 4 corners*
0 Add a 4 corners polygon primitive as box body*
4,1,4,$2,$3,$4,$5,$6,$7,$8,$9,$2,$3,0*
0 Add four circle primitives for the rounded corners*
1,1,$1+$1,$2,$3*
1,1,$1+$1,$4,$5*
1,1,$1+$1,$6,$7*
1,1,$1+$1,$8,$9*
0 Add four rect primitives between the rounded corners*
20,1,$1+$1,$2,$3,$4,$5,0*
20,1,$1+$1,$4,$5,$6,$7,0*
20,1,$1+$1,$6,$7,$8,$9,0*
20,1,$1+$1,$8,$9,$2,$3,0*%
%AMFreePoly0*
4,1,13,0.632222,3.085000,1.200000,3.085000,1.200000,-3.085001,0.625000,-3.085001,0.625000,-3.345000,-0.625000,-3.345000,-0.625000,-3.085001,-1.200000,-3.085001,-1.200000,3.085000,-0.617778,3.085000,-0.625000,3.345000,0.625000,3.345000,0.632222,3.085000,0.632222,3.085000,$1*%
G04 Aperture macros list end*
%TA.AperFunction,ComponentPad*%
%ADD10R,1.700000X1.700000*%
%TD*%
%TA.AperFunction,ComponentPad*%
%ADD11O,1.700000X1.700000*%
%TD*%
%TA.AperFunction,ComponentPad*%
%ADD12R,1.600000X1.600000*%
%TD*%
%TA.AperFunction,ComponentPad*%
%ADD13C,1.600000*%
%TD*%
%TA.AperFunction,SMDPad,CuDef*%
%ADD14RoundRect,0.250000X0.475000X-0.337500X0.475000X0.337500X-0.475000X0.337500X-0.475000X-0.337500X0*%
%TD*%
%TA.AperFunction,SMDPad,CuDef*%
%ADD15RoundRect,0.250000X-0.450000X0.325000X-0.450000X-0.325000X0.450000X-0.325000X0.450000X0.325000X0*%
%TD*%
%TA.AperFunction,SMDPad,CuDef*%
%ADD16R,4.200000X2.400000*%
%TD*%
%TA.AperFunction,SMDPad,CuDef*%
%ADD17RoundRect,0.250000X-0.450000X0.350000X-0.450000X-0.350000X0.450000X-0.350000X0.450000X0.350000X0*%
%TD*%
%TA.AperFunction,SMDPad,CuDef*%
%ADD18R,2.000000X1.200000*%
%TD*%
%TA.AperFunction,SMDPad,CuDef*%
%ADD19RoundRect,0.250000X0.450000X-0.350000X0.450000X0.350000X-0.450000X0.350000X-0.450000X-0.350000X0*%
%TD*%
%TA.AperFunction,SMDPad,CuDef*%
%ADD20RoundRect,0.250000X-0.337500X-0.475000X0.337500X-0.475000X0.337500X0.475000X-0.337500X0.475000X0*%
%TD*%
%TA.AperFunction,ComponentPad*%
%ADD21C,1.400000*%
%TD*%
%TA.AperFunction,SMDPad,CuDef*%
%ADD22R,0.304800X1.270000*%
%TD*%
%TA.AperFunction,SMDPad,CuDef*%
%ADD23FreePoly0,270.000000*%
%TD*%
%TA.AperFunction,SMDPad,CuDef*%
%ADD24RoundRect,0.250000X0.337500X0.475000X-0.337500X0.475000X-0.337500X-0.475000X0.337500X-0.475000X0*%
%TD*%
%TA.AperFunction,SMDPad,CuDef*%
%ADD25RoundRect,0.250000X-0.350000X-0.450000X0.350000X-0.450000X0.350000X0.450000X-0.350000X0.450000X0*%
%TD*%
%TA.AperFunction,ComponentPad*%
%ADD26C,1.950000*%
%TD*%
%TA.AperFunction,SMDPad,CuDef*%
%ADD27RoundRect,0.250000X-0.475000X0.337500X-0.475000X-0.337500X0.475000X-0.337500X0.475000X0.337500X0*%
%TD*%
%TA.AperFunction,SMDPad,CuDef*%
%ADD28RoundRect,0.250000X0.350000X0.450000X-0.350000X0.450000X-0.350000X-0.450000X0.350000X-0.450000X0*%
%TD*%
%TA.AperFunction,ComponentPad*%
%ADD29R,1.800000X1.800000*%
%TD*%
%TA.AperFunction,ComponentPad*%
%ADD30C,1.800000*%
%TD*%
%TA.AperFunction,ViaPad*%
%ADD31C,0.600000*%
%TD*%
%TA.AperFunction,ViaPad*%
%ADD32C,1.000000*%
%TD*%
%TA.AperFunction,ViaPad*%
%ADD33C,0.500000*%
%TD*%
%TA.AperFunction,Conductor*%
%ADD34C,1.500000*%
%TD*%
%TA.AperFunction,Conductor*%
%ADD35C,0.500000*%
%TD*%
%TA.AperFunction,Conductor*%
%ADD36C,0.200000*%
%TD*%
%TA.AperFunction,Conductor*%
%ADD37C,0.300000*%
%TD*%
%TA.AperFunction,Conductor*%
%ADD38C,1.000000*%
%TD*%
G04 APERTURE END LIST*
%TA.AperFunction,Conductor*%
%TO.N,+24V*%
G36*
X106560000Y-95960000D02*
G01*
X108590000Y-95960000D01*
X108590000Y-97460000D01*
X106560000Y-97460000D01*
X106560000Y-95960000D01*
G37*
%TD.AperFunction*%
%TA.AperFunction,Conductor*%
%TO.N,/amp1/OutP_unfiltered*%
G36*
X83470000Y-99330000D02*
G01*
X86170000Y-99330000D01*
X86170000Y-100220000D01*
X83470000Y-100220000D01*
X83470000Y-99330000D01*
G37*
%TD.AperFunction*%
%TA.AperFunction,Conductor*%
%TO.N,+24V*%
G36*
X156545000Y-95930000D02*
G01*
X158575000Y-95930000D01*
X158575000Y-97430000D01*
X156545000Y-97430000D01*
X156545000Y-95930000D01*
G37*
%TD.AperFunction*%
%TA.AperFunction,Conductor*%
G36*
X81550000Y-95950000D02*
G01*
X83580000Y-95950000D01*
X83580000Y-97450000D01*
X81550000Y-97450000D01*
X81550000Y-95950000D01*
G37*
%TD.AperFunction*%
%TA.AperFunction,Conductor*%
G36*
X115435000Y-95980000D02*
G01*
X117465000Y-95980000D01*
X117465000Y-97480000D01*
X115435000Y-97480000D01*
X115435000Y-95980000D01*
G37*
%TD.AperFunction*%
%TA.AperFunction,Conductor*%
%TO.N,/amp2/OutP_unfiltered*%
G36*
X108480000Y-99337621D02*
G01*
X111180000Y-99337621D01*
X111180000Y-100227621D01*
X108480000Y-100227621D01*
X108480000Y-99337621D01*
G37*
%TD.AperFunction*%
%TA.AperFunction,Conductor*%
%TO.N,+24V*%
G36*
X140415000Y-95960000D02*
G01*
X142445000Y-95960000D01*
X142445000Y-97460000D01*
X140415000Y-97460000D01*
X140415000Y-95960000D01*
G37*
%TD.AperFunction*%
%TA.AperFunction,Conductor*%
%TO.N,/amp3/OutN_unfiltered*%
G36*
X137800000Y-99265000D02*
G01*
X140500000Y-99265000D01*
X140500000Y-100155000D01*
X137800000Y-100155000D01*
X137800000Y-99265000D01*
G37*
%TD.AperFunction*%
%TA.AperFunction,Conductor*%
%TO.N,+24V*%
G36*
X165425000Y-95950000D02*
G01*
X167455000Y-95950000D01*
X167455000Y-97450000D01*
X165425000Y-97450000D01*
X165425000Y-95950000D01*
G37*
%TD.AperFunction*%
%TA.AperFunction,Conductor*%
G36*
X131535000Y-95940000D02*
G01*
X133565000Y-95940000D01*
X133565000Y-97440000D01*
X131535000Y-97440000D01*
X131535000Y-95940000D01*
G37*
%TD.AperFunction*%
%TA.AperFunction,Conductor*%
%TO.N,/amp4/OutP_unfiltered*%
G36*
X158470000Y-99307621D02*
G01*
X161170000Y-99307621D01*
X161170000Y-100197621D01*
X158470000Y-100197621D01*
X158470000Y-99307621D01*
G37*
%TD.AperFunction*%
%TA.AperFunction,Conductor*%
%TO.N,/amp4/OutN_unfiltered*%
G36*
X162810000Y-99252621D02*
G01*
X165510000Y-99252621D01*
X165510000Y-100142621D01*
X162810000Y-100142621D01*
X162810000Y-99252621D01*
G37*
%TD.AperFunction*%
%TA.AperFunction,Conductor*%
%TO.N,+24V*%
G36*
X90420000Y-95970000D02*
G01*
X92450000Y-95970000D01*
X92450000Y-97470000D01*
X90420000Y-97470000D01*
X90420000Y-95970000D01*
G37*
%TD.AperFunction*%
%TA.AperFunction,Conductor*%
%TO.N,/amp3/OutP_unfiltered*%
G36*
X133460000Y-99320000D02*
G01*
X136160000Y-99320000D01*
X136160000Y-100210000D01*
X133460000Y-100210000D01*
X133460000Y-99320000D01*
G37*
%TD.AperFunction*%
%TA.AperFunction,Conductor*%
%TO.N,/amp1/OutN_unfiltered*%
G36*
X87810000Y-99275000D02*
G01*
X90510000Y-99275000D01*
X90510000Y-100165000D01*
X87810000Y-100165000D01*
X87810000Y-99275000D01*
G37*
%TD.AperFunction*%
%TA.AperFunction,Conductor*%
%TO.N,/amp2/OutN_unfiltered*%
G36*
X112820000Y-99282621D02*
G01*
X115520000Y-99282621D01*
X115520000Y-100172621D01*
X112820000Y-100172621D01*
X112820000Y-99282621D01*
G37*
%TD.AperFunction*%
%TD*%
D10*
%TO.P,J8,1,Pin_1*%
%TO.N,+24V*%
X85210000Y-64475000D03*
D11*
%TO.P,J8,2,Pin_2*%
%TO.N,Net-(J8-Pin_2)*%
X87750000Y-64475000D03*
%TO.P,J8,3,Pin_3*%
%TO.N,GND*%
X90290000Y-64475000D03*
%TD*%
D12*
%TO.P,C8,1*%
%TO.N,+24V*%
X95500000Y-99500000D03*
D13*
%TO.P,C8,2*%
%TO.N,GND*%
X95500000Y-102000000D03*
%TD*%
D14*
%TO.P,C5,1*%
%TO.N,GND*%
X94200000Y-91075000D03*
%TO.P,C5,2*%
%TO.N,Net-(U1-\u002AFAULT)*%
X94200000Y-89000000D03*
%TD*%
D15*
%TO.P,FB4,1*%
%TO.N,/amp4/OutP_unfiltered*%
X160250000Y-112475000D03*
%TO.P,FB4,2*%
%TO.N,/amp4/OutP*%
X160250000Y-114525000D03*
%TD*%
D16*
%TO.P,L3,1*%
%TO.N,/amp3/OutN_unfiltered*%
X142990000Y-111240000D03*
%TO.P,L3,2*%
%TO.N,/amp3/OutN*%
X142990000Y-115740000D03*
%TD*%
D12*
%TO.P,C14,1*%
%TO.N,+24V*%
X100500000Y-54500000D03*
D13*
%TO.P,C14,2*%
%TO.N,GND*%
X98000000Y-54500000D03*
%TD*%
D17*
%TO.P,R33,1*%
%TO.N,Net-(J12-Pin_2)*%
X80950000Y-76680000D03*
%TO.P,R33,2*%
%TO.N,/amp1/Gain1*%
X80950000Y-78680000D03*
%TD*%
D12*
%TO.P,C52,1*%
%TO.N,+24V*%
X170500000Y-99477621D03*
D13*
%TO.P,C52,2*%
%TO.N,GND*%
X170500000Y-101977621D03*
%TD*%
D18*
%TO.P,TP5,1,1*%
%TO.N,/amp1/OutP_unfiltered*%
X77500000Y-108500000D03*
%TD*%
%TO.P,TP2,1,1*%
%TO.N,/amp2/OutN_unfiltered*%
X121510000Y-108507621D03*
%TD*%
D19*
%TO.P,R19,1*%
%TO.N,Net-(C31-Pad2)*%
X135380000Y-78980000D03*
%TO.P,R19,2*%
%TO.N,/In3N*%
X135380000Y-76980000D03*
%TD*%
D18*
%TO.P,TP17,1,1*%
%TO.N,/In1P*%
X96200000Y-75500000D03*
%TD*%
D20*
%TO.P,C64,1*%
%TO.N,GND*%
X138452500Y-125490000D03*
%TO.P,C64,2*%
%TO.N,Net-(C43-Pad2)*%
X140527500Y-125490000D03*
%TD*%
D16*
%TO.P,L5,1*%
%TO.N,/amp1/OutP_unfiltered*%
X81000000Y-111250000D03*
%TO.P,L5,2*%
%TO.N,/amp1/OutP*%
X81000000Y-115750000D03*
%TD*%
D20*
%TO.P,C7,1*%
%TO.N,/amp1/OutP_unfiltered*%
X83462500Y-102000000D03*
%TO.P,C7,2*%
%TO.N,Net-(C7-Pad2)*%
X85537500Y-102000000D03*
%TD*%
D15*
%TO.P,FB2,1*%
%TO.N,/amp2/OutP_unfiltered*%
X110250000Y-112475000D03*
%TO.P,FB2,2*%
%TO.N,/amp2/OutP*%
X110250000Y-114525000D03*
%TD*%
D20*
%TO.P,C51,1*%
%TO.N,/amp4/OutP_unfiltered*%
X158462500Y-101977620D03*
%TO.P,C51,2*%
%TO.N,Net-(C51-Pad2)*%
X160537500Y-101977620D03*
%TD*%
D21*
%TO.P,TP36,1,1*%
%TO.N,GND*%
X96960000Y-134500000D03*
X102040000Y-134500000D03*
%TD*%
D20*
%TO.P,C72,1*%
%TO.N,/amp3/OutP*%
X135952500Y-128490000D03*
%TO.P,C72,2*%
%TO.N,/amp3/OutN*%
X138027500Y-128490000D03*
%TD*%
D22*
%TO.P,U4,1,\u002ASD*%
%TO.N,Net-(U4-\u002AFAULT)*%
X166225074Y-90705821D03*
%TO.P,U4,2,\u002AFAULT*%
X165575063Y-90705821D03*
%TO.P,U4,3,GND*%
%TO.N,GND*%
X164925051Y-90705821D03*
%TO.P,U4,4,GND*%
X164275040Y-90705821D03*
%TO.P,U4,5,GAIN0*%
%TO.N,/amp4/Gain0*%
X163625028Y-90705821D03*
%TO.P,U4,6,GAIN1*%
%TO.N,/amp4/Gain1*%
X162975017Y-90705821D03*
%TO.P,U4,7,AVCC*%
%TO.N,/amp4/AVCC*%
X162325006Y-90705821D03*
%TO.P,U4,8,AGND*%
%TO.N,GND*%
X161674994Y-90705821D03*
%TO.P,U4,9,GVDD*%
%TO.N,Net-(U4-GVDD)*%
X161024983Y-90705821D03*
%TO.P,U4,10,PLIMIT*%
X160374972Y-90705821D03*
%TO.P,U4,11,INN*%
%TO.N,Net-(U4-INN)*%
X159724960Y-90705821D03*
%TO.P,U4,12,INP*%
%TO.N,Net-(U4-INP)*%
X159074949Y-90705821D03*
%TO.P,U4,13,NC*%
%TO.N,unconnected-(U4-NC-Pad13)*%
X158424937Y-90705821D03*
%TO.P,U4,14,AVCC*%
%TO.N,Net-(R7-Pad2)*%
X157774926Y-90705821D03*
%TO.P,U4,15,PVCC*%
%TO.N,+24V*%
X157774926Y-96649421D03*
%TO.P,U4,16,PVCC*%
X158424937Y-96649421D03*
%TO.P,U4,17,BSP*%
%TO.N,Net-(C51-Pad2)*%
X159074949Y-96649421D03*
%TO.P,U4,18,OUTP*%
%TO.N,/amp4/OutP_unfiltered*%
X159724960Y-96649421D03*
%TO.P,U4,19,PGND*%
%TO.N,GND*%
X160374972Y-96649421D03*
%TO.P,U4,20,OUTP*%
%TO.N,/amp4/OutP_unfiltered*%
X161024983Y-96649421D03*
%TO.P,U4,21,BSP*%
%TO.N,Net-(C51-Pad2)*%
X161674994Y-96649421D03*
%TO.P,U4,22,BSN*%
%TO.N,Net-(C50-Pad2)*%
X162325006Y-96649421D03*
%TO.P,U4,23,OUTN*%
%TO.N,/amp4/OutN_unfiltered*%
X162975017Y-96649421D03*
%TO.P,U4,24,PGND*%
%TO.N,GND*%
X163625028Y-96649421D03*
%TO.P,U4,25,OUTN*%
%TO.N,/amp4/OutN_unfiltered*%
X164275040Y-96649421D03*
%TO.P,U4,26,BSN*%
%TO.N,Net-(C50-Pad2)*%
X164925051Y-96649421D03*
%TO.P,U4,27,PVCC*%
%TO.N,+24V*%
X165575063Y-96649421D03*
%TO.P,U4,28,PVCC*%
X166225074Y-96649421D03*
D23*
%TO.P,U4,29,EPAD*%
%TO.N,GND*%
X162000000Y-93677621D03*
%TD*%
D24*
%TO.P,C44,1*%
%TO.N,Net-(C44-Pad1)*%
X130527500Y-122490000D03*
%TO.P,C44,2*%
%TO.N,/amp3/OutP*%
X128452500Y-122490000D03*
%TD*%
%TO.P,C29,1*%
%TO.N,Net-(C29-Pad1)*%
X105547500Y-122507621D03*
%TO.P,C29,2*%
%TO.N,/amp2/OutP*%
X103472500Y-122507621D03*
%TD*%
D18*
%TO.P,TP16,1,1*%
%TO.N,/amp4/OutP*%
X153500000Y-130477620D03*
%TD*%
D25*
%TO.P,R7,1*%
%TO.N,/amp4/AVCC*%
X154500001Y-88477621D03*
%TO.P,R7,2*%
%TO.N,Net-(R7-Pad2)*%
X156500001Y-88477621D03*
%TD*%
D15*
%TO.P,FB5,1*%
%TO.N,/amp1/OutN_unfiltered*%
X88750000Y-112475000D03*
%TO.P,FB5,2*%
%TO.N,/amp1/OutN*%
X88750000Y-114525000D03*
%TD*%
%TO.P,FB7,1*%
%TO.N,/amp3/OutN_unfiltered*%
X138750000Y-112475000D03*
%TO.P,FB7,2*%
%TO.N,/amp3/OutN*%
X138750000Y-114525000D03*
%TD*%
D26*
%TO.P,J4,1*%
%TO.N,/amp3/OutP*%
X134500000Y-134500000D03*
%TO.P,J4,2*%
%TO.N,/amp3/OutN*%
X139500000Y-134500000D03*
%TD*%
D10*
%TO.P,J9,1,Pin_1*%
%TO.N,+24V*%
X110220000Y-64482621D03*
D11*
%TO.P,J9,2,Pin_2*%
%TO.N,Net-(J9-Pin_2)*%
X112760000Y-64482621D03*
%TO.P,J9,3,Pin_3*%
%TO.N,GND*%
X115300000Y-64482621D03*
%TD*%
D18*
%TO.P,TP22,1,1*%
%TO.N,/In2N*%
X121930000Y-77180000D03*
%TD*%
D10*
%TO.P,J11,1,Pin_1*%
%TO.N,+24V*%
X160210001Y-64452621D03*
D11*
%TO.P,J11,2,Pin_2*%
%TO.N,Net-(J11-Pin_2)*%
X162750001Y-64452621D03*
%TO.P,J11,3,Pin_3*%
%TO.N,GND*%
X165290001Y-64452621D03*
%TD*%
D25*
%TO.P,R3,1*%
%TO.N,/amp2/AVCC*%
X104510000Y-88507621D03*
%TO.P,R3,2*%
%TO.N,Net-(R3-Pad2)*%
X106510000Y-88507621D03*
%TD*%
%TO.P,R17,1*%
%TO.N,Net-(C2-Pad2)*%
X91900000Y-80400000D03*
%TO.P,R17,2*%
%TO.N,/In1N*%
X93900000Y-80400000D03*
%TD*%
D24*
%TO.P,C35,1*%
%TO.N,/amp3/OutN_unfiltered*%
X140527500Y-101990000D03*
%TO.P,C35,2*%
%TO.N,Net-(C35-Pad2)*%
X138452500Y-101990000D03*
%TD*%
D18*
%TO.P,TP8,1,1*%
%TO.N,/amp4/OutP_unfiltered*%
X152500000Y-108477620D03*
%TD*%
D10*
%TO.P,J13,1,Pin_1*%
%TO.N,+24V*%
X110220000Y-70007621D03*
D11*
%TO.P,J13,2,Pin_2*%
%TO.N,Net-(J13-Pin_2)*%
X112760000Y-70007621D03*
%TO.P,J13,3,Pin_3*%
%TO.N,GND*%
X115300000Y-70007621D03*
%TD*%
D25*
%TO.P,R13,1*%
%TO.N,Net-(C58-Pad1)*%
X83500000Y-122500000D03*
%TO.P,R13,2*%
%TO.N,GND*%
X85500000Y-122500000D03*
%TD*%
D20*
%TO.P,C70,1*%
%TO.N,/amp1/OutP*%
X85962500Y-128500000D03*
%TO.P,C70,2*%
%TO.N,/amp1/OutN*%
X88037500Y-128500000D03*
%TD*%
D12*
%TO.P,C53,1*%
%TO.N,+24V*%
X153500000Y-99477621D03*
D13*
%TO.P,C53,2*%
%TO.N,GND*%
X153500000Y-101977621D03*
%TD*%
D26*
%TO.P,J6,1*%
%TO.N,+24V*%
X152500000Y-45000000D03*
%TO.P,J6,2*%
%TO.N,GND*%
X147500000Y-45000000D03*
%TD*%
D22*
%TO.P,U3,1,\u002ASD*%
%TO.N,Net-(U3-\u002AFAULT)*%
X141215074Y-90718200D03*
%TO.P,U3,2,\u002AFAULT*%
X140565063Y-90718200D03*
%TO.P,U3,3,GND*%
%TO.N,GND*%
X139915051Y-90718200D03*
%TO.P,U3,4,GND*%
X139265040Y-90718200D03*
%TO.P,U3,5,GAIN0*%
%TO.N,/amp3/Gain0*%
X138615028Y-90718200D03*
%TO.P,U3,6,GAIN1*%
%TO.N,/amp3/Gain1*%
X137965017Y-90718200D03*
%TO.P,U3,7,AVCC*%
%TO.N,/amp3/AVCC*%
X137315006Y-90718200D03*
%TO.P,U3,8,AGND*%
%TO.N,GND*%
X136664994Y-90718200D03*
%TO.P,U3,9,GVDD*%
%TO.N,Net-(U3-GVDD)*%
X136014983Y-90718200D03*
%TO.P,U3,10,PLIMIT*%
X135364972Y-90718200D03*
%TO.P,U3,11,INN*%
%TO.N,Net-(U3-INN)*%
X134714960Y-90718200D03*
%TO.P,U3,12,INP*%
%TO.N,Net-(U3-INP)*%
X134064949Y-90718200D03*
%TO.P,U3,13,NC*%
%TO.N,unconnected-(U3-NC-Pad13)*%
X133414937Y-90718200D03*
%TO.P,U3,14,AVCC*%
%TO.N,Net-(R5-Pad2)*%
X132764926Y-90718200D03*
%TO.P,U3,15,PVCC*%
%TO.N,+24V*%
X132764926Y-96661800D03*
%TO.P,U3,16,PVCC*%
X133414937Y-96661800D03*
%TO.P,U3,17,BSP*%
%TO.N,Net-(C36-Pad2)*%
X134064949Y-96661800D03*
%TO.P,U3,18,OUTP*%
%TO.N,/amp3/OutP_unfiltered*%
X134714960Y-96661800D03*
%TO.P,U3,19,PGND*%
%TO.N,GND*%
X135364972Y-96661800D03*
%TO.P,U3,20,OUTP*%
%TO.N,/amp3/OutP_unfiltered*%
X136014983Y-96661800D03*
%TO.P,U3,21,BSP*%
%TO.N,Net-(C36-Pad2)*%
X136664994Y-96661800D03*
%TO.P,U3,22,BSN*%
%TO.N,Net-(C35-Pad2)*%
X137315006Y-96661800D03*
%TO.P,U3,23,OUTN*%
%TO.N,/amp3/OutN_unfiltered*%
X137965017Y-96661800D03*
%TO.P,U3,24,PGND*%
%TO.N,GND*%
X138615028Y-96661800D03*
%TO.P,U3,25,OUTN*%
%TO.N,/amp3/OutN_unfiltered*%
X139265040Y-96661800D03*
%TO.P,U3,26,BSN*%
%TO.N,Net-(C35-Pad2)*%
X139915051Y-96661800D03*
%TO.P,U3,27,PVCC*%
%TO.N,+24V*%
X140565063Y-96661800D03*
%TO.P,U3,28,PVCC*%
X141215074Y-96661800D03*
D23*
%TO.P,U3,29,EPAD*%
%TO.N,GND*%
X136990000Y-93690000D03*
%TD*%
D20*
%TO.P,C71,1*%
%TO.N,/amp2/OutP*%
X110972500Y-128507621D03*
%TO.P,C71,2*%
%TO.N,/amp2/OutN*%
X113047500Y-128507621D03*
%TD*%
D12*
%TO.P,C37,1*%
%TO.N,+24V*%
X145490000Y-99490000D03*
D13*
%TO.P,C37,2*%
%TO.N,GND*%
X145490000Y-101990000D03*
%TD*%
D15*
%TO.P,FB6,1*%
%TO.N,/amp2/OutN_unfiltered*%
X113250000Y-112475000D03*
%TO.P,FB6,2*%
%TO.N,/amp2/OutN*%
X113250000Y-114525000D03*
%TD*%
D17*
%TO.P,R32,1*%
%TO.N,Net-(J11-Pin_2)*%
X170380000Y-78400000D03*
%TO.P,R32,2*%
%TO.N,/amp4/Gain0*%
X170380000Y-80400000D03*
%TD*%
D18*
%TO.P,TP9,1,1*%
%TO.N,/amp1/OutN*%
X95500000Y-130500000D03*
%TD*%
D20*
%TO.P,C73,1*%
%TO.N,/amp4/OutP*%
X160962500Y-128477621D03*
%TO.P,C73,2*%
%TO.N,/amp4/OutN*%
X163037500Y-128477621D03*
%TD*%
D19*
%TO.P,R26,1*%
%TO.N,Net-(C16-Pad2)*%
X114310000Y-80307621D03*
%TO.P,R26,2*%
%TO.N,Net-(C15-Pad1)*%
X114310000Y-78307621D03*
%TD*%
D14*
%TO.P,C16,1*%
%TO.N,Net-(U2-INN)*%
X110510000Y-84245121D03*
%TO.P,C16,2*%
%TO.N,Net-(C16-Pad2)*%
X110510000Y-82170121D03*
%TD*%
D18*
%TO.P,TP12,1,1*%
%TO.N,/amp4/OutN*%
X170500000Y-130477621D03*
%TD*%
D27*
%TO.P,C45,1*%
%TO.N,Net-(C45-Pad1)*%
X158200000Y-83265000D03*
%TO.P,C45,2*%
%TO.N,Net-(U4-INP)*%
X158200000Y-85340000D03*
%TD*%
D20*
%TO.P,C67,1*%
%TO.N,Net-(C29-Pad1)*%
X108472500Y-125507621D03*
%TO.P,C67,2*%
%TO.N,GND*%
X110547500Y-125507621D03*
%TD*%
D28*
%TO.P,R8,1*%
%TO.N,+24V*%
X170800000Y-86200000D03*
%TO.P,R8,2*%
%TO.N,Net-(U4-\u002AFAULT)*%
X168800000Y-86200000D03*
%TD*%
D18*
%TO.P,TP4,1,1*%
%TO.N,/amp4/OutN_unfiltered*%
X171499999Y-108477621D03*
%TD*%
%TO.P,TP24,1,1*%
%TO.N,/In4N*%
X164680000Y-76430000D03*
%TD*%
%TO.P,TP1,1,1*%
%TO.N,/amp1/OutN_unfiltered*%
X96500000Y-108500000D03*
%TD*%
D25*
%TO.P,R5,1*%
%TO.N,/amp3/AVCC*%
X129490000Y-88490000D03*
%TO.P,R5,2*%
%TO.N,Net-(R5-Pad2)*%
X131490000Y-88490000D03*
%TD*%
D14*
%TO.P,C31,1*%
%TO.N,Net-(U3-INN)*%
X135480000Y-85810000D03*
%TO.P,C31,2*%
%TO.N,Net-(C31-Pad2)*%
X135480000Y-83735000D03*
%TD*%
D18*
%TO.P,TP10,1,1*%
%TO.N,/amp2/OutN*%
X120510000Y-130507621D03*
%TD*%
D15*
%TO.P,FB8,1*%
%TO.N,/amp4/OutN_unfiltered*%
X163750000Y-112475000D03*
%TO.P,FB8,2*%
%TO.N,/amp4/OutN*%
X163750000Y-114525000D03*
%TD*%
D18*
%TO.P,TP21,1,1*%
%TO.N,/In1N*%
X96200000Y-82500000D03*
%TD*%
%TO.P,TP15,1,1*%
%TO.N,/amp3/OutP*%
X128490000Y-130490000D03*
%TD*%
D20*
%TO.P,C36,1*%
%TO.N,/amp3/OutP_unfiltered*%
X133452500Y-101990000D03*
%TO.P,C36,2*%
%TO.N,Net-(C36-Pad2)*%
X135527500Y-101990000D03*
%TD*%
D14*
%TO.P,C49,1*%
%TO.N,GND*%
X168700000Y-90575000D03*
%TO.P,C49,2*%
%TO.N,Net-(U4-\u002AFAULT)*%
X168700000Y-88500000D03*
%TD*%
D15*
%TO.P,FB1,1*%
%TO.N,/amp1/OutP_unfiltered*%
X85250000Y-112475000D03*
%TO.P,FB1,2*%
%TO.N,/amp1/OutP*%
X85250000Y-114525000D03*
%TD*%
D19*
%TO.P,R24,1*%
%TO.N,Net-(C45-Pad1)*%
X158120000Y-78330000D03*
%TO.P,R24,2*%
%TO.N,/In4P*%
X158120000Y-76330000D03*
%TD*%
%TO.P,R25,1*%
%TO.N,Net-(C2-Pad2)*%
X89300000Y-80300000D03*
%TO.P,R25,2*%
%TO.N,Net-(C1-Pad1)*%
X89300000Y-78300000D03*
%TD*%
D18*
%TO.P,TP26,1,1*%
%TO.N,Net-(C15-Pad1)*%
X114310000Y-75507621D03*
%TD*%
D25*
%TO.P,R21,1*%
%TO.N,Net-(C1-Pad1)*%
X91900000Y-78200000D03*
%TO.P,R21,2*%
%TO.N,/In1P*%
X93900000Y-78200000D03*
%TD*%
D20*
%TO.P,C21,1*%
%TO.N,/amp2/OutP_unfiltered*%
X108472500Y-102007621D03*
%TO.P,C21,2*%
%TO.N,Net-(C21-Pad2)*%
X110547500Y-102007621D03*
%TD*%
D25*
%TO.P,R18,1*%
%TO.N,Net-(C16-Pad2)*%
X116910000Y-80407621D03*
%TO.P,R18,2*%
%TO.N,/In2N*%
X118910000Y-80407621D03*
%TD*%
D24*
%TO.P,C54,1*%
%TO.N,/amp1/OutN*%
X95537500Y-122500000D03*
%TO.P,C54,2*%
%TO.N,Net-(C54-Pad2)*%
X93462500Y-122500000D03*
%TD*%
D17*
%TO.P,R35,1*%
%TO.N,Net-(J14-Pin_2)*%
X142340000Y-79120000D03*
%TO.P,R35,2*%
%TO.N,/amp3/Gain1*%
X142340000Y-81120000D03*
%TD*%
D24*
%TO.P,C58,1*%
%TO.N,Net-(C58-Pad1)*%
X80537500Y-122500000D03*
%TO.P,C58,2*%
%TO.N,/amp1/OutP*%
X78462500Y-122500000D03*
%TD*%
D28*
%TO.P,R6,1*%
%TO.N,+24V*%
X146800000Y-86300000D03*
%TO.P,R6,2*%
%TO.N,Net-(U3-\u002AFAULT)*%
X144800000Y-86300000D03*
%TD*%
D12*
%TO.P,C9,1*%
%TO.N,+24V*%
X78500000Y-99500000D03*
D13*
%TO.P,C9,2*%
%TO.N,GND*%
X78500000Y-102000000D03*
%TD*%
D25*
%TO.P,R15,1*%
%TO.N,Net-(C44-Pad1)*%
X133490000Y-122490000D03*
%TO.P,R15,2*%
%TO.N,GND*%
X135490000Y-122490000D03*
%TD*%
D18*
%TO.P,TP19,1,1*%
%TO.N,/In3P*%
X128750000Y-76990000D03*
%TD*%
D16*
%TO.P,L2,1*%
%TO.N,/amp2/OutN_unfiltered*%
X118010000Y-111257621D03*
%TO.P,L2,2*%
%TO.N,/amp2/OutN*%
X118010000Y-115757621D03*
%TD*%
D14*
%TO.P,C34,1*%
%TO.N,GND*%
X144500000Y-90675000D03*
%TO.P,C34,2*%
%TO.N,Net-(U3-\u002AFAULT)*%
X144500000Y-88600000D03*
%TD*%
D12*
%TO.P,C38,1*%
%TO.N,+24V*%
X128490000Y-99490000D03*
D13*
%TO.P,C38,2*%
%TO.N,GND*%
X128490000Y-101990000D03*
%TD*%
D29*
%TO.P,J7,1,Pin_1*%
%TO.N,/In1P*%
X120690000Y-53270000D03*
D30*
%TO.P,J7,2,Pin_2*%
%TO.N,/In1N*%
X120690000Y-50730000D03*
%TO.P,J7,3,Pin_3*%
%TO.N,/In2P*%
X123230000Y-53270000D03*
%TO.P,J7,4,Pin_4*%
%TO.N,/In2N*%
X123230000Y-50730000D03*
%TO.P,J7,5,Pin_5*%
%TO.N,/In3P*%
X125770000Y-53270000D03*
%TO.P,J7,6,Pin_6*%
%TO.N,/In3N*%
X125770000Y-50730000D03*
%TO.P,J7,7,Pin_7*%
%TO.N,/In4P*%
X128310000Y-53270000D03*
%TO.P,J7,8,Pin_8*%
%TO.N,/In4N*%
X128310000Y-50730000D03*
%TD*%
D20*
%TO.P,C63,1*%
%TO.N,GND*%
X113472500Y-125507621D03*
%TO.P,C63,2*%
%TO.N,Net-(C28-Pad2)*%
X115547500Y-125507621D03*
%TD*%
D17*
%TO.P,R36,1*%
%TO.N,Net-(J15-Pin_2)*%
X168160000Y-78360000D03*
%TO.P,R36,2*%
%TO.N,/amp4/Gain1*%
X168160000Y-80360000D03*
%TD*%
D18*
%TO.P,TP11,1,1*%
%TO.N,/amp3/OutN*%
X145490000Y-130490000D03*
%TD*%
D20*
%TO.P,C65,1*%
%TO.N,GND*%
X163462500Y-125477621D03*
%TO.P,C65,2*%
%TO.N,Net-(C60-Pad2)*%
X165537500Y-125477621D03*
%TD*%
D16*
%TO.P,L4,1*%
%TO.N,/amp4/OutN_unfiltered*%
X168000000Y-111227621D03*
%TO.P,L4,2*%
%TO.N,/amp4/OutN*%
X168000000Y-115727621D03*
%TD*%
D18*
%TO.P,TP7,1,1*%
%TO.N,/amp3/OutP_unfiltered*%
X127490000Y-108490000D03*
%TD*%
D10*
%TO.P,J14,1,Pin_1*%
%TO.N,+24V*%
X135200000Y-69990000D03*
D11*
%TO.P,J14,2,Pin_2*%
%TO.N,Net-(J14-Pin_2)*%
X137740000Y-69990000D03*
%TO.P,J14,3,Pin_3*%
%TO.N,GND*%
X140280000Y-69990000D03*
%TD*%
D18*
%TO.P,TP13,1,1*%
%TO.N,/amp1/OutP*%
X78500000Y-130500000D03*
%TD*%
D25*
%TO.P,R1,1*%
%TO.N,/amp1/AVCC*%
X79500000Y-88500000D03*
%TO.P,R1,2*%
%TO.N,Net-(R1-Pad2)*%
X81500000Y-88500000D03*
%TD*%
D27*
%TO.P,C30,1*%
%TO.N,Net-(C30-Pad1)*%
X133280000Y-83735000D03*
%TO.P,C30,2*%
%TO.N,Net-(U3-INP)*%
X133280000Y-85810000D03*
%TD*%
D18*
%TO.P,TP14,1,1*%
%TO.N,/amp2/OutP*%
X103510000Y-130507621D03*
%TD*%
%TO.P,TP27,1,1*%
%TO.N,Net-(C30-Pad1)*%
X128930000Y-83530000D03*
%TD*%
D16*
%TO.P,L1,1*%
%TO.N,/amp1/OutN_unfiltered*%
X93000000Y-111250000D03*
%TO.P,L1,2*%
%TO.N,/amp1/OutN*%
X93000000Y-115750000D03*
%TD*%
D28*
%TO.P,R4,1*%
%TO.N,+24V*%
X121800000Y-86300000D03*
%TO.P,R4,2*%
%TO.N,Net-(U2-\u002AFAULT)*%
X119800000Y-86300000D03*
%TD*%
D25*
%TO.P,R16,1*%
%TO.N,Net-(C61-Pad1)*%
X158500000Y-122477621D03*
%TO.P,R16,2*%
%TO.N,GND*%
X160500000Y-122477621D03*
%TD*%
D19*
%TO.P,R20,1*%
%TO.N,Net-(C46-Pad2)*%
X160320000Y-78330000D03*
%TO.P,R20,2*%
%TO.N,/In4N*%
X160320000Y-76330000D03*
%TD*%
D24*
%TO.P,C6,1*%
%TO.N,/amp1/OutN_unfiltered*%
X90537500Y-102000000D03*
%TO.P,C6,2*%
%TO.N,Net-(C6-Pad2)*%
X88462500Y-102000000D03*
%TD*%
D10*
%TO.P,J12,1,Pin_1*%
%TO.N,+24V*%
X85210000Y-70000000D03*
D11*
%TO.P,J12,2,Pin_2*%
%TO.N,Net-(J12-Pin_2)*%
X87750000Y-70000000D03*
%TO.P,J12,3,Pin_3*%
%TO.N,GND*%
X90290000Y-70000000D03*
%TD*%
D20*
%TO.P,C66,1*%
%TO.N,Net-(C58-Pad1)*%
X83462500Y-125500000D03*
%TO.P,C66,2*%
%TO.N,GND*%
X85537500Y-125500000D03*
%TD*%
D24*
%TO.P,C50,1*%
%TO.N,/amp4/OutN_unfiltered*%
X165537500Y-101977620D03*
%TO.P,C50,2*%
%TO.N,Net-(C50-Pad2)*%
X163462500Y-101977620D03*
%TD*%
D18*
%TO.P,TP28,1,1*%
%TO.N,Net-(C45-Pad1)*%
X153900000Y-83340000D03*
%TD*%
%TO.P,TP30,1,1*%
%TO.N,Net-(C16-Pad2)*%
X114310000Y-82507621D03*
%TD*%
D28*
%TO.P,R2,1*%
%TO.N,+24V*%
X96000000Y-86500000D03*
%TO.P,R2,2*%
%TO.N,Net-(U1-\u002AFAULT)*%
X94000000Y-86500000D03*
%TD*%
D20*
%TO.P,C68,1*%
%TO.N,Net-(C44-Pad1)*%
X133452500Y-125490000D03*
%TO.P,C68,2*%
%TO.N,GND*%
X135527500Y-125490000D03*
%TD*%
D25*
%TO.P,R10,1*%
%TO.N,GND*%
X113510000Y-122507621D03*
%TO.P,R10,2*%
%TO.N,Net-(C28-Pad2)*%
X115510000Y-122507621D03*
%TD*%
D24*
%TO.P,C28,1*%
%TO.N,/amp2/OutN*%
X120547500Y-122507621D03*
%TO.P,C28,2*%
%TO.N,Net-(C28-Pad2)*%
X118472500Y-122507621D03*
%TD*%
D25*
%TO.P,R12,1*%
%TO.N,GND*%
X163500000Y-122477621D03*
%TO.P,R12,2*%
%TO.N,Net-(C60-Pad2)*%
X165500000Y-122477621D03*
%TD*%
D16*
%TO.P,L7,1*%
%TO.N,/amp3/OutP_unfiltered*%
X130990000Y-111240000D03*
%TO.P,L7,2*%
%TO.N,/amp3/OutP*%
X130990000Y-115740000D03*
%TD*%
D25*
%TO.P,R9,1*%
%TO.N,GND*%
X88500000Y-122500000D03*
%TO.P,R9,2*%
%TO.N,Net-(C54-Pad2)*%
X90500000Y-122500000D03*
%TD*%
D15*
%TO.P,FB3,1*%
%TO.N,/amp3/OutP_unfiltered*%
X135250000Y-112475000D03*
%TO.P,FB3,2*%
%TO.N,/amp3/OutP*%
X135250000Y-114525000D03*
%TD*%
D21*
%TO.P,TP38,1,1*%
%TO.N,GND*%
X146960000Y-134500000D03*
X152040000Y-134500000D03*
%TD*%
D25*
%TO.P,R22,1*%
%TO.N,Net-(C15-Pad1)*%
X116910000Y-78207621D03*
%TO.P,R22,2*%
%TO.N,/In2P*%
X118910000Y-78207621D03*
%TD*%
D12*
%TO.P,C74,1*%
%TO.N,+24V*%
X150680000Y-53780000D03*
D13*
%TO.P,C74,2*%
%TO.N,GND*%
X148180000Y-53780000D03*
%TD*%
D26*
%TO.P,J5,1*%
%TO.N,/amp4/OutP*%
X159500000Y-134500000D03*
%TO.P,J5,2*%
%TO.N,/amp4/OutN*%
X164500000Y-134500000D03*
%TD*%
D22*
%TO.P,U2,1,\u002ASD*%
%TO.N,Net-(U2-\u002AFAULT)*%
X116235074Y-90735821D03*
%TO.P,U2,2,\u002AFAULT*%
X115585063Y-90735821D03*
%TO.P,U2,3,GND*%
%TO.N,GND*%
X114935051Y-90735821D03*
%TO.P,U2,4,GND*%
X114285040Y-90735821D03*
%TO.P,U2,5,GAIN0*%
%TO.N,/amp2/Gain0*%
X113635028Y-90735821D03*
%TO.P,U2,6,GAIN1*%
%TO.N,/amp2/Gain1*%
X112985017Y-90735821D03*
%TO.P,U2,7,AVCC*%
%TO.N,/amp2/AVCC*%
X112335006Y-90735821D03*
%TO.P,U2,8,AGND*%
%TO.N,GND*%
X111684994Y-90735821D03*
%TO.P,U2,9,GVDD*%
%TO.N,Net-(U2-GVDD)*%
X111034983Y-90735821D03*
%TO.P,U2,10,PLIMIT*%
X110384972Y-90735821D03*
%TO.P,U2,11,INN*%
%TO.N,Net-(U2-INN)*%
X109734960Y-90735821D03*
%TO.P,U2,12,INP*%
%TO.N,Net-(U2-INP)*%
X109084949Y-90735821D03*
%TO.P,U2,13,NC*%
%TO.N,unconnected-(U2-NC-Pad13)*%
X108434937Y-90735821D03*
%TO.P,U2,14,AVCC*%
%TO.N,Net-(R3-Pad2)*%
X107784926Y-90735821D03*
%TO.P,U2,15,PVCC*%
%TO.N,+24V*%
X107784926Y-96679421D03*
%TO.P,U2,16,PVCC*%
X108434937Y-96679421D03*
%TO.P,U2,17,BSP*%
%TO.N,Net-(C21-Pad2)*%
X109084949Y-96679421D03*
%TO.P,U2,18,OUTP*%
%TO.N,/amp2/OutP_unfiltered*%
X109734960Y-96679421D03*
%TO.P,U2,19,PGND*%
%TO.N,GND*%
X110384972Y-96679421D03*
%TO.P,U2,20,OUTP*%
%TO.N,/amp2/OutP_unfiltered*%
X111034983Y-96679421D03*
%TO.P,U2,21,BSP*%
%TO.N,Net-(C21-Pad2)*%
X111684994Y-96679421D03*
%TO.P,U2,22,BSN*%
%TO.N,Net-(C20-Pad2)*%
X112335006Y-96679421D03*
%TO.P,U2,23,OUTN*%
%TO.N,/amp2/OutN_unfiltered*%
X112985017Y-96679421D03*
%TO.P,U2,24,PGND*%
%TO.N,GND*%
X113635028Y-96679421D03*
%TO.P,U2,25,OUTN*%
%TO.N,/amp2/OutN_unfiltered*%
X114285040Y-96679421D03*
%TO.P,U2,26,BSN*%
%TO.N,Net-(C20-Pad2)*%
X114935051Y-96679421D03*
%TO.P,U2,27,PVCC*%
%TO.N,+24V*%
X115585063Y-96679421D03*
%TO.P,U2,28,PVCC*%
X116235074Y-96679421D03*
D23*
%TO.P,U2,29,EPAD*%
%TO.N,GND*%
X112010000Y-93707621D03*
%TD*%
D21*
%TO.P,TP37,1,1*%
%TO.N,GND*%
X146960000Y-64500000D03*
X152040000Y-64500000D03*
%TD*%
D18*
%TO.P,TP32,1,1*%
%TO.N,Net-(C46-Pad2)*%
X164570000Y-83360000D03*
%TD*%
%TO.P,TP29,1,1*%
%TO.N,Net-(C2-Pad2)*%
X89300000Y-82500000D03*
%TD*%
D26*
%TO.P,J1,1*%
%TO.N,+24V*%
X101500000Y-45000000D03*
%TO.P,J1,2*%
%TO.N,GND*%
X96500000Y-45000000D03*
%TD*%
D21*
%TO.P,TP35,1,1*%
%TO.N,GND*%
X96960000Y-64500000D03*
X102040000Y-64500000D03*
%TD*%
D18*
%TO.P,TP34,1,1*%
%TO.N,+24V*%
X162000000Y-54500000D03*
%TD*%
D12*
%TO.P,C23,1*%
%TO.N,+24V*%
X103510000Y-99507621D03*
D13*
%TO.P,C23,2*%
%TO.N,GND*%
X103510000Y-102007621D03*
%TD*%
D10*
%TO.P,J15,1,Pin_1*%
%TO.N,+24V*%
X160210001Y-69977621D03*
D11*
%TO.P,J15,2,Pin_2*%
%TO.N,Net-(J15-Pin_2)*%
X162750001Y-69977621D03*
%TO.P,J15,3,Pin_3*%
%TO.N,GND*%
X165290001Y-69977621D03*
%TD*%
D24*
%TO.P,C61,1*%
%TO.N,Net-(C61-Pad1)*%
X155537500Y-122477620D03*
%TO.P,C61,2*%
%TO.N,/amp4/OutP*%
X153462500Y-122477620D03*
%TD*%
D20*
%TO.P,C62,1*%
%TO.N,GND*%
X88462500Y-125500000D03*
%TO.P,C62,2*%
%TO.N,Net-(C54-Pad2)*%
X90537500Y-125500000D03*
%TD*%
D26*
%TO.P,J2,1*%
%TO.N,/amp1/OutP*%
X84500000Y-134500000D03*
%TO.P,J2,2*%
%TO.N,/amp1/OutN*%
X89500000Y-134500000D03*
%TD*%
D16*
%TO.P,L8,1*%
%TO.N,/amp4/OutP_unfiltered*%
X156000000Y-111227620D03*
%TO.P,L8,2*%
%TO.N,/amp4/OutP*%
X156000000Y-115727620D03*
%TD*%
%TO.P,L6,1*%
%TO.N,/amp2/OutP_unfiltered*%
X106010000Y-111257621D03*
%TO.P,L6,2*%
%TO.N,/amp2/OutP*%
X106010000Y-115757621D03*
%TD*%
D27*
%TO.P,C15,1*%
%TO.N,Net-(C15-Pad1)*%
X108310000Y-82170121D03*
%TO.P,C15,2*%
%TO.N,Net-(U2-INP)*%
X108310000Y-84245121D03*
%TD*%
D18*
%TO.P,TP23,1,1*%
%TO.N,/In3N*%
X139860000Y-76990000D03*
%TD*%
D24*
%TO.P,C20,1*%
%TO.N,/amp2/OutN_unfiltered*%
X115547500Y-102007621D03*
%TO.P,C20,2*%
%TO.N,Net-(C20-Pad2)*%
X113472500Y-102007621D03*
%TD*%
%TO.P,C43,1*%
%TO.N,/amp3/OutN*%
X145527500Y-122490000D03*
%TO.P,C43,2*%
%TO.N,Net-(C43-Pad2)*%
X143452500Y-122490000D03*
%TD*%
D27*
%TO.P,C1,1*%
%TO.N,Net-(C1-Pad1)*%
X83300000Y-82162500D03*
%TO.P,C1,2*%
%TO.N,Net-(U1-INP)*%
X83300000Y-84237500D03*
%TD*%
D22*
%TO.P,U1,1,\u002ASD*%
%TO.N,Net-(U1-\u002AFAULT)*%
X91225074Y-90728200D03*
%TO.P,U1,2,\u002AFAULT*%
X90575063Y-90728200D03*
%TO.P,U1,3,GND*%
%TO.N,GND*%
X89925051Y-90728200D03*
%TO.P,U1,4,GND*%
X89275040Y-90728200D03*
%TO.P,U1,5,GAIN0*%
%TO.N,/amp1/Gain0*%
X88625028Y-90728200D03*
%TO.P,U1,6,GAIN1*%
%TO.N,/amp1/Gain1*%
X87975017Y-90728200D03*
%TO.P,U1,7,AVCC*%
%TO.N,/amp1/AVCC*%
X87325006Y-90728200D03*
%TO.P,U1,8,AGND*%
%TO.N,GND*%
X86674994Y-90728200D03*
%TO.P,U1,9,GVDD*%
%TO.N,Net-(U1-GVDD)*%
X86024983Y-90728200D03*
%TO.P,U1,10,PLIMIT*%
X85374972Y-90728200D03*
%TO.P,U1,11,INN*%
%TO.N,Net-(U1-INN)*%
X84724960Y-90728200D03*
%TO.P,U1,12,INP*%
%TO.N,Net-(U1-INP)*%
X84074949Y-90728200D03*
%TO.P,U1,13,NC*%
%TO.N,unconnected-(U1-NC-Pad13)*%
X83424937Y-90728200D03*
%TO.P,U1,14,AVCC*%
%TO.N,Net-(R1-Pad2)*%
X82774926Y-90728200D03*
%TO.P,U1,15,PVCC*%
%TO.N,+24V*%
X82774926Y-96671800D03*
%TO.P,U1,16,PVCC*%
X83424937Y-96671800D03*
%TO.P,U1,17,BSP*%
%TO.N,Net-(C7-Pad2)*%
X84074949Y-96671800D03*
%TO.P,U1,18,OUTP*%
%TO.N,/amp1/OutP_unfiltered*%
X84724960Y-96671800D03*
%TO.P,U1,19,PGND*%
%TO.N,GND*%
X85374972Y-96671800D03*
%TO.P,U1,20,OUTP*%
%TO.N,/amp1/OutP_unfiltered*%
X86024983Y-96671800D03*
%TO.P,U1,21,BSP*%
%TO.N,Net-(C7-Pad2)*%
X86674994Y-96671800D03*
%TO.P,U1,22,BSN*%
%TO.N,Net-(C6-Pad2)*%
X87325006Y-96671800D03*
%TO.P,U1,23,OUTN*%
%TO.N,/amp1/OutN_unfiltered*%
X87975017Y-96671800D03*
%TO.P,U1,24,PGND*%
%TO.N,GND*%
X88625028Y-96671800D03*
%TO.P,U1,25,OUTN*%
%TO.N,/amp1/OutN_unfiltered*%
X89275040Y-96671800D03*
%TO.P,U1,26,BSN*%
%TO.N,Net-(C6-Pad2)*%
X89925051Y-96671800D03*
%TO.P,U1,27,PVCC*%
%TO.N,+24V*%
X90575063Y-96671800D03*
%TO.P,U1,28,PVCC*%
X91225074Y-96671800D03*
D23*
%TO.P,U1,29,EPAD*%
%TO.N,GND*%
X87000000Y-93700000D03*
%TD*%
D25*
%TO.P,R11,1*%
%TO.N,GND*%
X138490000Y-122490000D03*
%TO.P,R11,2*%
%TO.N,Net-(C43-Pad2)*%
X140490000Y-122490000D03*
%TD*%
D18*
%TO.P,TP33,1,1*%
%TO.N,+24V*%
X87000000Y-54500000D03*
%TD*%
D25*
%TO.P,R29,1*%
%TO.N,Net-(J8-Pin_2)*%
X93580000Y-68100000D03*
%TO.P,R29,2*%
%TO.N,/amp1/Gain0*%
X95580000Y-68100000D03*
%TD*%
D19*
%TO.P,R23,1*%
%TO.N,Net-(C30-Pad1)*%
X133180000Y-78980000D03*
%TO.P,R23,2*%
%TO.N,/In3P*%
X133180000Y-76980000D03*
%TD*%
D25*
%TO.P,R14,1*%
%TO.N,Net-(C29-Pad1)*%
X108510000Y-122507621D03*
%TO.P,R14,2*%
%TO.N,GND*%
X110510000Y-122507621D03*
%TD*%
D18*
%TO.P,TP25,1,1*%
%TO.N,Net-(C1-Pad1)*%
X89300000Y-75500000D03*
%TD*%
D26*
%TO.P,J3,1*%
%TO.N,/amp2/OutP*%
X109500000Y-134500000D03*
%TO.P,J3,2*%
%TO.N,/amp2/OutN*%
X114500000Y-134500000D03*
%TD*%
D10*
%TO.P,J10,1,Pin_1*%
%TO.N,+24V*%
X135200000Y-64465000D03*
D11*
%TO.P,J10,2,Pin_2*%
%TO.N,Net-(J10-Pin_2)*%
X137740000Y-64465000D03*
%TO.P,J10,3,Pin_3*%
%TO.N,GND*%
X140280000Y-64465000D03*
%TD*%
D24*
%TO.P,C60,1*%
%TO.N,/amp4/OutN*%
X170537500Y-122477621D03*
%TO.P,C60,2*%
%TO.N,Net-(C60-Pad2)*%
X168462500Y-122477621D03*
%TD*%
D17*
%TO.P,R31,1*%
%TO.N,Net-(J10-Pin_2)*%
X144440000Y-79120000D03*
%TO.P,R31,2*%
%TO.N,/amp3/Gain0*%
X144440000Y-81120000D03*
%TD*%
D28*
%TO.P,R30,1*%
%TO.N,Net-(J9-Pin_2)*%
X117370000Y-86100000D03*
%TO.P,R30,2*%
%TO.N,/amp2/Gain0*%
X115370000Y-86100000D03*
%TD*%
D14*
%TO.P,C2,1*%
%TO.N,Net-(U1-INN)*%
X85500000Y-84237500D03*
%TO.P,C2,2*%
%TO.N,Net-(C2-Pad2)*%
X85500000Y-82162500D03*
%TD*%
D12*
%TO.P,C22,1*%
%TO.N,+24V*%
X120510000Y-99507621D03*
D13*
%TO.P,C22,2*%
%TO.N,GND*%
X120510000Y-102007621D03*
%TD*%
D17*
%TO.P,R34,1*%
%TO.N,Net-(J13-Pin_2)*%
X105770000Y-78020000D03*
%TO.P,R34,2*%
%TO.N,/amp2/Gain1*%
X105770000Y-80020000D03*
%TD*%
D28*
%TO.P,R27,1*%
%TO.N,Net-(C31-Pad2)*%
X135310000Y-81420000D03*
%TO.P,R27,2*%
%TO.N,Net-(C30-Pad1)*%
X133310000Y-81420000D03*
%TD*%
D18*
%TO.P,TP18,1,1*%
%TO.N,/In2P*%
X118850000Y-74190000D03*
%TD*%
%TO.P,TP6,1,1*%
%TO.N,/amp2/OutP_unfiltered*%
X102510000Y-108507621D03*
%TD*%
%TO.P,TP31,1,1*%
%TO.N,Net-(C31-Pad2)*%
X139940000Y-83610000D03*
%TD*%
D20*
%TO.P,C69,1*%
%TO.N,Net-(C61-Pad1)*%
X158462500Y-125477621D03*
%TO.P,C69,2*%
%TO.N,GND*%
X160537500Y-125477621D03*
%TD*%
D18*
%TO.P,TP3,1,1*%
%TO.N,/amp3/OutN_unfiltered*%
X146490000Y-108490000D03*
%TD*%
%TO.P,TP20,1,1*%
%TO.N,/In4P*%
X153760000Y-77590000D03*
%TD*%
D14*
%TO.P,C46,1*%
%TO.N,Net-(U4-INN)*%
X160400000Y-85340000D03*
%TO.P,C46,2*%
%TO.N,Net-(C46-Pad2)*%
X160400000Y-83265000D03*
%TD*%
D28*
%TO.P,R28,1*%
%TO.N,Net-(C46-Pad2)*%
X160240000Y-80790000D03*
%TO.P,R28,2*%
%TO.N,Net-(C45-Pad1)*%
X158240000Y-80790000D03*
%TD*%
D14*
%TO.P,C19,1*%
%TO.N,GND*%
X119900000Y-90775000D03*
%TO.P,C19,2*%
%TO.N,Net-(U2-\u002AFAULT)*%
X119900000Y-88700000D03*
%TD*%
%TO.P,C57,1*%
%TO.N,+24V*%
X155000000Y-96275000D03*
%TO.P,C57,2*%
%TO.N,GND*%
X155000000Y-94200000D03*
%TD*%
%TO.P,C56,1*%
%TO.N,+24V*%
X171000000Y-96000000D03*
%TO.P,C56,2*%
%TO.N,GND*%
X171000000Y-93925000D03*
%TD*%
%TO.P,C39,1*%
%TO.N,+24V*%
X127100000Y-96175000D03*
%TO.P,C39,2*%
%TO.N,GND*%
X127100000Y-94100000D03*
%TD*%
%TO.P,C55,1*%
%TO.N,+24V*%
X152100000Y-96275000D03*
%TO.P,C55,2*%
%TO.N,GND*%
X152100000Y-94200000D03*
%TD*%
%TO.P,C12,1*%
%TO.N,+24V*%
X80200000Y-95937500D03*
%TO.P,C12,2*%
%TO.N,GND*%
X80200000Y-93862500D03*
%TD*%
%TO.P,C59,1*%
%TO.N,+24V*%
X168600000Y-95937500D03*
%TO.P,C59,2*%
%TO.N,GND*%
X168600000Y-93862500D03*
%TD*%
%TO.P,C10,1*%
%TO.N,+24V*%
X77700000Y-95037500D03*
%TO.P,C10,2*%
%TO.N,GND*%
X77700000Y-92962500D03*
%TD*%
%TO.P,C40,1*%
%TO.N,+24V*%
X147400000Y-96275000D03*
%TO.P,C40,2*%
%TO.N,GND*%
X147400000Y-94200000D03*
%TD*%
%TO.P,C41,1*%
%TO.N,+24V*%
X129900000Y-96175000D03*
%TO.P,C41,2*%
%TO.N,GND*%
X129900000Y-94100000D03*
%TD*%
%TO.P,C25,1*%
%TO.N,+24V*%
X121900000Y-96075000D03*
%TO.P,C25,2*%
%TO.N,GND*%
X121900000Y-94000000D03*
%TD*%
%TO.P,C13,1*%
%TO.N,+24V*%
X97100000Y-96237500D03*
%TO.P,C13,2*%
%TO.N,GND*%
X97100000Y-94162500D03*
%TD*%
%TO.P,C24,1*%
%TO.N,+24V*%
X102200000Y-96237500D03*
%TO.P,C24,2*%
%TO.N,GND*%
X102200000Y-94162500D03*
%TD*%
%TO.P,C27,1*%
%TO.N,+24V*%
X119000000Y-96075000D03*
%TO.P,C27,2*%
%TO.N,GND*%
X119000000Y-94000000D03*
%TD*%
%TO.P,C42,1*%
%TO.N,+24V*%
X144500000Y-96275000D03*
%TO.P,C42,2*%
%TO.N,GND*%
X144500000Y-94200000D03*
%TD*%
%TO.P,C26,1*%
%TO.N,+24V*%
X105100000Y-96237500D03*
%TO.P,C26,2*%
%TO.N,GND*%
X105100000Y-94162500D03*
%TD*%
%TO.P,C11,1*%
%TO.N,+24V*%
X94400000Y-96275000D03*
%TO.P,C11,2*%
%TO.N,GND*%
X94400000Y-94200000D03*
%TD*%
D31*
%TO.N,GND*%
X121500000Y-91200000D03*
X132800000Y-95100000D03*
X157800000Y-94900000D03*
D32*
%TO.N,+24V*%
X124500000Y-74020000D03*
X124500000Y-72520000D03*
X124500000Y-71020000D03*
X124500000Y-69520000D03*
X99500000Y-67900000D03*
X99500000Y-69400000D03*
X99500000Y-70900000D03*
X99500000Y-82390000D03*
X99500000Y-83890000D03*
X99500000Y-85390000D03*
X149500000Y-79777621D03*
X149500000Y-81277621D03*
X149500000Y-82777621D03*
D31*
%TO.N,GND*%
X146100000Y-91600000D03*
D32*
%TO.N,+24V*%
X151700000Y-71200000D03*
X172600000Y-87300000D03*
D31*
%TO.N,GND*%
X170000000Y-91600000D03*
X107700000Y-94900000D03*
D32*
%TO.N,+24V*%
X99500000Y-72400000D03*
D31*
%TO.N,GND*%
X95800000Y-91100000D03*
X82600000Y-94900000D03*
X162000000Y-123977621D03*
D33*
X113510000Y-93707621D03*
X114310000Y-94507621D03*
X136090000Y-94490000D03*
X87700000Y-93700000D03*
X161900000Y-93677621D03*
X112710000Y-93707621D03*
X111910000Y-94507621D03*
X85300000Y-93700000D03*
X162700000Y-93677621D03*
X160374983Y-98367621D03*
X110310000Y-93707621D03*
X111110000Y-93707621D03*
X85300000Y-92900000D03*
X136890000Y-93690000D03*
X86900000Y-94500000D03*
X134490000Y-94490000D03*
X135290000Y-94490000D03*
X134490000Y-93690000D03*
X136890000Y-92890000D03*
X161100000Y-92877621D03*
X159500000Y-92877621D03*
X114310000Y-93707621D03*
X163500000Y-92877621D03*
X85300000Y-94500000D03*
X139290000Y-94490000D03*
X89925051Y-89074949D03*
X163500000Y-93677621D03*
X114310000Y-92907621D03*
X109510000Y-94507621D03*
X88500000Y-92900000D03*
X160300000Y-93677621D03*
X110310000Y-92907621D03*
X111910000Y-93707621D03*
X136890000Y-94490000D03*
X160300000Y-94477621D03*
X137690000Y-92890000D03*
X161900000Y-94477621D03*
X162700000Y-94477621D03*
X112710000Y-94507621D03*
X84500000Y-93700000D03*
X137690000Y-93690000D03*
X139915051Y-89064949D03*
X113635017Y-98437621D03*
X160300000Y-92877621D03*
X86900000Y-93700000D03*
X139290000Y-93690000D03*
X87700000Y-92900000D03*
X86100000Y-92900000D03*
X138490000Y-94490000D03*
X86100000Y-94500000D03*
X164300000Y-94477621D03*
X164300000Y-92877621D03*
X89300000Y-92900000D03*
X135290000Y-93690000D03*
X161900000Y-92877621D03*
X137690000Y-94490000D03*
X163500000Y-94477621D03*
X113510000Y-94507621D03*
X159500000Y-94477621D03*
X135364983Y-98380000D03*
X136090000Y-93690000D03*
X139290000Y-92890000D03*
X110384983Y-98397621D03*
X109510000Y-93707621D03*
X164925051Y-89052570D03*
D31*
X136990000Y-123990000D03*
D33*
X85374983Y-98390000D03*
X88500000Y-94500000D03*
X136090000Y-92890000D03*
X84500000Y-92900000D03*
X110310000Y-94507621D03*
X113510000Y-92907621D03*
X135290000Y-92890000D03*
X162700000Y-92877621D03*
D31*
X87000000Y-124000000D03*
D33*
X86900000Y-92900000D03*
X164300000Y-93677621D03*
X89300000Y-93700000D03*
X161100000Y-94477621D03*
X109510000Y-92907621D03*
X88625017Y-98430000D03*
X111910000Y-92907621D03*
X114935051Y-89082570D03*
X134490000Y-92890000D03*
X87700000Y-94500000D03*
X84500000Y-94500000D03*
X138615017Y-98420000D03*
X111110000Y-94507621D03*
X111110000Y-92907621D03*
X161100000Y-93677621D03*
X89300000Y-94500000D03*
D31*
X112010000Y-124007621D03*
D33*
X88500000Y-93700000D03*
X112710000Y-92907621D03*
X138490000Y-92890000D03*
X159500000Y-93677621D03*
X163625017Y-98407621D03*
X86100000Y-93700000D03*
X138490000Y-93690000D03*
D32*
%TO.N,+24V*%
X124500000Y-84100000D03*
X149500000Y-84277621D03*
X99500000Y-86890000D03*
D33*
%TO.N,Net-(U1-GVDD)*%
X86040000Y-88980000D03*
%TO.N,Net-(U2-GVDD)*%
X111050000Y-88987621D03*
%TO.N,Net-(U3-GVDD)*%
X136030000Y-88970000D03*
%TO.N,Net-(U4-GVDD)*%
X161040000Y-88957621D03*
%TO.N,Net-(C6-Pad2)*%
X88950000Y-106500000D03*
X92050000Y-106500000D03*
%TO.N,Net-(C7-Pad2)*%
X81950000Y-106500000D03*
X85050000Y-106500000D03*
%TO.N,Net-(C20-Pad2)*%
X113960000Y-106507621D03*
X117060000Y-106507621D03*
%TO.N,Net-(C21-Pad2)*%
X106960000Y-106507621D03*
X110060000Y-106507621D03*
%TO.N,Net-(C35-Pad2)*%
X138940000Y-106490000D03*
X142040000Y-106490000D03*
%TO.N,Net-(C36-Pad2)*%
X135040000Y-106490000D03*
X131940000Y-106490000D03*
%TO.N,Net-(C50-Pad2)*%
X167050000Y-106477621D03*
X163950000Y-106477621D03*
%TO.N,Net-(C51-Pad2)*%
X156950000Y-106477621D03*
X160050000Y-106477621D03*
D31*
%TO.N,/amp1/AVCC*%
X80985000Y-89995000D03*
X87330000Y-88930000D03*
%TO.N,/amp2/AVCC*%
X106140000Y-90090000D03*
D33*
X112340000Y-88847621D03*
%TO.N,/amp3/AVCC*%
X137320000Y-88830000D03*
D31*
X131030000Y-90030000D03*
%TO.N,/amp4/AVCC*%
X156150000Y-89870000D03*
D33*
X162330000Y-88817621D03*
D32*
%TO.N,+24V*%
X153700000Y-73200000D03*
X152700000Y-72200000D03*
X149700000Y-69200000D03*
X150700000Y-70200000D03*
%TD*%
D34*
%TO.N,+24V*%
X172600000Y-86200000D02*
X173200000Y-86800000D01*
X173200000Y-86800000D02*
X173200000Y-96702621D01*
X173200000Y-96702621D02*
X170400000Y-96702621D01*
D35*
%TO.N,GND*%
X170000000Y-91600000D02*
X171000000Y-92600000D01*
X171000000Y-92600000D02*
X171000000Y-93925000D01*
D34*
%TO.N,+24V*%
X116295895Y-96700000D02*
X120900000Y-96700000D01*
X120510000Y-97090000D02*
X120900000Y-96700000D01*
X120900000Y-96700000D02*
X128580000Y-96700000D01*
X120510000Y-99507621D02*
X120510000Y-97090000D01*
X128490000Y-99490000D02*
X128490000Y-96790000D01*
X128490000Y-96790000D02*
X128580000Y-96700000D01*
D36*
%TO.N,Net-(U1-\u002AFAULT)*%
X94200000Y-89000000D02*
X94200000Y-86700000D01*
X94200000Y-86700000D02*
X94000000Y-86500000D01*
X91225074Y-90728200D02*
X92471800Y-90728200D01*
X92471800Y-90728200D02*
X94200000Y-89000000D01*
X90575063Y-90728200D02*
X91225074Y-90728200D01*
D35*
%TO.N,GND*%
X121500000Y-91200000D02*
X121500000Y-93600000D01*
X121500000Y-93600000D02*
X121900000Y-94000000D01*
X119900000Y-90775000D02*
X121075000Y-90775000D01*
X121075000Y-90775000D02*
X121500000Y-91200000D01*
D36*
%TO.N,Net-(U2-\u002AFAULT)*%
X119900000Y-88700000D02*
X119900000Y-86400000D01*
X119900000Y-86400000D02*
X119800000Y-86300000D01*
X116235074Y-90735821D02*
X117864179Y-90735821D01*
X117864179Y-90735821D02*
X119900000Y-88700000D01*
X115585063Y-90735821D02*
X116235074Y-90735821D01*
D34*
%TO.N,+24V*%
X124500000Y-69520000D02*
X124500000Y-86300000D01*
X124500000Y-86300000D02*
X124500000Y-96690000D01*
D35*
X121800000Y-86300000D02*
X124500000Y-86300000D01*
%TO.N,GND*%
X131800000Y-94100000D02*
X132800000Y-95100000D01*
X129900000Y-94100000D02*
X131800000Y-94100000D01*
X127100000Y-94100000D02*
X129900000Y-94100000D01*
X157100000Y-94200000D02*
X157800000Y-94900000D01*
X155000000Y-94200000D02*
X157100000Y-94200000D01*
X152100000Y-94200000D02*
X155000000Y-94200000D01*
D34*
%TO.N,+24V*%
X116263274Y-96732621D02*
X116295895Y-96700000D01*
X128580000Y-96700000D02*
X128590000Y-96690000D01*
X145500000Y-96677621D02*
X153500000Y-96677621D01*
X153500000Y-96677621D02*
X157746726Y-96677621D01*
X153500000Y-99477621D02*
X153500000Y-96677621D01*
X141280653Y-96677621D02*
X145500000Y-96677621D01*
X145490000Y-99490000D02*
X145490000Y-96687621D01*
X145490000Y-96687621D02*
X145500000Y-96677621D01*
X153700000Y-73200000D02*
X149100000Y-68600000D01*
X149100000Y-68600000D02*
X149100000Y-60650000D01*
X149100000Y-60650000D02*
X150680000Y-59070000D01*
X149500000Y-79800000D02*
X149500000Y-86500000D01*
D35*
%TO.N,GND*%
X144500000Y-90675000D02*
X145175000Y-90675000D01*
X145175000Y-90675000D02*
X146100000Y-91600000D01*
X146100000Y-94200000D02*
X146100000Y-91600000D01*
X144500000Y-94200000D02*
X146100000Y-94200000D01*
X146100000Y-94200000D02*
X147400000Y-94200000D01*
%TO.N,+24V*%
X146800000Y-86300000D02*
X149300000Y-86300000D01*
D34*
X149500000Y-86500000D02*
X149500000Y-96677621D01*
D36*
%TO.N,Net-(U3-\u002AFAULT)*%
X141215074Y-90718200D02*
X141318200Y-90718200D01*
X141318200Y-90718200D02*
X143436400Y-88600000D01*
X143436400Y-88600000D02*
X144500000Y-88600000D01*
X140565063Y-90718200D02*
X141215074Y-90718200D01*
X144800000Y-86300000D02*
X144800000Y-88300000D01*
X144800000Y-88300000D02*
X144500000Y-88600000D01*
D34*
%TO.N,+24V*%
X141243274Y-96715000D02*
X141280653Y-96677621D01*
X154000000Y-59070000D02*
X156910000Y-59070000D01*
X150680000Y-59070000D02*
X154000000Y-59070000D01*
D36*
%TO.N,Net-(U4-\u002AFAULT)*%
X168800000Y-86200000D02*
X168800000Y-88400000D01*
X168800000Y-88400000D02*
X168700000Y-88500000D01*
X166225074Y-90705821D02*
X165575063Y-90705821D01*
X168700000Y-88500000D02*
X166494179Y-90705821D01*
X166494179Y-90705821D02*
X166225074Y-90705821D01*
D34*
%TO.N,+24V*%
X172600000Y-66100000D02*
X172600000Y-86200000D01*
D35*
X170800000Y-86200000D02*
X172600000Y-86200000D01*
%TO.N,GND*%
X168700000Y-90575000D02*
X168975000Y-90575000D01*
X168975000Y-90575000D02*
X170000000Y-91600000D01*
X168500000Y-93962500D02*
X168500000Y-93100000D01*
X168500000Y-93100000D02*
X170000000Y-91600000D01*
D34*
%TO.N,+24V*%
X170500000Y-99477621D02*
X170500000Y-96802621D01*
X170500000Y-96802621D02*
X170400000Y-96702621D01*
X160210001Y-62370001D02*
X162180002Y-60400000D01*
X162180002Y-60400000D02*
X166900000Y-60400000D01*
X166900000Y-60400000D02*
X172600000Y-66100000D01*
D35*
%TO.N,GND*%
X106962500Y-94162500D02*
X107700000Y-94900000D01*
X105100000Y-94162500D02*
X106962500Y-94162500D01*
X102200000Y-94162500D02*
X105100000Y-94162500D01*
X95800000Y-94200000D02*
X96825000Y-94200000D01*
X95800000Y-94200000D02*
X95800000Y-91100000D01*
X94400000Y-94200000D02*
X95800000Y-94200000D01*
X96825000Y-94200000D02*
X97000000Y-94025000D01*
D34*
%TO.N,+24V*%
X99500000Y-96700000D02*
X99475000Y-96725000D01*
X99475000Y-96725000D02*
X95400000Y-96725000D01*
X103610000Y-96707621D02*
X99507621Y-96707621D01*
X99500000Y-96700000D02*
X99500000Y-92625000D01*
X99507621Y-96707621D02*
X99500000Y-96700000D01*
X103510000Y-99507621D02*
X103510000Y-96807621D01*
X103510000Y-96807621D02*
X103610000Y-96707621D01*
X95500000Y-99500000D02*
X95500000Y-96825000D01*
X95500000Y-96825000D02*
X95400000Y-96725000D01*
X99500000Y-82300000D02*
X99500000Y-92625000D01*
X99500000Y-72400000D02*
X99500000Y-59340000D01*
X99500000Y-59340000D02*
X100500000Y-58340000D01*
D35*
%TO.N,GND*%
X95775000Y-91075000D02*
X95800000Y-91100000D01*
X94200000Y-91075000D02*
X95775000Y-91075000D01*
%TO.N,Net-(U1-\u002AFAULT)*%
X94000000Y-88800000D02*
X94200000Y-89000000D01*
D37*
%TO.N,+24V*%
X99500000Y-86890000D02*
X99310000Y-86700000D01*
X99310000Y-86700000D02*
X96200000Y-86700000D01*
X96200000Y-86700000D02*
X96000000Y-86500000D01*
X96000000Y-86500000D02*
X95900000Y-86500000D01*
D35*
%TO.N,GND*%
X81562500Y-93862500D02*
X82600000Y-94900000D01*
X80200000Y-93862500D02*
X81562500Y-93862500D01*
X77700000Y-92962500D02*
X79300000Y-92962500D01*
X79300000Y-92962500D02*
X80200000Y-93862500D01*
D34*
%TO.N,+24V*%
X78500000Y-96600000D02*
X78600000Y-96700000D01*
X78600000Y-96700000D02*
X82746726Y-96700000D01*
X85210000Y-62125000D02*
X75900000Y-71435000D01*
X75900000Y-71435000D02*
X75900000Y-94000000D01*
X75900000Y-94000000D02*
X78500000Y-96600000D01*
X78500000Y-96600000D02*
X78500000Y-96800000D01*
X78500000Y-99500000D02*
X78500000Y-96800000D01*
D36*
%TO.N,Net-(U1-INP)*%
X84074949Y-85012449D02*
X84074949Y-90728200D01*
X83300000Y-84237500D02*
X84074949Y-85012449D01*
%TO.N,Net-(U1-INN)*%
X84724960Y-90728200D02*
X84724960Y-85012540D01*
X84724960Y-85012540D02*
X85500000Y-84237500D01*
D37*
%TO.N,GND*%
X136664994Y-93064994D02*
X136690000Y-93090000D01*
X89275040Y-93275040D02*
X89300000Y-93300000D01*
X163625028Y-96649421D02*
X163625028Y-98407610D01*
X85500000Y-122500000D02*
X87000000Y-124000000D01*
X164925051Y-90705821D02*
X164925051Y-89052570D01*
D36*
X159874972Y-94552593D02*
X159800000Y-94477621D01*
D37*
X88462500Y-125462500D02*
X87000000Y-124000000D01*
D36*
X86174994Y-92674994D02*
X86400000Y-92900000D01*
D37*
X136990000Y-124027500D02*
X135527500Y-125490000D01*
X112010000Y-124007621D02*
X112010000Y-124045121D01*
X160500000Y-122477621D02*
X162000000Y-123977621D01*
D36*
X138115028Y-94615028D02*
X137990000Y-94490000D01*
D37*
X138615028Y-94315028D02*
X138590000Y-94290000D01*
X164275040Y-93252661D02*
X164300000Y-93277621D01*
X162000000Y-123977621D02*
X163500000Y-122477621D01*
X113472500Y-125470121D02*
X112010000Y-124007621D01*
X88625028Y-94325028D02*
X88600000Y-94300000D01*
X139915051Y-90718200D02*
X139915051Y-89064949D01*
D36*
X163775040Y-92852661D02*
X163800000Y-92877621D01*
D37*
X139915051Y-90718200D02*
X139265040Y-90718200D01*
X113472500Y-125507621D02*
X113472500Y-125470121D01*
X110384972Y-98397610D02*
X110384983Y-98397621D01*
X160374972Y-98367610D02*
X160374983Y-98367621D01*
X163625028Y-98407610D02*
X163625017Y-98407621D01*
X88625028Y-98429989D02*
X88625017Y-98430000D01*
X110510000Y-122507621D02*
X112010000Y-124007621D01*
X85374972Y-98389989D02*
X85374983Y-98390000D01*
X87000000Y-124000000D02*
X88500000Y-122500000D01*
D36*
X88125028Y-94625028D02*
X88000000Y-94500000D01*
D37*
X87000000Y-124000000D02*
X87000000Y-124037500D01*
X111684994Y-90735821D02*
X111684994Y-93082615D01*
X113635028Y-98437610D02*
X113635017Y-98437621D01*
D36*
X134864972Y-94564972D02*
X134790000Y-94490000D01*
D37*
X85374972Y-96671800D02*
X85374972Y-98389989D01*
D36*
X113785040Y-92882661D02*
X113810000Y-92907621D01*
D37*
X114285040Y-93282661D02*
X114310000Y-93307621D01*
X113635028Y-94332649D02*
X113610000Y-94307621D01*
X164925051Y-90705821D02*
X164275040Y-90705821D01*
X136990000Y-123990000D02*
X136990000Y-124027500D01*
X138615028Y-98419989D02*
X138615017Y-98420000D01*
X110384972Y-94282593D02*
X110310000Y-94207621D01*
X136664994Y-90718200D02*
X136664994Y-93064994D01*
X135364972Y-96661800D02*
X135364972Y-98379989D01*
D36*
X111184994Y-92682615D02*
X111410000Y-92907621D01*
D37*
X138452500Y-125452500D02*
X136990000Y-123990000D01*
D36*
X136164994Y-92664994D02*
X136390000Y-92890000D01*
X163125028Y-94602649D02*
X163000000Y-94477621D01*
D37*
X161674994Y-90705821D02*
X161674994Y-93052615D01*
X89925051Y-90728200D02*
X89925051Y-89074949D01*
X88462500Y-125500000D02*
X88462500Y-125462500D01*
X110384972Y-96679421D02*
X110384972Y-98397610D01*
X85374972Y-94274972D02*
X85300000Y-94200000D01*
X86674994Y-93074994D02*
X86700000Y-93100000D01*
X135364972Y-94264972D02*
X135290000Y-94190000D01*
X112010000Y-124045121D02*
X110547500Y-125507621D01*
X114935051Y-90735821D02*
X114285040Y-90735821D01*
X138452500Y-125490000D02*
X138452500Y-125452500D01*
D36*
X113135028Y-94632649D02*
X113010000Y-94507621D01*
D37*
X111684994Y-93082615D02*
X111710000Y-93107621D01*
X135364972Y-98379989D02*
X135364983Y-98380000D01*
D36*
X88775040Y-92875040D02*
X88800000Y-92900000D01*
D37*
X163462500Y-125477621D02*
X163462500Y-125440121D01*
X112010000Y-124007621D02*
X113510000Y-122507621D01*
X160374972Y-96649421D02*
X160374972Y-98367610D01*
D36*
X161174994Y-92652615D02*
X161400000Y-92877621D01*
D37*
X139265040Y-93265040D02*
X139290000Y-93290000D01*
D36*
X84874972Y-94574972D02*
X84800000Y-94500000D01*
D37*
X88625028Y-96671800D02*
X88625028Y-98429989D01*
X136990000Y-123990000D02*
X138490000Y-122490000D01*
X87000000Y-124037500D02*
X85537500Y-125500000D01*
D36*
X138765040Y-92865040D02*
X138790000Y-92890000D01*
D37*
X135490000Y-122490000D02*
X136990000Y-123990000D01*
X86674994Y-90728200D02*
X86674994Y-93074994D01*
X114935051Y-90735821D02*
X114935051Y-89082570D01*
X161674994Y-93052615D02*
X161700000Y-93077621D01*
X162000000Y-124015121D02*
X160537500Y-125477621D01*
X138615028Y-96661800D02*
X138615028Y-98419989D01*
X163625028Y-94302649D02*
X163600000Y-94277621D01*
X113635028Y-96679421D02*
X113635028Y-98437610D01*
X162000000Y-123977621D02*
X162000000Y-124015121D01*
X89925051Y-90728200D02*
X89275040Y-90728200D01*
D36*
X109884972Y-94582593D02*
X109810000Y-94507621D01*
D37*
X163462500Y-125440121D02*
X162000000Y-123977621D01*
X160374972Y-94252593D02*
X160300000Y-94177621D01*
D34*
%TO.N,+24V*%
X100500000Y-58340000D02*
X100120000Y-58720000D01*
X100500000Y-58340000D02*
X100500000Y-54500000D01*
X152500000Y-45000000D02*
X152500000Y-51960000D01*
X100500000Y-54500000D02*
X101460000Y-53540000D01*
X128590000Y-96690000D02*
X132736726Y-96690000D01*
X156910000Y-59070000D02*
X160210001Y-62370001D01*
X170400000Y-96702621D02*
X166253274Y-96702621D01*
X160210001Y-64452621D02*
X160210001Y-69977621D01*
X100120000Y-58720000D02*
X88615000Y-58720000D01*
D36*
X151400000Y-54500000D02*
X150680000Y-53780000D01*
X162000000Y-54500000D02*
X151400000Y-54500000D01*
D34*
X101460000Y-45040000D02*
X101500000Y-45000000D01*
D37*
X93150000Y-53350000D02*
X101500000Y-45000000D01*
D34*
X85210000Y-64475000D02*
X85210000Y-70000000D01*
X150680000Y-59070000D02*
X150680000Y-53780000D01*
X95400000Y-96725000D02*
X91253274Y-96725000D01*
X152500000Y-51960000D02*
X150680000Y-53780000D01*
X103610000Y-96707621D02*
X107756726Y-96707621D01*
X88615000Y-58720000D02*
X85210000Y-62125000D01*
X101460000Y-53540000D02*
X101460000Y-45040000D01*
X160210001Y-62370001D02*
X160210001Y-64452621D01*
X85210000Y-62125000D02*
X85210000Y-64475000D01*
D37*
X87000000Y-54500000D02*
X88150000Y-53350000D01*
X88150000Y-53350000D02*
X93150000Y-53350000D01*
%TO.N,Net-(U1-GVDD)*%
X86040000Y-88980000D02*
X86024983Y-88995017D01*
X86024983Y-88995017D02*
X86024983Y-90728200D01*
X85374972Y-90728200D02*
X86024983Y-90728200D01*
D36*
%TO.N,Net-(U2-INP)*%
X108310000Y-84245121D02*
X109084949Y-85020070D01*
X109084949Y-85020070D02*
X109084949Y-90735821D01*
%TO.N,Net-(U2-INN)*%
X109734960Y-85020161D02*
X110510000Y-84245121D01*
X109734960Y-90735821D02*
X109734960Y-85020161D01*
D37*
%TO.N,Net-(U2-GVDD)*%
X111034983Y-89002638D02*
X111034983Y-90735821D01*
X111050000Y-88987621D02*
X111034983Y-89002638D01*
X110384972Y-90735821D02*
X111034983Y-90735821D01*
D38*
%TO.N,/amp2/OutN*%
X113078750Y-128507621D02*
X114470000Y-128507621D01*
X116541250Y-128507621D02*
X120541250Y-124507621D01*
D36*
X118492379Y-130507621D02*
X114500000Y-134500000D01*
D38*
X114470000Y-128507621D02*
X114500000Y-128537621D01*
X120541250Y-124507621D02*
X120541250Y-118288871D01*
X120541250Y-118288871D02*
X118010000Y-115757621D01*
X114470000Y-128507621D02*
X116541250Y-128507621D01*
X118010000Y-115757621D02*
X114482621Y-115757621D01*
X114482621Y-115757621D02*
X113250000Y-114525000D01*
D36*
X120510000Y-130507621D02*
X118492379Y-130507621D01*
D38*
X114500000Y-128537621D02*
X114500000Y-134500000D01*
%TO.N,/amp2/OutP*%
X109017379Y-115757621D02*
X110250000Y-114525000D01*
X106010000Y-115757621D02*
X109017379Y-115757621D01*
D36*
X103510000Y-130507621D02*
X105510000Y-130507621D01*
X105510000Y-130510000D02*
X109500000Y-134500000D01*
D38*
X109500000Y-128537621D02*
X109500000Y-134500000D01*
X109530000Y-128507621D02*
X109500000Y-128537621D01*
X103510000Y-118257621D02*
X103510000Y-124507621D01*
D36*
X105510000Y-130507621D02*
X105510000Y-130510000D01*
D38*
X107510000Y-128507621D02*
X109530000Y-128507621D01*
X106010000Y-115757621D02*
X103510000Y-118257621D01*
X109530000Y-128507621D02*
X110972500Y-128507621D01*
X103510000Y-124507621D02*
X107510000Y-128507621D01*
D36*
%TO.N,Net-(U3-INP)*%
X134064949Y-90718200D02*
X134064949Y-86594949D01*
X134064949Y-86594949D02*
X133280000Y-85810000D01*
%TO.N,Net-(U3-INN)*%
X134714960Y-90718200D02*
X134714960Y-86575040D01*
X134714960Y-86575040D02*
X135480000Y-85810000D01*
D37*
%TO.N,Net-(U3-GVDD)*%
X136014983Y-88985017D02*
X136014983Y-90718200D01*
X136030000Y-88970000D02*
X136014983Y-88985017D01*
X135364972Y-90718200D02*
X136014983Y-90718200D01*
D36*
%TO.N,/amp3/OutN*%
X143470000Y-130510000D02*
X139500000Y-134480000D01*
X139500000Y-134480000D02*
X139500000Y-134500000D01*
D38*
X142990000Y-115740000D02*
X139965000Y-115740000D01*
X139510000Y-128490000D02*
X139500000Y-128500000D01*
X145521250Y-118271250D02*
X142990000Y-115740000D01*
D36*
X145490000Y-130490000D02*
X143490000Y-130490000D01*
D38*
X139500000Y-128500000D02*
X139500000Y-134500000D01*
X141521250Y-128490000D02*
X145521250Y-124490000D01*
X138058750Y-128490000D02*
X139510000Y-128490000D01*
X139510000Y-128490000D02*
X141521250Y-128490000D01*
X145521250Y-124490000D02*
X145521250Y-118271250D01*
X139965000Y-115740000D02*
X138750000Y-114525000D01*
D36*
X143490000Y-130510000D02*
X143470000Y-130510000D01*
D38*
%TO.N,/amp3/OutP*%
X134560000Y-128490000D02*
X134500000Y-128550000D01*
X130990000Y-115740000D02*
X128490000Y-118240000D01*
D36*
X130490000Y-130490000D02*
X134500000Y-134500000D01*
D38*
X128490000Y-124490000D02*
X132490000Y-128490000D01*
X132490000Y-128490000D02*
X134560000Y-128490000D01*
X128490000Y-118240000D02*
X128490000Y-124490000D01*
X134500000Y-128550000D02*
X134500000Y-134500000D01*
X134560000Y-128490000D02*
X135952500Y-128490000D01*
X134035000Y-115740000D02*
X135250000Y-114525000D01*
X130990000Y-115740000D02*
X134035000Y-115740000D01*
D36*
X128490000Y-130490000D02*
X130490000Y-130490000D01*
%TO.N,Net-(U4-INP)*%
X159074949Y-90705821D02*
X159074949Y-86214949D01*
X159074949Y-86214949D02*
X158200000Y-85340000D01*
%TO.N,Net-(U4-INN)*%
X159724960Y-90705821D02*
X159724960Y-86015040D01*
X159724960Y-86015040D02*
X160400000Y-85340000D01*
D37*
%TO.N,Net-(U4-GVDD)*%
X160374972Y-90705821D02*
X161024983Y-90705821D01*
X161024983Y-88972638D02*
X161024983Y-90705821D01*
X161040000Y-88957621D02*
X161024983Y-88972638D01*
D38*
%TO.N,/amp1/OutN*%
X89870000Y-128500000D02*
X91531250Y-128500000D01*
D36*
X95500000Y-130500000D02*
X93500000Y-130500000D01*
D38*
X89975000Y-115750000D02*
X88750000Y-114525000D01*
X93000000Y-115750000D02*
X89975000Y-115750000D01*
X95531250Y-118281250D02*
X93000000Y-115750000D01*
X91531250Y-128500000D02*
X95531250Y-124500000D01*
X95531250Y-124500000D02*
X95531250Y-118281250D01*
D36*
X93500000Y-130500000D02*
X89500000Y-134500000D01*
D38*
X89500000Y-128640000D02*
X89500000Y-134500000D01*
X88068750Y-128500000D02*
X89870000Y-128500000D01*
%TO.N,/amp1/OutP*%
X84590000Y-128500000D02*
X85962500Y-128500000D01*
D36*
X78500000Y-130500000D02*
X80500000Y-130500000D01*
D38*
X82500000Y-128500000D02*
X84590000Y-128500000D01*
X84025000Y-115750000D02*
X85250000Y-114525000D01*
X81000000Y-115750000D02*
X78500000Y-118250000D01*
X81000000Y-115750000D02*
X84025000Y-115750000D01*
X78500000Y-118250000D02*
X78500000Y-124500000D01*
D36*
X80500000Y-130500000D02*
X84500000Y-134500000D01*
D38*
X84500000Y-128590000D02*
X84500000Y-134500000D01*
X84590000Y-128500000D02*
X84500000Y-128590000D01*
X78500000Y-124500000D02*
X82500000Y-128500000D01*
%TO.N,/amp4/OutN*%
X163068750Y-128477621D02*
X164610000Y-128477621D01*
X170531250Y-118258871D02*
X168000000Y-115727621D01*
D36*
X170500000Y-130477621D02*
X168522379Y-130477621D01*
D38*
X170531250Y-124477621D02*
X170531250Y-118258871D01*
X164500000Y-129110000D02*
X164500000Y-134500000D01*
D36*
X168522379Y-130477621D02*
X164500000Y-134500000D01*
D38*
X164610000Y-129000000D02*
X164500000Y-129110000D01*
X168000000Y-115727621D02*
X164952621Y-115727621D01*
X166531250Y-128477621D02*
X170531250Y-124477621D01*
X164610000Y-128477621D02*
X164610000Y-129000000D01*
D36*
X170500000Y-130477621D02*
X168500000Y-130477621D01*
D38*
X164952621Y-115727621D02*
X163750000Y-114525000D01*
X164610000Y-128477621D02*
X166531250Y-128477621D01*
%TO.N,/amp4/OutP*%
X153500000Y-124477621D02*
X157500000Y-128477621D01*
X156000000Y-115727621D02*
X153500000Y-118227621D01*
X159330000Y-128477621D02*
X160962500Y-128477621D01*
X156000000Y-115727620D02*
X159047380Y-115727620D01*
D36*
X155500000Y-130477621D02*
X155500000Y-130500000D01*
D38*
X157500000Y-128477621D02*
X159330000Y-128477621D01*
X159500000Y-128647621D02*
X159500000Y-134500000D01*
D36*
X153500000Y-130477621D02*
X155500000Y-130477621D01*
D38*
X159047380Y-115727620D02*
X160250000Y-114525000D01*
X153500000Y-118227621D02*
X153500000Y-124477621D01*
X159330000Y-128477621D02*
X159500000Y-128647621D01*
D36*
X155500000Y-130500000D02*
X159500000Y-134500000D01*
%TO.N,/amp1/Gain0*%
X92940000Y-84870000D02*
X92940000Y-70740000D01*
X88625028Y-89184972D02*
X92940000Y-84870000D01*
X88625028Y-90728200D02*
X88625028Y-89184972D01*
X92940000Y-70740000D02*
X95580000Y-68100000D01*
%TO.N,/amp1/Gain1*%
X86384744Y-83225000D02*
X87975017Y-84815273D01*
X82100000Y-83225000D02*
X86384744Y-83225000D01*
X80950000Y-82075000D02*
X82100000Y-83225000D01*
X87975017Y-84815273D02*
X87975017Y-90728200D01*
X80950000Y-78680000D02*
X80950000Y-82075000D01*
%TO.N,/amp2/Gain0*%
X115370000Y-87457621D02*
X115370000Y-86100000D01*
X113635028Y-90735821D02*
X113635028Y-89192593D01*
X113635028Y-89192593D02*
X115370000Y-87457621D01*
%TO.N,/amp2/Gain1*%
X107110000Y-83232621D02*
X105770000Y-81892621D01*
X112985017Y-84822894D02*
X111394744Y-83232621D01*
X111394744Y-83232621D02*
X107110000Y-83232621D01*
X112985017Y-90735821D02*
X112985017Y-84822894D01*
X105770000Y-81892621D02*
X105770000Y-80020000D01*
%TO.N,/amp3/Gain0*%
X138615028Y-89384972D02*
X144440000Y-83560000D01*
X144440000Y-83560000D02*
X144440000Y-81120000D01*
X138615028Y-90718200D02*
X138615028Y-89384972D01*
%TO.N,/amp3/Gain1*%
X142340000Y-84160000D02*
X142310000Y-84160000D01*
X142340000Y-84160000D02*
X142340000Y-81120000D01*
X142310000Y-84160000D02*
X137965017Y-88504983D01*
X137965017Y-88504983D02*
X137965017Y-90718200D01*
%TO.N,/amp4/Gain0*%
X163625028Y-90705821D02*
X163625028Y-89204972D01*
X170380000Y-82450000D02*
X170380000Y-80400000D01*
X163625028Y-89204972D02*
X170380000Y-82450000D01*
%TO.N,/amp4/Gain1*%
X162975017Y-90705821D02*
X162975017Y-88214983D01*
X162975017Y-88214983D02*
X168160000Y-83030000D01*
X168160000Y-83030000D02*
X168160000Y-82490000D01*
X168160000Y-82490000D02*
X168160000Y-80360000D01*
%TO.N,Net-(R1-Pad2)*%
X82774926Y-89774926D02*
X81500000Y-88500000D01*
X82774926Y-90728200D02*
X82774926Y-89774926D01*
%TO.N,Net-(R3-Pad2)*%
X107784926Y-90735821D02*
X107784926Y-89782547D01*
X107784926Y-89782547D02*
X106510000Y-88507621D01*
%TO.N,Net-(R5-Pad2)*%
X132764926Y-90718200D02*
X132764926Y-89764926D01*
X132764926Y-89764926D02*
X131490000Y-88490000D01*
%TO.N,Net-(R7-Pad2)*%
X157774926Y-89752547D02*
X156500000Y-88477621D01*
X157774926Y-90705821D02*
X157774926Y-89752547D01*
%TO.N,/In1P*%
X115511936Y-56325000D02*
X105520000Y-66316936D01*
X94000000Y-78200000D02*
X93900000Y-78200000D01*
X96200000Y-75500000D02*
X96670000Y-75500000D01*
X117425000Y-56325000D02*
X115511936Y-56325000D01*
X120480000Y-53270000D02*
X117425000Y-56325000D01*
X120690000Y-53270000D02*
X120480000Y-53270000D01*
X105520000Y-68170000D02*
X95490000Y-78200000D01*
X105520000Y-66316936D02*
X105520000Y-68170000D01*
X93900000Y-77800000D02*
X96200000Y-75500000D01*
X93900000Y-78200000D02*
X93900000Y-77800000D01*
X95490000Y-78200000D02*
X93900000Y-78200000D01*
%TO.N,/In1N*%
X106050000Y-66352622D02*
X106050000Y-68250000D01*
X106050000Y-68250000D02*
X93900000Y-80400000D01*
X93970000Y-80400000D02*
X96660000Y-83090000D01*
X93900000Y-80400000D02*
X93970000Y-80400000D01*
X113392622Y-59010000D02*
X106050000Y-66352622D01*
X121975000Y-56527500D02*
X119492500Y-59010000D01*
X119492500Y-59010000D02*
X113392622Y-59010000D01*
X120690000Y-50730000D02*
X121975000Y-52015000D01*
X121975000Y-52015000D02*
X121975000Y-56527500D01*
%TO.N,/In2P*%
X118910000Y-62362500D02*
X123230000Y-58042500D01*
X118910000Y-78207621D02*
X118910000Y-62362500D01*
X123230000Y-58042500D02*
X123230000Y-53270000D01*
X119010000Y-78207621D02*
X118910000Y-78207621D01*
%TO.N,/In2N*%
X118910000Y-80407621D02*
X121290000Y-78027621D01*
X121290000Y-78027621D02*
X121290000Y-62885000D01*
X121290000Y-62885000D02*
X124430000Y-59745000D01*
X124430000Y-51930000D02*
X123230000Y-50730000D01*
X124430000Y-59745000D02*
X124430000Y-51930000D01*
X118910000Y-80407621D02*
X118980000Y-80407621D01*
%TO.N,/In3P*%
X128750000Y-76990000D02*
X133170000Y-76990000D01*
X132990000Y-76980000D02*
X125590000Y-69580000D01*
X133180000Y-76880000D02*
X133180000Y-76980000D01*
X125590000Y-53450000D02*
X125770000Y-53270000D01*
X133180000Y-76980000D02*
X132990000Y-76980000D01*
X133170000Y-76990000D02*
X133180000Y-76980000D01*
X125590000Y-69580000D02*
X125590000Y-53450000D01*
X133180000Y-76980000D02*
X132780000Y-76980000D01*
%TO.N,/In3N*%
X126620000Y-68700000D02*
X126620000Y-54117057D01*
X126970000Y-53767057D02*
X126970000Y-51930000D01*
X135380000Y-76980000D02*
X139850000Y-76980000D01*
X135380000Y-76980000D02*
X135380000Y-76910000D01*
X139850000Y-76980000D02*
X139860000Y-76990000D01*
X135380000Y-76980000D02*
X134900000Y-76980000D01*
X126620000Y-54117057D02*
X126970000Y-53767057D01*
X126970000Y-51930000D02*
X125770000Y-50730000D01*
X134900000Y-76980000D02*
X126620000Y-68700000D01*
%TO.N,/In4P*%
X158120000Y-76330000D02*
X156860000Y-77590000D01*
X156860000Y-77590000D02*
X153760000Y-77590000D01*
X157880000Y-76090000D02*
X153760000Y-76090000D01*
X158120000Y-76330000D02*
X157880000Y-76090000D01*
X135940000Y-60920000D02*
X128310000Y-53290000D01*
X138590000Y-60920000D02*
X135940000Y-60920000D01*
X128310000Y-53290000D02*
X128310000Y-53270000D01*
X158090000Y-76360000D02*
X158120000Y-76330000D01*
X153760000Y-76090000D02*
X138590000Y-60920000D01*
%TO.N,/In4N*%
X138880000Y-60250000D02*
X136140000Y-60250000D01*
X160320000Y-76330000D02*
X159420000Y-75430000D01*
X129510000Y-51930000D02*
X128310000Y-50730000D01*
X159420000Y-75430000D02*
X154060000Y-75430000D01*
X154060000Y-75430000D02*
X138880000Y-60250000D01*
X164680000Y-76430000D02*
X160420000Y-76430000D01*
X136140000Y-60250000D02*
X129510000Y-53620000D01*
X160420000Y-76430000D02*
X160320000Y-76330000D01*
X129510000Y-53620000D02*
X129510000Y-51930000D01*
%TO.N,Net-(C28-Pad2)*%
X115510000Y-122507621D02*
X118472500Y-122507621D01*
X115547500Y-125507621D02*
X115547500Y-122545121D01*
X115547500Y-122545121D02*
X115510000Y-122507621D01*
%TO.N,Net-(C29-Pad1)*%
X108472500Y-122545121D02*
X108510000Y-122507621D01*
X105547500Y-122507621D02*
X108510000Y-122507621D01*
X108472500Y-125507621D02*
X108472500Y-122545121D01*
%TO.N,Net-(C43-Pad2)*%
X140527500Y-125490000D02*
X140527500Y-122527500D01*
X140527500Y-122527500D02*
X140490000Y-122490000D01*
X140490000Y-122490000D02*
X143452500Y-122490000D01*
%TO.N,Net-(C44-Pad1)*%
X130527500Y-122490000D02*
X133490000Y-122490000D01*
X133452500Y-125490000D02*
X133452500Y-122527500D01*
X133452500Y-122527500D02*
X133490000Y-122490000D01*
%TO.N,Net-(C54-Pad2)*%
X90537500Y-122537500D02*
X90500000Y-122500000D01*
X90537500Y-125500000D02*
X90537500Y-122537500D01*
X90500000Y-122500000D02*
X93462500Y-122500000D01*
%TO.N,Net-(C58-Pad1)*%
X83462500Y-125500000D02*
X83462500Y-122537500D01*
X83462500Y-122537500D02*
X83500000Y-122500000D01*
X80537500Y-122500000D02*
X83500000Y-122500000D01*
%TO.N,Net-(C60-Pad2)*%
X165537500Y-122515121D02*
X165500000Y-122477621D01*
X165500000Y-122477621D02*
X168462500Y-122477621D01*
X165537500Y-125477621D02*
X165537500Y-122515121D01*
%TO.N,Net-(C61-Pad1)*%
X158462500Y-125477621D02*
X158462500Y-122515121D01*
X155537500Y-122477621D02*
X158500000Y-122477621D01*
X158462500Y-122515121D02*
X158500000Y-122477621D01*
D38*
%TO.N,/amp1/OutN_unfiltered*%
X90517500Y-101940000D02*
X90517500Y-99777500D01*
X88750000Y-110575000D02*
X90537500Y-108787500D01*
D37*
X89280000Y-99390000D02*
X89280000Y-96788391D01*
D38*
X90537500Y-108787500D02*
X90537500Y-101847500D01*
X88750000Y-112475000D02*
X88750000Y-110575000D01*
D36*
X93750000Y-111250000D02*
X93000000Y-111250000D01*
X96500000Y-108500000D02*
X93750000Y-111250000D01*
D37*
X87955017Y-96611800D02*
X87955017Y-99265017D01*
D38*
X93000000Y-111250000D02*
X90537500Y-108787500D01*
%TO.N,/amp1/OutP_unfiltered*%
X83462500Y-102000000D02*
X83462500Y-99837500D01*
X83462500Y-99837500D02*
X83475000Y-99825000D01*
X83462500Y-102000000D02*
X83462500Y-108787500D01*
D36*
X80250000Y-111250000D02*
X81000000Y-111250000D01*
D38*
X83462500Y-108787500D02*
X81000000Y-111250000D01*
X85250000Y-110575000D02*
X83462500Y-108787500D01*
D37*
X86024983Y-96671800D02*
X86024983Y-99325017D01*
D36*
X77500000Y-108500000D02*
X80250000Y-111250000D01*
D38*
X85250000Y-112475000D02*
X85250000Y-110575000D01*
D37*
X84700000Y-99450000D02*
X84700000Y-96848391D01*
D38*
%TO.N,/amp2/OutN_unfiltered*%
X113250000Y-112475000D02*
X113250000Y-111092621D01*
X115547500Y-108795121D02*
X115547500Y-101855121D01*
D37*
X114290000Y-99397621D02*
X114290000Y-96796012D01*
D38*
X113250000Y-111092621D02*
X115547500Y-108795121D01*
D36*
X118760000Y-111257621D02*
X118010000Y-111257621D01*
D38*
X118010000Y-111257621D02*
X115547500Y-108795121D01*
D37*
X112965017Y-96619421D02*
X112965017Y-99272638D01*
D36*
X121510000Y-108507621D02*
X118760000Y-111257621D01*
D38*
X115527500Y-101947621D02*
X115527500Y-99785121D01*
D36*
%TO.N,/amp2/OutP_unfiltered*%
X102510000Y-108507621D02*
X105260000Y-111257621D01*
D38*
X108472500Y-99845121D02*
X108485000Y-99832621D01*
X110250000Y-110572621D02*
X108472500Y-108795121D01*
X108472500Y-102007621D02*
X108472500Y-99845121D01*
D37*
X111034983Y-96679421D02*
X111034983Y-99332638D01*
D38*
X108472500Y-102007621D02*
X108472500Y-108795121D01*
X108472500Y-108795121D02*
X106010000Y-111257621D01*
D36*
X105260000Y-111257621D02*
X106010000Y-111257621D01*
D37*
X109710000Y-99457621D02*
X109710000Y-96856012D01*
D38*
X110250000Y-112475000D02*
X110250000Y-110572621D01*
%TO.N,/amp3/OutN_unfiltered*%
X138750000Y-112475000D02*
X138750000Y-110555000D01*
X138750000Y-110555000D02*
X140527500Y-108777500D01*
X140527500Y-108777500D02*
X140527500Y-101837500D01*
X142990000Y-111240000D02*
X140527500Y-108777500D01*
D36*
X146490000Y-108490000D02*
X143740000Y-111240000D01*
D37*
X137945017Y-96601800D02*
X137945017Y-99255017D01*
D36*
X143740000Y-111240000D02*
X142990000Y-111240000D01*
D37*
X139270000Y-99380000D02*
X139270000Y-96778391D01*
D38*
X140507500Y-101930000D02*
X140507500Y-99767500D01*
D36*
%TO.N,/amp3/OutP_unfiltered*%
X130240000Y-111240000D02*
X130990000Y-111240000D01*
D38*
X135250000Y-110575000D02*
X133452500Y-108777500D01*
X133452500Y-101990000D02*
X133452500Y-108777500D01*
X133452500Y-101990000D02*
X133452500Y-99827500D01*
X133452500Y-108777500D02*
X130990000Y-111240000D01*
X133452500Y-99827500D02*
X133465000Y-99815000D01*
D37*
X134690000Y-99440000D02*
X134690000Y-96838391D01*
X136014983Y-96661800D02*
X136014983Y-99315017D01*
D36*
X127490000Y-108490000D02*
X130240000Y-111240000D01*
D38*
X135250000Y-112475000D02*
X135250000Y-110575000D01*
%TO.N,/amp4/OutN_unfiltered*%
X165517500Y-101917621D02*
X165517500Y-99755121D01*
D36*
X168750000Y-111227621D02*
X168000000Y-111227621D01*
D38*
X163750000Y-110552621D02*
X163750000Y-112475000D01*
D37*
X164280000Y-99367621D02*
X164280000Y-96766012D01*
D38*
X165537500Y-108765121D02*
X165537500Y-101825121D01*
D36*
X171500000Y-108477621D02*
X168750000Y-111227621D01*
D37*
X162955017Y-96589421D02*
X162955017Y-99242638D01*
D38*
X168000000Y-111227621D02*
X165537500Y-108765121D01*
X165537500Y-108765121D02*
X163750000Y-110552621D01*
%TO.N,/amp4/OutP_unfiltered*%
X158462500Y-101977621D02*
X158462500Y-108765121D01*
D37*
X161024983Y-96649421D02*
X161024983Y-99302638D01*
D38*
X158462500Y-101977621D02*
X158462500Y-99815121D01*
X160250000Y-110552621D02*
X160250000Y-112475000D01*
X158462500Y-108765121D02*
X160250000Y-110552621D01*
X158462500Y-99815121D02*
X158475000Y-99802621D01*
D36*
X155250000Y-111227621D02*
X156000000Y-111227621D01*
D38*
X158462500Y-108765121D02*
X156000000Y-111227621D01*
D37*
X159700000Y-99427621D02*
X159700000Y-96826012D01*
D36*
X152500000Y-108477621D02*
X155250000Y-111227621D01*
%TO.N,Net-(C1-Pad1)*%
X87262500Y-78200000D02*
X91900000Y-78200000D01*
X83300000Y-82162500D02*
X87262500Y-78200000D01*
X89330000Y-75340000D02*
X89330000Y-78270000D01*
X89330000Y-78270000D02*
X89300000Y-78300000D01*
%TO.N,Net-(C2-Pad2)*%
X87262500Y-80400000D02*
X85500000Y-82162500D01*
X89290000Y-82820000D02*
X89290000Y-80310000D01*
X89290000Y-80310000D02*
X89300000Y-80300000D01*
X91900000Y-80400000D02*
X87262500Y-80400000D01*
%TO.N,Net-(C15-Pad1)*%
X114340000Y-78277621D02*
X114310000Y-78307621D01*
X108310000Y-82170121D02*
X112272500Y-78207621D01*
X114340000Y-75347621D02*
X114340000Y-78277621D01*
X112272500Y-78207621D02*
X116910000Y-78207621D01*
%TO.N,Net-(C16-Pad2)*%
X114300000Y-80317621D02*
X114310000Y-80307621D01*
X114300000Y-82827621D02*
X114300000Y-80317621D01*
X116910000Y-80407621D02*
X112272500Y-80407621D01*
X112272500Y-80407621D02*
X110510000Y-82170121D01*
%TO.N,Net-(C30-Pad1)*%
X133280000Y-83735000D02*
X133280000Y-79080000D01*
X133280000Y-79080000D02*
X133180000Y-78980000D01*
X133280000Y-83735000D02*
X129135000Y-83735000D01*
X129135000Y-83735000D02*
X128930000Y-83530000D01*
%TO.N,Net-(C31-Pad2)*%
X135480000Y-83735000D02*
X139815000Y-83735000D01*
X135480000Y-83735000D02*
X135480000Y-79080000D01*
X135480000Y-79080000D02*
X135380000Y-78980000D01*
X139815000Y-83735000D02*
X139940000Y-83610000D01*
%TO.N,Net-(C45-Pad1)*%
X158200000Y-78410000D02*
X158120000Y-78330000D01*
X158200000Y-83265000D02*
X158200000Y-78410000D01*
X157990000Y-83340000D02*
X153900000Y-83340000D01*
X158200000Y-83265000D02*
X158065000Y-83265000D01*
X158065000Y-83265000D02*
X157990000Y-83340000D01*
%TO.N,Net-(C46-Pad2)*%
X160400000Y-78410000D02*
X160320000Y-78330000D01*
X164570000Y-83360000D02*
X160495000Y-83360000D01*
X160495000Y-83360000D02*
X160400000Y-83265000D01*
X160400000Y-83265000D02*
X160400000Y-78410000D01*
%TO.N,Net-(C6-Pad2)*%
X92050000Y-99534137D02*
X89925051Y-97409188D01*
X88462500Y-102000000D02*
X88462500Y-106012500D01*
X87325006Y-96671800D02*
X87325006Y-100862506D01*
X89925051Y-97409188D02*
X89925051Y-96671800D01*
X87325006Y-100862506D02*
X88462500Y-102000000D01*
X92050000Y-106500000D02*
X92050000Y-99534137D01*
X88462500Y-106012500D02*
X88950000Y-106500000D01*
%TO.N,Net-(C7-Pad2)*%
X81950000Y-106500000D02*
X81950000Y-99534137D01*
X86674994Y-96671800D02*
X86674994Y-100862506D01*
X85537500Y-106012500D02*
X85050000Y-106500000D01*
X81950000Y-99534137D02*
X84074949Y-97409188D01*
X86674994Y-100862506D02*
X85537500Y-102000000D01*
X85537500Y-102000000D02*
X85537500Y-106012500D01*
X84074949Y-97409188D02*
X84074949Y-96671800D01*
X85500000Y-102000000D02*
X85737500Y-102000000D01*
%TO.N,Net-(C20-Pad2)*%
X113472500Y-102007621D02*
X113472500Y-106020121D01*
X113472500Y-106020121D02*
X113960000Y-106507621D01*
X112335006Y-96679421D02*
X112335006Y-100870127D01*
X117060000Y-99541758D02*
X114935051Y-97416809D01*
X114935051Y-97416809D02*
X114935051Y-96679421D01*
X117060000Y-106507621D02*
X117060000Y-99541758D01*
X112335006Y-100870127D02*
X113472500Y-102007621D01*
%TO.N,Net-(C21-Pad2)*%
X111684994Y-96679421D02*
X111684994Y-100870127D01*
X106960000Y-99541758D02*
X109084949Y-97416809D01*
X110547500Y-102007621D02*
X110547500Y-106020121D01*
X111684994Y-100870127D02*
X110547500Y-102007621D01*
X106960000Y-106507621D02*
X106960000Y-99541758D01*
X109084949Y-97416809D02*
X109084949Y-96679421D01*
X110547500Y-106020121D02*
X110060000Y-106507621D01*
X110510000Y-102007621D02*
X110747500Y-102007621D01*
%TO.N,Net-(C35-Pad2)*%
X137315006Y-96661800D02*
X137315006Y-100852506D01*
X138452500Y-101990000D02*
X138452500Y-106002500D01*
X139915051Y-97399188D02*
X139915051Y-96661800D01*
X142040000Y-106490000D02*
X142040000Y-99524137D01*
X137315006Y-100852506D02*
X138452500Y-101990000D01*
X142040000Y-99524137D02*
X139915051Y-97399188D01*
X138452500Y-106002500D02*
X138940000Y-106490000D01*
%TO.N,Net-(C36-Pad2)*%
X136664994Y-96661800D02*
X136664994Y-100852506D01*
X131940000Y-99524137D02*
X134064949Y-97399188D01*
X135490000Y-101990000D02*
X135727500Y-101990000D01*
X135527500Y-106002500D02*
X135040000Y-106490000D01*
X136664994Y-100852506D02*
X135527500Y-101990000D01*
X135527500Y-101990000D02*
X135527500Y-106002500D01*
X134064949Y-97399188D02*
X134064949Y-96661800D01*
X131940000Y-106490000D02*
X131940000Y-99524137D01*
%TO.N,Net-(C50-Pad2)*%
X162325006Y-96649421D02*
X162325006Y-100840127D01*
X167050000Y-99511758D02*
X164925051Y-97386809D01*
X167050000Y-106477621D02*
X167050000Y-99511758D01*
X163462500Y-101977621D02*
X163462500Y-105990121D01*
X163462500Y-105990121D02*
X163950000Y-106477621D01*
X164925051Y-97386809D02*
X164925051Y-96649421D01*
X162325006Y-100840127D02*
X163462500Y-101977621D01*
%TO.N,Net-(C51-Pad2)*%
X159074949Y-97386809D02*
X159074949Y-96649421D01*
X160500000Y-101977621D02*
X160737500Y-101977621D01*
X160537500Y-105990121D02*
X160050000Y-106477621D01*
X161674994Y-96649421D02*
X161674994Y-100840127D01*
X160537500Y-101977621D02*
X160537500Y-105990121D01*
X156950000Y-106477621D02*
X156950000Y-99511758D01*
X156950000Y-99511758D02*
X159074949Y-97386809D01*
X161674994Y-100840127D02*
X160537500Y-101977621D01*
%TO.N,Net-(J8-Pin_2)*%
X93580000Y-68100000D02*
X91375000Y-68100000D01*
X91375000Y-68100000D02*
X87750000Y-64475000D01*
%TO.N,Net-(J9-Pin_2)*%
X117810000Y-85017621D02*
X117810000Y-76280000D01*
X117370000Y-85457621D02*
X117810000Y-85017621D01*
X113940000Y-72410000D02*
X113940000Y-65662621D01*
X117810000Y-76280000D02*
X113940000Y-72410000D01*
X113940000Y-65662621D02*
X112760000Y-64482621D01*
X117370000Y-86100000D02*
X117370000Y-85457621D01*
%TO.N,Net-(J10-Pin_2)*%
X137740000Y-64465000D02*
X144440000Y-71165000D01*
X144440000Y-71165000D02*
X144440000Y-79120000D01*
%TO.N,Net-(J11-Pin_2)*%
X170380000Y-72082620D02*
X170380000Y-78400000D01*
X162750001Y-64452621D02*
X170380000Y-72082620D01*
%TO.N,Net-(J12-Pin_2)*%
X81070000Y-76680000D02*
X80950000Y-76680000D01*
X87750000Y-70000000D02*
X81070000Y-76680000D01*
%TO.N,Net-(J13-Pin_2)*%
X105770000Y-76997621D02*
X105770000Y-78020000D01*
X112760000Y-70007621D02*
X105770000Y-76997621D01*
%TO.N,Net-(J14-Pin_2)*%
X137740000Y-69990000D02*
X142340000Y-74590000D01*
X142340000Y-74590000D02*
X142340000Y-79120000D01*
%TO.N,Net-(J15-Pin_2)*%
X168160000Y-78360000D02*
X168160000Y-75670000D01*
X168160000Y-75670000D02*
X168160000Y-75387620D01*
X168160000Y-75387620D02*
X162750001Y-69977621D01*
%TO.N,/amp1/AVCC*%
X87330000Y-90723206D02*
X87325006Y-90728200D01*
X79500000Y-88510000D02*
X79500000Y-88500000D01*
X80985000Y-89995000D02*
X79500000Y-88510000D01*
X87330000Y-88930000D02*
X87330000Y-90723206D01*
D37*
%TO.N,/amp2/AVCC*%
X112335006Y-88852615D02*
X112340000Y-88847621D01*
D36*
X106140000Y-90090000D02*
X104875819Y-88825819D01*
D37*
X112335006Y-90735821D02*
X112335006Y-88852615D01*
D36*
X104875819Y-88825819D02*
X104828198Y-88825819D01*
D37*
%TO.N,/amp3/AVCC*%
X137315006Y-90718200D02*
X137315006Y-88834994D01*
D36*
X131030000Y-90030000D02*
X129490000Y-88490000D01*
D37*
X137315006Y-88834994D02*
X137320000Y-88830000D01*
%TO.N,/amp4/AVCC*%
X162325006Y-90705821D02*
X162325006Y-88822615D01*
D36*
X155892380Y-89870000D02*
X154500001Y-88477621D01*
D37*
X162325006Y-88822615D02*
X162330000Y-88817621D01*
D36*
X156150000Y-89870000D02*
X155892380Y-89870000D01*
D35*
%TO.N,GND*%
X121900000Y-94000000D02*
X119000000Y-94000000D01*
%TD*%
%TA.AperFunction,Conductor*%
%TO.N,+24V*%
G36*
X155243039Y-40719685D02*
G01*
X155288794Y-40772489D01*
X155300000Y-40824000D01*
X155300000Y-48676000D01*
X155280315Y-48743039D01*
X155227511Y-48788794D01*
X155176000Y-48800000D01*
X93824000Y-48800000D01*
X93756961Y-48780315D01*
X93711206Y-48727511D01*
X93700000Y-48676000D01*
X93700000Y-44999994D01*
X95019443Y-44999994D01*
X95019443Y-45000005D01*
X95039634Y-45243683D01*
X95039636Y-45243695D01*
X95099663Y-45480734D01*
X95197888Y-45704666D01*
X95331632Y-45909378D01*
X95497242Y-46089277D01*
X95497252Y-46089286D01*
X95689670Y-46239051D01*
X95690212Y-46239473D01*
X95905267Y-46355855D01*
X95905270Y-46355856D01*
X96136541Y-46435251D01*
X96136543Y-46435251D01*
X96136545Y-46435252D01*
X96377737Y-46475500D01*
X96377738Y-46475500D01*
X96622262Y-46475500D01*
X96622263Y-46475500D01*
X96863455Y-46435252D01*
X97094733Y-46355855D01*
X97309788Y-46239473D01*
X97502754Y-46089281D01*
X97668368Y-45909377D01*
X97802111Y-45704667D01*
X97900336Y-45480736D01*
X97960364Y-45243692D01*
X97960371Y-45243605D01*
X97980557Y-45000005D01*
X97980557Y-44999994D01*
X100019945Y-44999994D01*
X100019945Y-45000005D01*
X100040130Y-45243605D01*
X100100138Y-45480573D01*
X100198328Y-45704424D01*
X100294626Y-45851820D01*
X100898958Y-45247487D01*
X100923978Y-45307890D01*
X100995112Y-45414351D01*
X101085649Y-45504888D01*
X101192110Y-45576022D01*
X101252510Y-45601041D01*
X100647757Y-46205793D01*
X100647758Y-46205794D01*
X100690485Y-46239050D01*
X100690485Y-46239051D01*
X100905468Y-46355394D01*
X100905476Y-46355397D01*
X101136664Y-46434765D01*
X101377779Y-46475000D01*
X101622221Y-46475000D01*
X101863335Y-46434765D01*
X102094523Y-46355397D01*
X102094531Y-46355394D01*
X102309515Y-46239050D01*
X102309516Y-46239048D01*
X102352240Y-46205794D01*
X102352241Y-46205793D01*
X101747488Y-45601041D01*
X101807890Y-45576022D01*
X101914351Y-45504888D01*
X102004888Y-45414351D01*
X102076022Y-45307890D01*
X102101041Y-45247488D01*
X102705372Y-45851820D01*
X102801669Y-45704429D01*
X102899861Y-45480573D01*
X102959869Y-45243605D01*
X102980055Y-45000005D01*
X102980055Y-44999994D01*
X146019443Y-44999994D01*
X146019443Y-45000005D01*
X146039634Y-45243683D01*
X146039636Y-45243695D01*
X146099663Y-45480734D01*
X146197888Y-45704666D01*
X146331632Y-45909378D01*
X146497242Y-46089277D01*
X146497252Y-46089286D01*
X146689670Y-46239051D01*
X146690212Y-46239473D01*
X146905267Y-46355855D01*
X146905270Y-46355856D01*
X147136541Y-46435251D01*
X147136543Y-46435251D01*
X147136545Y-46435252D01*
X147377737Y-46475500D01*
X147377738Y-46475500D01*
X147622262Y-46475500D01*
X147622263Y-46475500D01*
X147863455Y-46435252D01*
X148094733Y-46355855D01*
X148309788Y-46239473D01*
X148502754Y-46089281D01*
X148668368Y-45909377D01*
X148802111Y-45704667D01*
X148900336Y-45480736D01*
X148960364Y-45243692D01*
X148960371Y-45243605D01*
X148980557Y-45000005D01*
X148980557Y-44999994D01*
X151019945Y-44999994D01*
X151019945Y-45000005D01*
X151040130Y-45243605D01*
X151100138Y-45480573D01*
X151198328Y-45704424D01*
X151294626Y-45851820D01*
X151898958Y-45247488D01*
X151923978Y-45307890D01*
X151995112Y-45414351D01*
X152085649Y-45504888D01*
X152192110Y-45576022D01*
X152252510Y-45601041D01*
X151647757Y-46205793D01*
X151647758Y-46205794D01*
X151690485Y-46239050D01*
X151690485Y-46239051D01*
X151905468Y-46355394D01*
X151905476Y-46355397D01*
X152136664Y-46434765D01*
X152377779Y-46475000D01*
X152622221Y-46475000D01*
X152863335Y-46434765D01*
X153094523Y-46355397D01*
X153094531Y-46355394D01*
X153309515Y-46239050D01*
X153309516Y-46239048D01*
X153352240Y-46205794D01*
X153352241Y-46205793D01*
X152747488Y-45601041D01*
X152807890Y-45576022D01*
X152914351Y-45504888D01*
X153004888Y-45414351D01*
X153076022Y-45307890D01*
X153101041Y-45247488D01*
X153705372Y-45851820D01*
X153801669Y-45704429D01*
X153899861Y-45480573D01*
X153959869Y-45243605D01*
X153980055Y-45000005D01*
X153980055Y-44999994D01*
X153959869Y-44756394D01*
X153899861Y-44519426D01*
X153801671Y-44295575D01*
X153705372Y-44148178D01*
X153101041Y-44752510D01*
X153076022Y-44692110D01*
X153004888Y-44585649D01*
X152914351Y-44495112D01*
X152807890Y-44423978D01*
X152747487Y-44398957D01*
X153352240Y-43794205D01*
X153352240Y-43794204D01*
X153309514Y-43760949D01*
X153309514Y-43760948D01*
X153094531Y-43644605D01*
X153094523Y-43644602D01*
X152863335Y-43565234D01*
X152622221Y-43525000D01*
X152377779Y-43525000D01*
X152136664Y-43565234D01*
X151905476Y-43644602D01*
X151905468Y-43644605D01*
X151690484Y-43760949D01*
X151690478Y-43760953D01*
X151647758Y-43794203D01*
X151647758Y-43794205D01*
X152252511Y-44398958D01*
X152192110Y-44423978D01*
X152085649Y-44495112D01*
X151995112Y-44585649D01*
X151923978Y-44692110D01*
X151898958Y-44752511D01*
X151294626Y-44148178D01*
X151198329Y-44295572D01*
X151100138Y-44519426D01*
X151040130Y-44756394D01*
X151019945Y-44999994D01*
X148980557Y-44999994D01*
X148960365Y-44756316D01*
X148960363Y-44756304D01*
X148900336Y-44519265D01*
X148802111Y-44295333D01*
X148668367Y-44090621D01*
X148502757Y-43910722D01*
X148502747Y-43910713D01*
X148309791Y-43760529D01*
X148309787Y-43760526D01*
X148094734Y-43644145D01*
X148094729Y-43644143D01*
X147863458Y-43564748D01*
X147682561Y-43534562D01*
X147622263Y-43524500D01*
X147377737Y-43524500D01*
X147329498Y-43532549D01*
X147136541Y-43564748D01*
X146905270Y-43644143D01*
X146905265Y-43644145D01*
X146690212Y-43760526D01*
X146690208Y-43760529D01*
X146497252Y-43910713D01*
X146497242Y-43910722D01*
X146331632Y-44090621D01*
X146197888Y-44295333D01*
X146099663Y-44519265D01*
X146039636Y-44756304D01*
X146039634Y-44756316D01*
X146019443Y-44999994D01*
X102980055Y-44999994D01*
X102959869Y-44756394D01*
X102899861Y-44519426D01*
X102801671Y-44295575D01*
X102705372Y-44148178D01*
X102101041Y-44752510D01*
X102076022Y-44692110D01*
X102004888Y-44585649D01*
X101914351Y-44495112D01*
X101807890Y-44423978D01*
X101747487Y-44398957D01*
X102352240Y-43794205D01*
X102352240Y-43794204D01*
X102309514Y-43760949D01*
X102309514Y-43760948D01*
X102094531Y-43644605D01*
X102094523Y-43644602D01*
X101863335Y-43565234D01*
X101622221Y-43525000D01*
X101377779Y-43525000D01*
X101136664Y-43565234D01*
X100905476Y-43644602D01*
X100905468Y-43644605D01*
X100690484Y-43760949D01*
X100690478Y-43760953D01*
X100647758Y-43794203D01*
X100647758Y-43794205D01*
X101252511Y-44398958D01*
X101192110Y-44423978D01*
X101085649Y-44495112D01*
X100995112Y-44585649D01*
X100923978Y-44692110D01*
X100898958Y-44752511D01*
X100294626Y-44148178D01*
X100198329Y-44295572D01*
X100100138Y-44519426D01*
X100040130Y-44756394D01*
X100019945Y-44999994D01*
X97980557Y-44999994D01*
X97960365Y-44756316D01*
X97960363Y-44756304D01*
X97900336Y-44519265D01*
X97802111Y-44295333D01*
X97668367Y-44090621D01*
X97502757Y-43910722D01*
X97502747Y-43910713D01*
X97309791Y-43760529D01*
X97309787Y-43760526D01*
X97094734Y-43644145D01*
X97094729Y-43644143D01*
X96863458Y-43564748D01*
X96682561Y-43534562D01*
X96622263Y-43524500D01*
X96377737Y-43524500D01*
X96329498Y-43532549D01*
X96136541Y-43564748D01*
X95905270Y-43644143D01*
X95905265Y-43644145D01*
X95690212Y-43760526D01*
X95690208Y-43760529D01*
X95497252Y-43910713D01*
X95497242Y-43910722D01*
X95331632Y-44090621D01*
X95197888Y-44295333D01*
X95099663Y-44519265D01*
X95039636Y-44756304D01*
X95039634Y-44756316D01*
X95019443Y-44999994D01*
X93700000Y-44999994D01*
X93700000Y-40824000D01*
X93719685Y-40756961D01*
X93772489Y-40711206D01*
X93824000Y-40700000D01*
X155176000Y-40700000D01*
X155243039Y-40719685D01*
G37*
%TD.AperFunction*%
%TD*%
M02*
