%TF.GenerationSoftware,KiCad,Pcbnew,8.0.7*%
%TF.CreationDate,2025-07-18T12:07:21-04:00*%
%TF.ProjectId,Amplifier_board,416d706c-6966-4696-9572-5f626f617264,rev?*%
%TF.SameCoordinates,Original*%
%TF.FileFunction,Soldermask,Top*%
%TF.FilePolarity,Negative*%
%FSLAX46Y46*%
G04 Gerber Fmt 4.6, Leading zero omitted, Abs format (unit mm)*
G04 Created by KiCad (PCBNEW 8.0.7) date 2025-07-18 12:07:21*
%MOMM*%
%LPD*%
G01*
G04 APERTURE LIST*
G04 Aperture macros list*
%AMRoundRect*
0 Rectangle with rounded corners*
0 $1 Rounding radius*
0 $2 $3 $4 $5 $6 $7 $8 $9 X,Y pos of 4 corners*
0 Add a 4 corners polygon primitive as box body*
4,1,4,$2,$3,$4,$5,$6,$7,$8,$9,$2,$3,0*
0 Add four circle primitives for the rounded corners*
1,1,$1+$1,$2,$3*
1,1,$1+$1,$4,$5*
1,1,$1+$1,$6,$7*
1,1,$1+$1,$8,$9*
0 Add four rect primitives between the rounded corners*
20,1,$1+$1,$2,$3,$4,$5,0*
20,1,$1+$1,$4,$5,$6,$7,0*
20,1,$1+$1,$6,$7,$8,$9,0*
20,1,$1+$1,$8,$9,$2,$3,0*%
%AMFreePoly0*
4,1,13,0.632222,3.085000,1.200000,3.085000,1.200000,-3.085001,0.625000,-3.085001,0.625000,-3.345000,-0.625000,-3.345000,-0.625000,-3.085001,-1.200000,-3.085001,-1.200000,3.085000,-0.617778,3.085000,-0.625000,3.345000,0.625000,3.345000,0.632222,3.085000,0.632222,3.085000,$1*%
G04 Aperture macros list end*
%ADD10C,0.000000*%
%ADD11R,1.700000X1.700000*%
%ADD12O,1.700000X1.700000*%
%ADD13R,1.600000X1.600000*%
%ADD14C,1.600000*%
%ADD15RoundRect,0.250000X0.475000X-0.337500X0.475000X0.337500X-0.475000X0.337500X-0.475000X-0.337500X0*%
%ADD16RoundRect,0.250000X-0.450000X0.325000X-0.450000X-0.325000X0.450000X-0.325000X0.450000X0.325000X0*%
%ADD17R,4.200000X2.400000*%
%ADD18RoundRect,0.250000X-0.450000X0.350000X-0.450000X-0.350000X0.450000X-0.350000X0.450000X0.350000X0*%
%ADD19R,2.000000X1.200000*%
%ADD20RoundRect,0.250000X0.450000X-0.350000X0.450000X0.350000X-0.450000X0.350000X-0.450000X-0.350000X0*%
%ADD21RoundRect,0.250000X-0.337500X-0.475000X0.337500X-0.475000X0.337500X0.475000X-0.337500X0.475000X0*%
%ADD22C,1.400000*%
%ADD23R,0.304800X1.270000*%
%ADD24FreePoly0,270.000000*%
%ADD25RoundRect,0.250000X0.337500X0.475000X-0.337500X0.475000X-0.337500X-0.475000X0.337500X-0.475000X0*%
%ADD26RoundRect,0.250000X-0.350000X-0.450000X0.350000X-0.450000X0.350000X0.450000X-0.350000X0.450000X0*%
%ADD27C,2.154000*%
%ADD28RoundRect,0.250000X-0.475000X0.337500X-0.475000X-0.337500X0.475000X-0.337500X0.475000X0.337500X0*%
%ADD29RoundRect,0.250000X0.350000X0.450000X-0.350000X0.450000X-0.350000X-0.450000X0.350000X-0.450000X0*%
%ADD30R,1.800000X1.800000*%
%ADD31C,1.800000*%
G04 APERTURE END LIST*
D10*
%TO.C,U4*%
G36*
X165345000Y-94302621D02*
G01*
X165085000Y-94302621D01*
X165085000Y-93052621D01*
X165345000Y-93052621D01*
X165345000Y-94302621D01*
G37*
%TO.C,U3*%
G36*
X140335000Y-94315000D02*
G01*
X140075000Y-94315000D01*
X140075000Y-93065000D01*
X140335000Y-93065000D01*
X140335000Y-94315000D01*
G37*
%TO.C,U2*%
G36*
X115355000Y-94332621D02*
G01*
X115095000Y-94332621D01*
X115095000Y-93082621D01*
X115355000Y-93082621D01*
X115355000Y-94332621D01*
G37*
%TO.C,U1*%
G36*
X90345000Y-94325000D02*
G01*
X90085000Y-94325000D01*
X90085000Y-93075000D01*
X90345000Y-93075000D01*
X90345000Y-94325000D01*
G37*
%TD*%
D11*
%TO.C,J8*%
X85210000Y-64475000D03*
D12*
X87750000Y-64475000D03*
X90290000Y-64475000D03*
%TD*%
D13*
%TO.C,C8*%
X95500000Y-99500000D03*
D14*
X95500000Y-102000000D03*
%TD*%
D15*
%TO.C,C5*%
X94200000Y-91075000D03*
X94200000Y-89000000D03*
%TD*%
D16*
%TO.C,FB4*%
X160250000Y-112475000D03*
X160250000Y-114525000D03*
%TD*%
D17*
%TO.C,L3*%
X142990000Y-111240000D03*
X142990000Y-115740000D03*
%TD*%
D13*
%TO.C,C14*%
X100500000Y-54500000D03*
D14*
X98000000Y-54500000D03*
%TD*%
D18*
%TO.C,R33*%
X80950000Y-76680000D03*
X80950000Y-78680000D03*
%TD*%
D13*
%TO.C,C52*%
X170500000Y-99477621D03*
D14*
X170500000Y-101977621D03*
%TD*%
D19*
%TO.C,TP5*%
X77500000Y-108500000D03*
%TD*%
%TO.C,TP2*%
X121510000Y-108507621D03*
%TD*%
D20*
%TO.C,R19*%
X135380000Y-78980000D03*
X135380000Y-76980000D03*
%TD*%
D19*
%TO.C,TP17*%
X96200000Y-75500000D03*
%TD*%
D21*
%TO.C,C64*%
X138452500Y-125490000D03*
X140527500Y-125490000D03*
%TD*%
D17*
%TO.C,L5*%
X81000000Y-111250000D03*
X81000000Y-115750000D03*
%TD*%
D21*
%TO.C,C7*%
X83462500Y-102000000D03*
X85537500Y-102000000D03*
%TD*%
D16*
%TO.C,FB2*%
X110250000Y-112475000D03*
X110250000Y-114525000D03*
%TD*%
D21*
%TO.C,C51*%
X158462500Y-101977620D03*
X160537500Y-101977620D03*
%TD*%
D22*
%TO.C,TP36*%
X96960000Y-134500000D03*
X102040000Y-134500000D03*
%TD*%
D21*
%TO.C,C72*%
X135952500Y-128490000D03*
X138027500Y-128490000D03*
%TD*%
D23*
%TO.C,U4*%
X166225074Y-90705821D03*
X165575063Y-90705821D03*
X164925051Y-90705821D03*
X164275040Y-90705821D03*
X163625028Y-90705821D03*
X162975017Y-90705821D03*
X162325006Y-90705821D03*
X161674994Y-90705821D03*
X161024983Y-90705821D03*
X160374972Y-90705821D03*
X159724960Y-90705821D03*
X159074949Y-90705821D03*
X158424937Y-90705821D03*
X157774926Y-90705821D03*
X157774926Y-96649421D03*
X158424937Y-96649421D03*
X159074949Y-96649421D03*
X159724960Y-96649421D03*
X160374972Y-96649421D03*
X161024983Y-96649421D03*
X161674994Y-96649421D03*
X162325006Y-96649421D03*
X162975017Y-96649421D03*
X163625028Y-96649421D03*
X164275040Y-96649421D03*
X164925051Y-96649421D03*
X165575063Y-96649421D03*
X166225074Y-96649421D03*
D24*
X162000000Y-93677621D03*
%TD*%
D25*
%TO.C,C44*%
X130527500Y-122490000D03*
X128452500Y-122490000D03*
%TD*%
%TO.C,C29*%
X105547500Y-122507621D03*
X103472500Y-122507621D03*
%TD*%
D19*
%TO.C,TP16*%
X153500000Y-130477620D03*
%TD*%
D26*
%TO.C,R7*%
X154500001Y-88477621D03*
X156500001Y-88477621D03*
%TD*%
D16*
%TO.C,FB5*%
X88750000Y-112475000D03*
X88750000Y-114525000D03*
%TD*%
%TO.C,FB7*%
X138750000Y-112475000D03*
X138750000Y-114525000D03*
%TD*%
D27*
%TO.C,J4*%
X134500000Y-134500000D03*
X139500000Y-134500000D03*
%TD*%
D11*
%TO.C,J9*%
X110220000Y-64482621D03*
D12*
X112760000Y-64482621D03*
X115300000Y-64482621D03*
%TD*%
D19*
%TO.C,TP22*%
X121930000Y-77180000D03*
%TD*%
D11*
%TO.C,J11*%
X160210001Y-64452621D03*
D12*
X162750001Y-64452621D03*
X165290001Y-64452621D03*
%TD*%
D26*
%TO.C,R3*%
X104510000Y-88507621D03*
X106510000Y-88507621D03*
%TD*%
%TO.C,R17*%
X91900000Y-80400000D03*
X93900000Y-80400000D03*
%TD*%
D25*
%TO.C,C35*%
X140527500Y-101990000D03*
X138452500Y-101990000D03*
%TD*%
D19*
%TO.C,TP8*%
X152500000Y-108477620D03*
%TD*%
D11*
%TO.C,J13*%
X110220000Y-70007621D03*
D12*
X112760000Y-70007621D03*
X115300000Y-70007621D03*
%TD*%
D26*
%TO.C,R13*%
X83500000Y-122500000D03*
X85500000Y-122500000D03*
%TD*%
D21*
%TO.C,C70*%
X85962500Y-128500000D03*
X88037500Y-128500000D03*
%TD*%
D13*
%TO.C,C53*%
X153500000Y-99477621D03*
D14*
X153500000Y-101977621D03*
%TD*%
D27*
%TO.C,J6*%
X152500000Y-45000000D03*
X147500000Y-45000000D03*
%TD*%
D23*
%TO.C,U3*%
X141215074Y-90718200D03*
X140565063Y-90718200D03*
X139915051Y-90718200D03*
X139265040Y-90718200D03*
X138615028Y-90718200D03*
X137965017Y-90718200D03*
X137315006Y-90718200D03*
X136664994Y-90718200D03*
X136014983Y-90718200D03*
X135364972Y-90718200D03*
X134714960Y-90718200D03*
X134064949Y-90718200D03*
X133414937Y-90718200D03*
X132764926Y-90718200D03*
X132764926Y-96661800D03*
X133414937Y-96661800D03*
X134064949Y-96661800D03*
X134714960Y-96661800D03*
X135364972Y-96661800D03*
X136014983Y-96661800D03*
X136664994Y-96661800D03*
X137315006Y-96661800D03*
X137965017Y-96661800D03*
X138615028Y-96661800D03*
X139265040Y-96661800D03*
X139915051Y-96661800D03*
X140565063Y-96661800D03*
X141215074Y-96661800D03*
D24*
X136990000Y-93690000D03*
%TD*%
D21*
%TO.C,C71*%
X110972500Y-128507621D03*
X113047500Y-128507621D03*
%TD*%
D13*
%TO.C,C37*%
X145490000Y-99490000D03*
D14*
X145490000Y-101990000D03*
%TD*%
D16*
%TO.C,FB6*%
X113250000Y-112475000D03*
X113250000Y-114525000D03*
%TD*%
D18*
%TO.C,R32*%
X170380000Y-78400000D03*
X170380000Y-80400000D03*
%TD*%
D19*
%TO.C,TP9*%
X95500000Y-130500000D03*
%TD*%
D21*
%TO.C,C73*%
X160962500Y-128477621D03*
X163037500Y-128477621D03*
%TD*%
D20*
%TO.C,R26*%
X114310000Y-80307621D03*
X114310000Y-78307621D03*
%TD*%
D15*
%TO.C,C16*%
X110510000Y-84245121D03*
X110510000Y-82170121D03*
%TD*%
D19*
%TO.C,TP12*%
X170500000Y-130477621D03*
%TD*%
D28*
%TO.C,C45*%
X158200000Y-83265000D03*
X158200000Y-85340000D03*
%TD*%
D21*
%TO.C,C67*%
X108472500Y-125507621D03*
X110547500Y-125507621D03*
%TD*%
D29*
%TO.C,R8*%
X170800000Y-86200000D03*
X168800000Y-86200000D03*
%TD*%
D19*
%TO.C,TP4*%
X171499999Y-108477621D03*
%TD*%
%TO.C,TP24*%
X164680000Y-76430000D03*
%TD*%
%TO.C,TP1*%
X96500000Y-108500000D03*
%TD*%
D26*
%TO.C,R5*%
X129490000Y-88490000D03*
X131490000Y-88490000D03*
%TD*%
D15*
%TO.C,C31*%
X135480000Y-85810000D03*
X135480000Y-83735000D03*
%TD*%
D19*
%TO.C,TP10*%
X120510000Y-130507621D03*
%TD*%
D16*
%TO.C,FB8*%
X163750000Y-112475000D03*
X163750000Y-114525000D03*
%TD*%
D19*
%TO.C,TP21*%
X96200000Y-82500000D03*
%TD*%
%TO.C,TP15*%
X128490000Y-130490000D03*
%TD*%
D21*
%TO.C,C36*%
X133452500Y-101990000D03*
X135527500Y-101990000D03*
%TD*%
D15*
%TO.C,C49*%
X168700000Y-90575000D03*
X168700000Y-88500000D03*
%TD*%
D16*
%TO.C,FB1*%
X85250000Y-112475000D03*
X85250000Y-114525000D03*
%TD*%
D20*
%TO.C,R24*%
X158120000Y-78330000D03*
X158120000Y-76330000D03*
%TD*%
%TO.C,R25*%
X89300000Y-80300000D03*
X89300000Y-78300000D03*
%TD*%
D19*
%TO.C,TP26*%
X114310000Y-75507621D03*
%TD*%
D26*
%TO.C,R21*%
X91900000Y-78200000D03*
X93900000Y-78200000D03*
%TD*%
D21*
%TO.C,C21*%
X108472500Y-102007621D03*
X110547500Y-102007621D03*
%TD*%
D26*
%TO.C,R18*%
X116910000Y-80407621D03*
X118910000Y-80407621D03*
%TD*%
D25*
%TO.C,C54*%
X95537500Y-122500000D03*
X93462500Y-122500000D03*
%TD*%
D18*
%TO.C,R35*%
X142340000Y-79120000D03*
X142340000Y-81120000D03*
%TD*%
D25*
%TO.C,C58*%
X80537500Y-122500000D03*
X78462500Y-122500000D03*
%TD*%
D29*
%TO.C,R6*%
X146800000Y-86300000D03*
X144800000Y-86300000D03*
%TD*%
D13*
%TO.C,C9*%
X78500000Y-99500000D03*
D14*
X78500000Y-102000000D03*
%TD*%
D26*
%TO.C,R15*%
X133490000Y-122490000D03*
X135490000Y-122490000D03*
%TD*%
D19*
%TO.C,TP19*%
X128750000Y-76990000D03*
%TD*%
D17*
%TO.C,L2*%
X118010000Y-111257621D03*
X118010000Y-115757621D03*
%TD*%
D15*
%TO.C,C34*%
X144500000Y-90675000D03*
X144500000Y-88600000D03*
%TD*%
D13*
%TO.C,C38*%
X128490000Y-99490000D03*
D14*
X128490000Y-101990000D03*
%TD*%
D30*
%TO.C,J7*%
X120690000Y-53270000D03*
D31*
X120690000Y-50730000D03*
X123230000Y-53270000D03*
X123230000Y-50730000D03*
X125770000Y-53270000D03*
X125770000Y-50730000D03*
X128310000Y-53270000D03*
X128310000Y-50730000D03*
%TD*%
D21*
%TO.C,C63*%
X113472500Y-125507621D03*
X115547500Y-125507621D03*
%TD*%
D18*
%TO.C,R36*%
X168160000Y-78360000D03*
X168160000Y-80360000D03*
%TD*%
D19*
%TO.C,TP11*%
X145490000Y-130490000D03*
%TD*%
D21*
%TO.C,C65*%
X163462500Y-125477621D03*
X165537500Y-125477621D03*
%TD*%
D17*
%TO.C,L4*%
X168000000Y-111227621D03*
X168000000Y-115727621D03*
%TD*%
D19*
%TO.C,TP7*%
X127490000Y-108490000D03*
%TD*%
D11*
%TO.C,J14*%
X135200000Y-69990000D03*
D12*
X137740000Y-69990000D03*
X140280000Y-69990000D03*
%TD*%
D19*
%TO.C,TP13*%
X78500000Y-130500000D03*
%TD*%
D26*
%TO.C,R1*%
X79500000Y-88500000D03*
X81500000Y-88500000D03*
%TD*%
D28*
%TO.C,C30*%
X133280000Y-83735000D03*
X133280000Y-85810000D03*
%TD*%
D19*
%TO.C,TP14*%
X103510000Y-130507621D03*
%TD*%
%TO.C,TP27*%
X128930000Y-83530000D03*
%TD*%
D17*
%TO.C,L1*%
X93000000Y-111250000D03*
X93000000Y-115750000D03*
%TD*%
D29*
%TO.C,R4*%
X121800000Y-86300000D03*
X119800000Y-86300000D03*
%TD*%
D26*
%TO.C,R16*%
X158500000Y-122477621D03*
X160500000Y-122477621D03*
%TD*%
D20*
%TO.C,R20*%
X160320000Y-78330000D03*
X160320000Y-76330000D03*
%TD*%
D25*
%TO.C,C6*%
X90537500Y-102000000D03*
X88462500Y-102000000D03*
%TD*%
D11*
%TO.C,J12*%
X85210000Y-70000000D03*
D12*
X87750000Y-70000000D03*
X90290000Y-70000000D03*
%TD*%
D21*
%TO.C,C66*%
X83462500Y-125500000D03*
X85537500Y-125500000D03*
%TD*%
D25*
%TO.C,C50*%
X165537500Y-101977620D03*
X163462500Y-101977620D03*
%TD*%
D19*
%TO.C,TP28*%
X153900000Y-83340000D03*
%TD*%
%TO.C,TP30*%
X114310000Y-82507621D03*
%TD*%
D29*
%TO.C,R2*%
X96000000Y-86500000D03*
X94000000Y-86500000D03*
%TD*%
D21*
%TO.C,C68*%
X133452500Y-125490000D03*
X135527500Y-125490000D03*
%TD*%
D26*
%TO.C,R10*%
X113510000Y-122507621D03*
X115510000Y-122507621D03*
%TD*%
D25*
%TO.C,C28*%
X120547500Y-122507621D03*
X118472500Y-122507621D03*
%TD*%
D26*
%TO.C,R12*%
X163500000Y-122477621D03*
X165500000Y-122477621D03*
%TD*%
D17*
%TO.C,L7*%
X130990000Y-111240000D03*
X130990000Y-115740000D03*
%TD*%
D26*
%TO.C,R9*%
X88500000Y-122500000D03*
X90500000Y-122500000D03*
%TD*%
D16*
%TO.C,FB3*%
X135250000Y-112475000D03*
X135250000Y-114525000D03*
%TD*%
D22*
%TO.C,TP38*%
X146960000Y-134500000D03*
X152040000Y-134500000D03*
%TD*%
D26*
%TO.C,R22*%
X116910000Y-78207621D03*
X118910000Y-78207621D03*
%TD*%
D13*
%TO.C,C74*%
X150680000Y-53780000D03*
D14*
X148180000Y-53780000D03*
%TD*%
D27*
%TO.C,J5*%
X159500000Y-134500000D03*
X164500000Y-134500000D03*
%TD*%
D23*
%TO.C,U2*%
X116235074Y-90735821D03*
X115585063Y-90735821D03*
X114935051Y-90735821D03*
X114285040Y-90735821D03*
X113635028Y-90735821D03*
X112985017Y-90735821D03*
X112335006Y-90735821D03*
X111684994Y-90735821D03*
X111034983Y-90735821D03*
X110384972Y-90735821D03*
X109734960Y-90735821D03*
X109084949Y-90735821D03*
X108434937Y-90735821D03*
X107784926Y-90735821D03*
X107784926Y-96679421D03*
X108434937Y-96679421D03*
X109084949Y-96679421D03*
X109734960Y-96679421D03*
X110384972Y-96679421D03*
X111034983Y-96679421D03*
X111684994Y-96679421D03*
X112335006Y-96679421D03*
X112985017Y-96679421D03*
X113635028Y-96679421D03*
X114285040Y-96679421D03*
X114935051Y-96679421D03*
X115585063Y-96679421D03*
X116235074Y-96679421D03*
D24*
X112010000Y-93707621D03*
%TD*%
D22*
%TO.C,TP37*%
X146960000Y-64500000D03*
X152040000Y-64500000D03*
%TD*%
D19*
%TO.C,TP32*%
X164570000Y-83360000D03*
%TD*%
%TO.C,TP29*%
X89300000Y-82500000D03*
%TD*%
D27*
%TO.C,J1*%
X101500000Y-45000000D03*
X96500000Y-45000000D03*
%TD*%
D22*
%TO.C,TP35*%
X96960000Y-64500000D03*
X102040000Y-64500000D03*
%TD*%
D19*
%TO.C,TP34*%
X162000000Y-54500000D03*
%TD*%
D13*
%TO.C,C23*%
X103510000Y-99507621D03*
D14*
X103510000Y-102007621D03*
%TD*%
D11*
%TO.C,J15*%
X160210001Y-69977621D03*
D12*
X162750001Y-69977621D03*
X165290001Y-69977621D03*
%TD*%
D25*
%TO.C,C61*%
X155537500Y-122477620D03*
X153462500Y-122477620D03*
%TD*%
D21*
%TO.C,C62*%
X88462500Y-125500000D03*
X90537500Y-125500000D03*
%TD*%
D27*
%TO.C,J2*%
X84500000Y-134500000D03*
X89500000Y-134500000D03*
%TD*%
D17*
%TO.C,L8*%
X156000000Y-111227620D03*
X156000000Y-115727620D03*
%TD*%
%TO.C,L6*%
X106010000Y-111257621D03*
X106010000Y-115757621D03*
%TD*%
D28*
%TO.C,C15*%
X108310000Y-82170121D03*
X108310000Y-84245121D03*
%TD*%
D19*
%TO.C,TP23*%
X139860000Y-76990000D03*
%TD*%
D25*
%TO.C,C20*%
X115547500Y-102007621D03*
X113472500Y-102007621D03*
%TD*%
%TO.C,C43*%
X145527500Y-122490000D03*
X143452500Y-122490000D03*
%TD*%
D28*
%TO.C,C1*%
X83300000Y-82162500D03*
X83300000Y-84237500D03*
%TD*%
D23*
%TO.C,U1*%
X91225074Y-90728200D03*
X90575063Y-90728200D03*
X89925051Y-90728200D03*
X89275040Y-90728200D03*
X88625028Y-90728200D03*
X87975017Y-90728200D03*
X87325006Y-90728200D03*
X86674994Y-90728200D03*
X86024983Y-90728200D03*
X85374972Y-90728200D03*
X84724960Y-90728200D03*
X84074949Y-90728200D03*
X83424937Y-90728200D03*
X82774926Y-90728200D03*
X82774926Y-96671800D03*
X83424937Y-96671800D03*
X84074949Y-96671800D03*
X84724960Y-96671800D03*
X85374972Y-96671800D03*
X86024983Y-96671800D03*
X86674994Y-96671800D03*
X87325006Y-96671800D03*
X87975017Y-96671800D03*
X88625028Y-96671800D03*
X89275040Y-96671800D03*
X89925051Y-96671800D03*
X90575063Y-96671800D03*
X91225074Y-96671800D03*
D24*
X87000000Y-93700000D03*
%TD*%
D26*
%TO.C,R11*%
X138490000Y-122490000D03*
X140490000Y-122490000D03*
%TD*%
D19*
%TO.C,TP33*%
X87000000Y-54500000D03*
%TD*%
D26*
%TO.C,R29*%
X93580000Y-68100000D03*
X95580000Y-68100000D03*
%TD*%
D20*
%TO.C,R23*%
X133180000Y-78980000D03*
X133180000Y-76980000D03*
%TD*%
D26*
%TO.C,R14*%
X108510000Y-122507621D03*
X110510000Y-122507621D03*
%TD*%
D19*
%TO.C,TP25*%
X89300000Y-75500000D03*
%TD*%
D27*
%TO.C,J3*%
X109500000Y-134500000D03*
X114500000Y-134500000D03*
%TD*%
D11*
%TO.C,J10*%
X135200000Y-64465000D03*
D12*
X137740000Y-64465000D03*
X140280000Y-64465000D03*
%TD*%
D25*
%TO.C,C60*%
X170537500Y-122477621D03*
X168462500Y-122477621D03*
%TD*%
D18*
%TO.C,R31*%
X144440000Y-79120000D03*
X144440000Y-81120000D03*
%TD*%
D29*
%TO.C,R30*%
X117370000Y-86100000D03*
X115370000Y-86100000D03*
%TD*%
D15*
%TO.C,C2*%
X85500000Y-84237500D03*
X85500000Y-82162500D03*
%TD*%
D13*
%TO.C,C22*%
X120510000Y-99507621D03*
D14*
X120510000Y-102007621D03*
%TD*%
D18*
%TO.C,R34*%
X105770000Y-78020000D03*
X105770000Y-80020000D03*
%TD*%
D29*
%TO.C,R27*%
X135310000Y-81420000D03*
X133310000Y-81420000D03*
%TD*%
D19*
%TO.C,TP18*%
X118850000Y-74190000D03*
%TD*%
%TO.C,TP6*%
X102510000Y-108507621D03*
%TD*%
%TO.C,TP31*%
X139940000Y-83610000D03*
%TD*%
D21*
%TO.C,C69*%
X158462500Y-125477621D03*
X160537500Y-125477621D03*
%TD*%
D19*
%TO.C,TP3*%
X146490000Y-108490000D03*
%TD*%
%TO.C,TP20*%
X153760000Y-77590000D03*
%TD*%
D15*
%TO.C,C46*%
X160400000Y-85340000D03*
X160400000Y-83265000D03*
%TD*%
D29*
%TO.C,R28*%
X160240000Y-80790000D03*
X158240000Y-80790000D03*
%TD*%
D15*
%TO.C,C19*%
X119900000Y-90775000D03*
X119900000Y-88700000D03*
%TD*%
%TO.C,C57*%
X155000000Y-96275000D03*
X155000000Y-94200000D03*
%TD*%
%TO.C,C56*%
X171000000Y-96000000D03*
X171000000Y-93925000D03*
%TD*%
%TO.C,C39*%
X127100000Y-96175000D03*
X127100000Y-94100000D03*
%TD*%
%TO.C,C55*%
X152100000Y-96275000D03*
X152100000Y-94200000D03*
%TD*%
%TO.C,C12*%
X80200000Y-95937500D03*
X80200000Y-93862500D03*
%TD*%
%TO.C,C59*%
X168600000Y-95937500D03*
X168600000Y-93862500D03*
%TD*%
%TO.C,C10*%
X77700000Y-95037500D03*
X77700000Y-92962500D03*
%TD*%
%TO.C,C40*%
X147400000Y-96275000D03*
X147400000Y-94200000D03*
%TD*%
%TO.C,C41*%
X129900000Y-96175000D03*
X129900000Y-94100000D03*
%TD*%
%TO.C,C25*%
X121900000Y-96075000D03*
X121900000Y-94000000D03*
%TD*%
%TO.C,C13*%
X97100000Y-96237500D03*
X97100000Y-94162500D03*
%TD*%
%TO.C,C24*%
X102200000Y-96237500D03*
X102200000Y-94162500D03*
%TD*%
%TO.C,C27*%
X119000000Y-96075000D03*
X119000000Y-94000000D03*
%TD*%
%TO.C,C42*%
X144500000Y-96275000D03*
X144500000Y-94200000D03*
%TD*%
%TO.C,C26*%
X105100000Y-96237500D03*
X105100000Y-94162500D03*
%TD*%
%TO.C,C11*%
X94400000Y-96275000D03*
X94400000Y-94200000D03*
%TD*%
M02*
