%TF.GenerationSoftware,KiCad,Pcbnew,8.0.7*%
%TF.CreationDate,2025-07-18T12:07:21-04:00*%
%TF.ProjectId,Amplifier_board,416d706c-6966-4696-9572-5f626f617264,rev?*%
%TF.SameCoordinates,Original*%
%TF.FileFunction,Soldermask,Bot*%
%TF.FilePolarity,Negative*%
%FSLAX46Y46*%
G04 Gerber Fmt 4.6, Leading zero omitted, Abs format (unit mm)*
G04 Created by KiCad (PCBNEW 8.0.7) date 2025-07-18 12:07:21*
%MOMM*%
%LPD*%
G01*
G04 APERTURE LIST*
G04 Aperture macros list*
%AMRoundRect*
0 Rectangle with rounded corners*
0 $1 Rounding radius*
0 $2 $3 $4 $5 $6 $7 $8 $9 X,Y pos of 4 corners*
0 Add a 4 corners polygon primitive as box body*
4,1,4,$2,$3,$4,$5,$6,$7,$8,$9,$2,$3,0*
0 Add four circle primitives for the rounded corners*
1,1,$1+$1,$2,$3*
1,1,$1+$1,$4,$5*
1,1,$1+$1,$6,$7*
1,1,$1+$1,$8,$9*
0 Add four rect primitives between the rounded corners*
20,1,$1+$1,$2,$3,$4,$5,0*
20,1,$1+$1,$4,$5,$6,$7,0*
20,1,$1+$1,$6,$7,$8,$9,0*
20,1,$1+$1,$8,$9,$2,$3,0*%
G04 Aperture macros list end*
%ADD10R,1.700000X1.700000*%
%ADD11O,1.700000X1.700000*%
%ADD12R,1.600000X1.600000*%
%ADD13C,1.600000*%
%ADD14C,1.400000*%
%ADD15C,2.154000*%
%ADD16R,1.800000X1.800000*%
%ADD17C,1.800000*%
%ADD18RoundRect,0.250000X0.337500X0.475000X-0.337500X0.475000X-0.337500X-0.475000X0.337500X-0.475000X0*%
%ADD19RoundRect,0.250000X-0.337500X-0.475000X0.337500X-0.475000X0.337500X0.475000X-0.337500X0.475000X0*%
G04 APERTURE END LIST*
D10*
%TO.C,J8*%
X85210000Y-64475000D03*
D11*
X87750000Y-64475000D03*
X90290000Y-64475000D03*
%TD*%
D12*
%TO.C,C8*%
X95500000Y-99500000D03*
D13*
X95500000Y-102000000D03*
%TD*%
D12*
%TO.C,C14*%
X100500000Y-54500000D03*
D13*
X98000000Y-54500000D03*
%TD*%
D12*
%TO.C,C52*%
X170500000Y-99477621D03*
D13*
X170500000Y-101977621D03*
%TD*%
D14*
%TO.C,TP36*%
X96960000Y-134500000D03*
X102040000Y-134500000D03*
%TD*%
D15*
%TO.C,J4*%
X134500000Y-134500000D03*
X139500000Y-134500000D03*
%TD*%
D10*
%TO.C,J9*%
X110220000Y-64482621D03*
D11*
X112760000Y-64482621D03*
X115300000Y-64482621D03*
%TD*%
D10*
%TO.C,J11*%
X160210001Y-64452621D03*
D11*
X162750001Y-64452621D03*
X165290001Y-64452621D03*
%TD*%
D10*
%TO.C,J13*%
X110220000Y-70007621D03*
D11*
X112760000Y-70007621D03*
X115300000Y-70007621D03*
%TD*%
D12*
%TO.C,C53*%
X153500000Y-99477621D03*
D13*
X153500000Y-101977621D03*
%TD*%
D15*
%TO.C,J6*%
X152500000Y-45000000D03*
X147500000Y-45000000D03*
%TD*%
D12*
%TO.C,C37*%
X145490000Y-99490000D03*
D13*
X145490000Y-101990000D03*
%TD*%
D12*
%TO.C,C9*%
X78500000Y-99500000D03*
D13*
X78500000Y-102000000D03*
%TD*%
D12*
%TO.C,C38*%
X128490000Y-99490000D03*
D13*
X128490000Y-101990000D03*
%TD*%
D16*
%TO.C,J7*%
X120690000Y-53270000D03*
D17*
X120690000Y-50730000D03*
X123230000Y-53270000D03*
X123230000Y-50730000D03*
X125770000Y-53270000D03*
X125770000Y-50730000D03*
X128310000Y-53270000D03*
X128310000Y-50730000D03*
%TD*%
D10*
%TO.C,J14*%
X135200000Y-69990000D03*
D11*
X137740000Y-69990000D03*
X140280000Y-69990000D03*
%TD*%
D10*
%TO.C,J12*%
X85210000Y-70000000D03*
D11*
X87750000Y-70000000D03*
X90290000Y-70000000D03*
%TD*%
D14*
%TO.C,TP38*%
X146960000Y-134500000D03*
X152040000Y-134500000D03*
%TD*%
D12*
%TO.C,C74*%
X150680000Y-53780000D03*
D13*
X148180000Y-53780000D03*
%TD*%
D15*
%TO.C,J5*%
X159500000Y-134500000D03*
X164500000Y-134500000D03*
%TD*%
D14*
%TO.C,TP37*%
X146960000Y-64500000D03*
X152040000Y-64500000D03*
%TD*%
D15*
%TO.C,J1*%
X101500000Y-45000000D03*
X96500000Y-45000000D03*
%TD*%
D14*
%TO.C,TP35*%
X96960000Y-64500000D03*
X102040000Y-64500000D03*
%TD*%
D12*
%TO.C,C23*%
X103510000Y-99507621D03*
D13*
X103510000Y-102007621D03*
%TD*%
D10*
%TO.C,J15*%
X160210001Y-69977621D03*
D11*
X162750001Y-69977621D03*
X165290001Y-69977621D03*
%TD*%
D15*
%TO.C,J2*%
X84500000Y-134500000D03*
X89500000Y-134500000D03*
%TD*%
%TO.C,J3*%
X109500000Y-134500000D03*
X114500000Y-134500000D03*
%TD*%
D10*
%TO.C,J10*%
X135200000Y-64465000D03*
D11*
X137740000Y-64465000D03*
X140280000Y-64465000D03*
%TD*%
D12*
%TO.C,C22*%
X120510000Y-99507621D03*
D13*
X120510000Y-102007621D03*
%TD*%
D18*
%TO.C,R38*%
X115875000Y-86930000D03*
X113800000Y-86930000D03*
%TD*%
D19*
%TO.C,C48*%
X158832500Y-86740000D03*
X160907500Y-86740000D03*
%TD*%
D18*
%TO.C,R37*%
X91037500Y-87300000D03*
X88962500Y-87300000D03*
%TD*%
%TO.C,R40*%
X166757500Y-87250000D03*
X164682500Y-87250000D03*
%TD*%
D19*
%TO.C,C4*%
X83915000Y-87460000D03*
X85990000Y-87460000D03*
%TD*%
%TO.C,C33*%
X133802500Y-87150000D03*
X135877500Y-87150000D03*
%TD*%
%TO.C,C32*%
X138285000Y-90890000D03*
X140360000Y-90890000D03*
%TD*%
D18*
%TO.C,R39*%
X142577500Y-86360000D03*
X140502500Y-86360000D03*
%TD*%
D19*
%TO.C,C47*%
X163295001Y-90877621D03*
X165370001Y-90877621D03*
%TD*%
%TO.C,C18*%
X108882500Y-87110000D03*
X110957500Y-87110000D03*
%TD*%
%TO.C,C17*%
X113305000Y-90907621D03*
X115380000Y-90907621D03*
%TD*%
%TO.C,C3*%
X88295000Y-90900000D03*
X90370000Y-90900000D03*
%TD*%
M02*
