M48
; DRILL file {KiCad 8.0.7} date 2025-07-18T12:07:14-0400
; FORMAT={-:-/ absolute / inch / decimal}
; #@! TF.CreationDate,2025-07-18T12:07:14-04:00
; #@! TF.GenerationSoftware,Kicad,Pcbnew,8.0.7
; #@! TF.FileFunction,Plated,1,2,PTH
FMAT,2
INCH
; #@! TA.AperFunction,Plated,PTH,ViaDrill
T1C0.0118
; #@! TA.AperFunction,Plated,PTH,ViaDrill
T2C0.0197
; #@! TA.AperFunction,Plated,PTH,ComponentDrill
T3C0.0276
; #@! TA.AperFunction,Plated,PTH,ComponentDrill
T4C0.0315
; #@! TA.AperFunction,Plated,PTH,ComponentDrill
T5C0.0394
; #@! TA.AperFunction,Plated,PTH,ComponentDrill
T6C0.0402
; #@! TA.AperFunction,Plated,PTH,ComponentDrill
T7C0.0512
%
G90
G05
T1
X3.1884Y-3.5431
X3.2264Y-4.1929
X3.252Y-3.7362
X3.3268Y-3.6575
X3.3268Y-3.689
X3.3268Y-3.7205
X3.3484Y-4.1929
X3.3583Y-3.6575
X3.3583Y-3.689
X3.3583Y-3.7205
X3.3612Y-3.8736
X3.3874Y-3.5031
X3.3898Y-3.6575
X3.3898Y-3.689
X3.3898Y-3.7205
X3.4213Y-3.6575
X3.4213Y-3.689
X3.4213Y-3.7205
X3.4252Y-4.8819
X3.4382Y-3.5012
X3.4528Y-3.6575
X3.4528Y-3.689
X3.4528Y-3.7205
X3.4843Y-3.6575
X3.4843Y-3.689
X3.4843Y-3.7205
X3.4892Y-3.8752
X3.502Y-4.1929
X3.5157Y-3.6575
X3.5157Y-3.689
X3.5157Y-3.7205
X3.5404Y-3.5069
X3.624Y-4.1929
X3.7717Y-3.5866
X4.1787Y-3.5469
X4.211Y-4.1932
X4.2402Y-3.7362
X4.3114Y-3.6578
X4.3114Y-3.6893
X4.3114Y-3.7208
X4.3331Y-4.1932
X4.3429Y-3.6578
X4.3429Y-3.6893
X4.3429Y-3.7208
X4.3459Y-3.8739
X4.372Y-3.5034
X4.3744Y-3.6578
X4.3744Y-3.6893
X4.3744Y-3.7208
X4.4059Y-3.6578
X4.4059Y-3.6893
X4.4059Y-3.7208
X4.4098Y-4.8822
X4.4228Y-3.4979
X4.4374Y-3.6578
X4.4374Y-3.6893
X4.4374Y-3.7208
X4.4689Y-3.6578
X4.4689Y-3.6893
X4.4689Y-3.7208
X4.4738Y-3.8755
X4.4866Y-4.1932
X4.5004Y-3.6578
X4.5004Y-3.6893
X4.5004Y-3.7208
X4.525Y-3.5072
X4.6087Y-4.1932
X4.7835Y-3.5906
X5.1587Y-3.5445
X5.1945Y-4.1925
X5.2283Y-3.7441
X5.2949Y-3.6571
X5.2949Y-3.6886
X5.2949Y-3.7201
X5.3165Y-4.1925
X5.3264Y-3.6571
X5.3264Y-3.6886
X5.3264Y-3.7201
X5.3293Y-3.8732
X5.3555Y-3.5028
X5.3579Y-3.6571
X5.3579Y-3.6886
X5.3579Y-3.7201
X5.3894Y-3.6571
X5.3894Y-3.6886
X5.3894Y-3.7201
X5.3933Y-4.8815
X5.4063Y-3.4972
X5.4209Y-3.6571
X5.4209Y-3.6886
X5.4209Y-3.7201
X5.4524Y-3.6571
X5.4524Y-3.6886
X5.4524Y-3.7201
X5.4573Y-3.8748
X5.4701Y-4.1925
X5.4839Y-3.6571
X5.4839Y-3.6886
X5.4839Y-3.7201
X5.5085Y-3.5065
X5.5921Y-4.1925
X5.752Y-3.6063
X6.1476Y-3.5382
X6.1791Y-4.192
X6.2126Y-3.7362
X6.2795Y-3.6566
X6.2795Y-3.6881
X6.2795Y-3.7196
X6.3012Y-4.192
X6.311Y-3.6566
X6.311Y-3.6881
X6.311Y-3.7196
X6.314Y-3.8727
X6.3402Y-3.5023
X6.3425Y-3.6566
X6.3425Y-3.6881
X6.3425Y-3.7196
X6.374Y-3.6566
X6.374Y-3.6881
X6.374Y-3.7196
X6.378Y-4.881
X6.3909Y-3.4968
X6.4055Y-3.6566
X6.4055Y-3.6881
X6.4055Y-3.7196
X6.437Y-3.6566
X6.437Y-3.6881
X6.437Y-3.7196
X6.4419Y-3.8743
X6.4547Y-4.192
X6.4685Y-3.6566
X6.4685Y-3.6881
X6.4685Y-3.7196
X6.4931Y-3.506
X6.5768Y-4.192
X6.6929Y-3.6063
T2
X3.9173Y-2.6732
X3.9173Y-2.7323
X3.9173Y-2.7913
X3.9173Y-2.8504
X3.9173Y-3.2437
X3.9173Y-3.3028
X3.9173Y-3.3618
X3.9173Y-3.4209
X4.9016Y-2.737
X4.9016Y-2.7961
X4.9016Y-2.8551
X4.9016Y-2.9142
X4.9016Y-3.311
X5.8858Y-3.1409
X5.8858Y-3.1999
X5.8858Y-3.259
X5.8858Y-3.318
X5.8937Y-2.7244
X5.9331Y-2.7638
X5.9724Y-2.8031
X6.0118Y-2.8425
X6.0512Y-2.8819
X6.7953Y-3.437
T3
X3.8173Y-2.5394
X3.8173Y-5.2953
X4.0173Y-2.5394
X4.0173Y-5.2953
X5.7858Y-2.5394
X5.7858Y-5.2953
X5.9858Y-2.5394
X5.9858Y-5.2953
T4
X3.0906Y-3.9173
X3.0906Y-4.0157
X3.7598Y-3.9173
X3.7598Y-4.0157
X3.8583Y-2.1457
X3.9567Y-2.1457
X4.0752Y-3.9176
X4.0752Y-4.016
X4.7445Y-3.9176
X4.7445Y-4.016
X5.0587Y-3.9169
X5.0587Y-4.0154
X5.728Y-3.9169
X5.728Y-4.0154
X5.8339Y-2.1173
X5.9323Y-2.1173
X6.0433Y-3.9164
X6.0433Y-4.0149
X6.7126Y-3.9164
X6.7126Y-4.0149
T5
X3.3547Y-2.5384
X3.3547Y-2.7559
X3.4547Y-2.5384
X3.4547Y-2.7559
X3.5547Y-2.5384
X3.5547Y-2.7559
X4.3394Y-2.5387
X4.3394Y-2.7562
X4.4394Y-2.5387
X4.4394Y-2.7562
X4.5394Y-2.5387
X4.5394Y-2.7562
X5.3228Y-2.538
X5.3228Y-2.7555
X5.4228Y-2.538
X5.4228Y-2.7555
X5.5228Y-2.538
X5.5228Y-2.7555
X6.3075Y-2.5375
X6.3075Y-2.755
X6.4075Y-2.5375
X6.4075Y-2.755
X6.5075Y-2.5375
X6.5075Y-2.755
T6
X4.7516Y-1.9972
X4.7516Y-2.0972
X4.8516Y-1.9972
X4.8516Y-2.0972
X4.9516Y-1.9972
X4.9516Y-2.0972
X5.0516Y-1.9972
X5.0516Y-2.0972
T7
X3.3268Y-5.2953
X3.5236Y-5.2953
X3.7992Y-1.7717
X3.9961Y-1.7717
X4.311Y-5.2953
X4.5079Y-5.2953
X5.2953Y-5.2953
X5.4921Y-5.2953
X5.8071Y-1.7717
X6.0039Y-1.7717
X6.2795Y-5.2953
X6.4764Y-5.2953
M30
