%TF.GenerationSoftware,KiCad,Pcbnew,9.0.3*%
%TF.CreationDate,2026-01-26T14:06:12-05:00*%
%TF.ProjectId,MCU_DAC_board,4d43555f-4441-4435-9f62-6f6172642e6b,rev?*%
%TF.SameCoordinates,Original*%
%TF.FileFunction,Paste,Bot*%
%TF.FilePolarity,Positive*%
%FSLAX46Y46*%
G04 Gerber Fmt 4.6, Leading zero omitted, Abs format (unit mm)*
G04 Created by KiCad (PCBNEW 9.0.3) date 2026-01-26 14:06:12*
%MOMM*%
%LPD*%
G01*
G04 APERTURE LIST*
G04 Aperture macros list*
%AMRoundRect*
0 Rectangle with rounded corners*
0 $1 Rounding radius*
0 $2 $3 $4 $5 $6 $7 $8 $9 X,Y pos of 4 corners*
0 Add a 4 corners polygon primitive as box body*
4,1,4,$2,$3,$4,$5,$6,$7,$8,$9,$2,$3,0*
0 Add four circle primitives for the rounded corners*
1,1,$1+$1,$2,$3*
1,1,$1+$1,$4,$5*
1,1,$1+$1,$6,$7*
1,1,$1+$1,$8,$9*
0 Add four rect primitives between the rounded corners*
20,1,$1+$1,$2,$3,$4,$5,0*
20,1,$1+$1,$4,$5,$6,$7,0*
20,1,$1+$1,$6,$7,$8,$9,0*
20,1,$1+$1,$8,$9,$2,$3,0*%
G04 Aperture macros list end*
%ADD10RoundRect,0.237500X-0.300000X-0.237500X0.300000X-0.237500X0.300000X0.237500X-0.300000X0.237500X0*%
%ADD11RoundRect,0.250000X0.070711X-0.565685X0.565685X-0.070711X-0.070711X0.565685X-0.565685X0.070711X0*%
%ADD12RoundRect,0.237500X0.237500X-0.300000X0.237500X0.300000X-0.237500X0.300000X-0.237500X-0.300000X0*%
%ADD13RoundRect,0.250000X0.475000X-0.337500X0.475000X0.337500X-0.475000X0.337500X-0.475000X-0.337500X0*%
%ADD14RoundRect,0.090000X-0.139000X-0.090000X0.139000X-0.090000X0.139000X0.090000X-0.139000X0.090000X0*%
%ADD15RoundRect,0.250000X-0.565685X-0.070711X-0.070711X-0.565685X0.565685X0.070711X0.070711X0.565685X0*%
%ADD16RoundRect,0.237500X-0.380070X0.044194X0.044194X-0.380070X0.380070X-0.044194X-0.044194X0.380070X0*%
%ADD17RoundRect,0.250000X0.565685X0.070711X0.070711X0.565685X-0.565685X-0.070711X-0.070711X-0.565685X0*%
%ADD18RoundRect,0.237500X-0.237500X0.300000X-0.237500X-0.300000X0.237500X-0.300000X0.237500X0.300000X0*%
%ADD19RoundRect,0.237500X0.044194X0.380070X-0.380070X-0.044194X-0.044194X-0.380070X0.380070X0.044194X0*%
%ADD20RoundRect,0.250000X-0.337500X-0.475000X0.337500X-0.475000X0.337500X0.475000X-0.337500X0.475000X0*%
%ADD21RoundRect,0.237500X0.300000X0.237500X-0.300000X0.237500X-0.300000X-0.237500X0.300000X-0.237500X0*%
%ADD22R,3.000000X1.000000*%
%ADD23RoundRect,0.250000X0.350000X0.450000X-0.350000X0.450000X-0.350000X-0.450000X0.350000X-0.450000X0*%
G04 APERTURE END LIST*
D10*
%TO.C,C35*%
X138555000Y-115360000D03*
X140280000Y-115360000D03*
%TD*%
D11*
%TO.C,R36*%
X100165786Y-135174214D03*
X101580000Y-133760000D03*
%TD*%
D12*
%TO.C,C34*%
X140580000Y-122960000D03*
X140580000Y-121235000D03*
%TD*%
D13*
%TO.C,C30*%
X145480000Y-121047500D03*
X145480000Y-118972500D03*
%TD*%
D14*
%TO.C,JP1*%
X118680000Y-120960000D03*
X119545000Y-120960000D03*
%TD*%
D15*
%TO.C,R35*%
X96665786Y-144945786D03*
X98080000Y-146360000D03*
%TD*%
D13*
%TO.C,C31*%
X143180000Y-121072500D03*
X143180000Y-118997500D03*
%TD*%
D16*
%TO.C,C2*%
X123936497Y-132016497D03*
X125156257Y-133236257D03*
%TD*%
D17*
%TO.C,R37*%
X101380000Y-149760000D03*
X99965786Y-148345786D03*
%TD*%
D18*
%TO.C,C33*%
X124980000Y-127935000D03*
X124980000Y-129660000D03*
%TD*%
D10*
%TO.C,C49*%
X138555000Y-113060000D03*
X140280000Y-113060000D03*
%TD*%
D19*
%TO.C,C43*%
X138989880Y-128650120D03*
X137770120Y-129869880D03*
%TD*%
D10*
%TO.C,C18*%
X138755000Y-110760000D03*
X140480000Y-110760000D03*
%TD*%
%TO.C,C4*%
X129980000Y-128060000D03*
X131705000Y-128060000D03*
%TD*%
D20*
%TO.C,C5*%
X130142500Y-126160000D03*
X132217500Y-126160000D03*
%TD*%
D18*
%TO.C,C41*%
X123080000Y-128235000D03*
X123080000Y-129960000D03*
%TD*%
D12*
%TO.C,C40*%
X124380000Y-116822500D03*
X124380000Y-115097500D03*
%TD*%
%TO.C,C8*%
X142380000Y-129960000D03*
X142380000Y-128235000D03*
%TD*%
D21*
%TO.C,C48*%
X127805000Y-113360000D03*
X126080000Y-113360000D03*
%TD*%
D18*
%TO.C,C1*%
X124980000Y-124435000D03*
X124980000Y-126160000D03*
%TD*%
D12*
%TO.C,C42*%
X138880000Y-122985000D03*
X138880000Y-121260000D03*
%TD*%
D10*
%TO.C,C10*%
X130655000Y-111760000D03*
X132380000Y-111760000D03*
%TD*%
D18*
%TO.C,C37*%
X140680000Y-117060000D03*
X140680000Y-118785000D03*
%TD*%
D19*
%TO.C,C44*%
X137480000Y-127260000D03*
X136260240Y-128479760D03*
%TD*%
D21*
%TO.C,C46*%
X133680000Y-113660000D03*
X131955000Y-113660000D03*
%TD*%
D12*
%TO.C,C45*%
X122680000Y-116860000D03*
X122680000Y-115135000D03*
%TD*%
D22*
%TO.C,J9*%
X110800000Y-147290000D03*
X105760000Y-147290000D03*
X110800000Y-144750000D03*
X105760000Y-144750000D03*
X110800000Y-142210000D03*
X105760000Y-142210000D03*
X110800000Y-139670000D03*
X105760000Y-139670000D03*
X110800000Y-137130000D03*
X105760000Y-137130000D03*
X110800000Y-134590000D03*
X105760000Y-134590000D03*
X110800000Y-132050000D03*
X105760000Y-132050000D03*
X110800000Y-129510000D03*
X105760000Y-129510000D03*
X110800000Y-126970000D03*
X105760000Y-126970000D03*
X110800000Y-124430000D03*
X105760000Y-124430000D03*
X110800000Y-121890000D03*
X105760000Y-121890000D03*
X110800000Y-119350000D03*
X105760000Y-119350000D03*
X110800000Y-116810000D03*
X105760000Y-116810000D03*
X110800000Y-114270000D03*
X105760000Y-114270000D03*
X110800000Y-111730000D03*
X105760000Y-111730000D03*
X110800000Y-109190000D03*
X105760000Y-109190000D03*
X110800000Y-106650000D03*
X105760000Y-106650000D03*
X110800000Y-104110000D03*
X105760000Y-104110000D03*
X110800000Y-101570000D03*
X105760000Y-101570000D03*
X110800000Y-99030000D03*
X105760000Y-99030000D03*
%TD*%
D21*
%TO.C,C36*%
X127842500Y-115160000D03*
X126117500Y-115160000D03*
%TD*%
D18*
%TO.C,C47*%
X138780000Y-117060000D03*
X138780000Y-118785000D03*
%TD*%
D19*
%TO.C,C9*%
X140299760Y-129940240D03*
X139080000Y-131160000D03*
%TD*%
D23*
%TO.C,R34*%
X145380000Y-116972500D03*
X143380000Y-116972500D03*
%TD*%
D10*
%TO.C,C7*%
X129255000Y-133060000D03*
X130980000Y-133060000D03*
%TD*%
D18*
%TO.C,C38*%
X123280000Y-124460000D03*
X123280000Y-126185000D03*
%TD*%
D20*
%TO.C,C6*%
X129180000Y-130860000D03*
X131255000Y-130860000D03*
%TD*%
D21*
%TO.C,C39*%
X133580000Y-115460000D03*
X131855000Y-115460000D03*
%TD*%
M02*
