M48
; DRILL file {KiCad 9.0.3} date 2026-01-26T14:05:53-0500
; FORMAT={-:-/ absolute / inch / decimal}
; #@! TF.CreationDate,2026-01-26T14:05:53-05:00
; #@! TF.GenerationSoftware,Kicad,Pcbnew,9.0.3
; #@! TF.FileFunction,Plated,1,4,PTH
FMAT,2
INCH
; #@! TA.AperFunction,Plated,PTH,ViaDrill
T1C0.0118
; #@! TA.AperFunction,Plated,PTH,ViaDrill
T2C0.0197
; #@! TA.AperFunction,Plated,PTH,ComponentDrill
T3C0.0315
; #@! TA.AperFunction,Plated,PTH,ComponentDrill
T4C0.0394
; #@! TA.AperFunction,Plated,PTH,ComponentDrill
T5C0.0402
; #@! TA.AperFunction,Plated,PTH,ComponentDrill
T6C0.0512
; #@! TA.AperFunction,Plated,PTH,ComponentDrill
T7C0.0520
; #@! TA.AperFunction,Plated,PTH,ComponentDrill
T8C0.1063
%
G90
G05
T1
X3.6606Y-5.9551
X3.7512Y-5.7661
X3.8417Y-4.9669
X3.8535Y-5.2307
X3.8614Y-5.9118
X3.889Y-5.1717
X3.8969Y-5.6126
X3.9008Y-4.3331
X3.9126Y-5.5142
X3.9283Y-4.2346
X3.9402Y-4.1362
X3.9559Y-4.0339
X3.9795Y-4.7976
X4.0189Y-5.1992
X4.0465Y-5.0024
X4.0543Y-5.8173
X4.0583Y-5.1244
X4.078Y-5.7543
X4.263Y-5.0024
X4.2669Y-4.7543
X4.2669Y-4.8134
X4.2709Y-4.9
X4.2709Y-5.3134
X4.4992Y-4.8685
X4.6961Y-4.5614
X4.8024Y-4.8921
X4.8142Y-5.0378
X4.8496Y-5.0604
X4.8794Y-5.1975
X4.9283Y-5.1559
X4.9717Y-4.8685
X4.9756Y-5.2071
X4.9795Y-4.6047
X5.011Y-4.652
X5.0189Y-4.9197
X5.0268Y-4.6047
X5.0317Y-4.463
X5.0425Y-4.8882
X5.0661Y-4.6559
X5.0661Y-5.0457
X5.078Y-4.463
X5.078Y-4.8724
X5.0819Y-5.0929
X5.1094Y-4.8331
X5.1675Y-5.0929
X5.2039Y-4.6244
X5.2276Y-4.7622
X5.2472Y-4.6874
X5.2669Y-4.4748
X5.2787Y-4.6283
X5.2906Y-4.3961
X5.3142Y-4.4748
X5.4195Y-4.4039
X5.4205Y-4.8409
X5.4559Y-4.4236
X5.4559Y-4.4945
X5.4677Y-4.774
X5.4677Y-4.8419
X5.472Y-5.065
X5.5543Y-5.1402
X5.578Y-4.5614
X5.5819Y-4.4906
X5.5858Y-4.7386
X5.5898Y-4.6835
X5.6055Y-5.0486
X5.6055Y-5.1165
X6.389Y-4.1008
X6.4047Y-4.2819
X6.4047Y-4.8606
X6.4087Y-5.6205
X6.4126Y-4.4709
X6.5228Y-5.5299
T2
X3.4549Y-3.1746
X3.4549Y-3.5683
X3.4549Y-3.7652
X3.4549Y-3.962
X3.4549Y-4.1589
X3.4549Y-4.3557
X3.4549Y-4.5526
X3.4549Y-5.34
X3.4549Y-5.5368
X3.4549Y-5.7337
X3.4549Y-5.9305
X3.6518Y-2.9778
X3.6518Y-3.1746
X3.6518Y-3.3715
X3.6518Y-3.5683
X3.6518Y-3.7652
X3.6518Y-3.962
X3.6518Y-4.5526
X3.6518Y-5.7337
X3.8063Y-5.1874
X3.8486Y-2.9778
X3.8486Y-3.1746
X3.8486Y-3.3715
X3.8486Y-3.5683
X3.8486Y-3.7652
X3.8486Y-3.962
X3.8486Y-4.5526
X3.9362Y-5.6756
X4.0455Y-3.7652
X4.0455Y-3.962
X4.0504Y-4.9
X4.0661Y-4.211
X4.0701Y-5.2031
X4.2551Y-5.4354
X4.2591Y-4.3488
X4.2669Y-4.0969
X4.2709Y-5.1008
X4.4392Y-3.7652
X4.4913Y-3.9472
X4.4913Y-5.4354
X4.4953Y-4.5496
X4.4992Y-4.6559
X4.5031Y-5.0457
X4.5031Y-5.3409
X4.636Y-3.7652
X4.636Y-3.962
X4.7Y-4.6756
X4.7Y-5.5024
X4.7236Y-4.4827
X4.7276Y-5.4315
X4.7315Y-5.1441
X4.7394Y-5.0496
X4.7591Y-4.3528
X4.7906Y-5.2976
X4.7906Y-5.3961
X4.8329Y-3.7652
X4.8329Y-3.962
X4.8329Y-4.1589
X4.8329Y-5.7337
X4.8969Y-5.3961
X4.9047Y-4.4709
X4.9795Y-4.9118
X5.0297Y-3.7652
X5.0297Y-5.7337
X5.0622Y-4.2228
X5.0661Y-3.9787
X5.0661Y-4.0378
X5.0661Y-4.4
X5.1213Y-4.2228
X5.1252Y-3.9787
X5.1252Y-4.0378
X5.1803Y-4.2228
X5.1843Y-3.9787
X5.1843Y-4.0378
X5.2266Y-3.7652
X5.2266Y-5.7337
X5.2394Y-4.2228
X5.2433Y-3.9787
X5.2433Y-4.0378
X5.2669Y-4.9906
X5.3102Y-4.0063
X5.3693Y-4.0063
X5.3929Y-5.085
X5.4047Y-4.6441
X5.4234Y-3.7652
X5.4234Y-4.9463
X5.511Y-5.4512
X5.5228Y-4.5417
X5.5268Y-5.1756
X5.6203Y-3.7652
X5.6203Y-3.962
X5.6203Y-4.1589
X5.6203Y-5.9305
X5.6961Y-5.1205
X5.8171Y-3.7652
X5.8171Y-3.962
X5.8171Y-4.1589
X5.8171Y-5.9305
X5.8417Y-4.5811
X5.8693Y-4.7504
X5.9047Y-4.8921
X5.9205Y-5.4472
X5.9402Y-5.1953
X6.014Y-3.7652
X6.014Y-3.962
X6.014Y-4.1589
X6.014Y-5.9305
X6.0228Y-5.3252
X6.2108Y-3.962
X6.2108Y-5.7337
X6.3969Y-4.1913
X6.3969Y-5.0417
X6.4047Y-4.3882
X6.4077Y-5.7337
X6.4077Y-5.9305
X6.4441Y-5.5575
X6.5031Y-5.4197
X6.5307Y-5.3291
X6.6045Y-5.7337
X6.6045Y-5.9305
X6.6291Y-4.3803
X6.6291Y-5.274
X6.6488Y-4.4748
X6.8014Y-3.3715
X6.8014Y-3.5683
X6.8014Y-3.7652
X6.8014Y-3.962
X6.8014Y-4.5526
X6.8014Y-4.7494
X6.8014Y-4.9463
X6.8014Y-5.1431
X6.8014Y-5.7337
X6.8014Y-5.9305
X6.9982Y-3.3715
X6.9982Y-3.5683
X6.9982Y-3.7652
X6.9982Y-3.962
X6.9982Y-4.1589
X6.9982Y-4.3557
X6.9982Y-4.5526
X6.9982Y-4.7494
X6.9982Y-4.9463
X6.9982Y-5.1431
X6.9982Y-5.34
X6.9982Y-5.5368
X6.9982Y-5.7337
X6.9982Y-5.9305
T3
X4.9684Y-5.8055
X5.0668Y-5.8055
T4
X3.4276Y-4.8039
X3.4276Y-4.9039
X3.5276Y-4.8039
X3.5276Y-4.9039
X3.6276Y-4.8039
X3.6276Y-4.9039
X3.7276Y-4.8039
X3.7276Y-4.9039
X4.537Y-5.8173
X4.637Y-5.8173
X4.737Y-5.8173
T5
X3.6421Y-4.0591
X3.6421Y-4.1591
X3.6421Y-4.2591
X3.6421Y-4.3591
X3.6421Y-5.3386
X3.6421Y-5.4386
X3.6421Y-5.5386
X3.6421Y-5.6386
X3.7421Y-4.0591
X3.7421Y-4.1591
X3.7421Y-4.2591
X3.7421Y-4.3591
X3.7421Y-5.3386
X3.7421Y-5.4386
X3.7421Y-5.5386
X3.7421Y-5.6386
X6.713Y-4.0591
X6.713Y-4.1591
X6.713Y-4.2591
X6.713Y-4.3591
X6.713Y-5.3386
X6.713Y-5.4386
X6.713Y-5.5386
X6.713Y-5.6386
X6.813Y-4.0591
X6.813Y-4.1591
X6.813Y-4.2591
X6.813Y-4.3591
X6.813Y-5.3386
X6.813Y-5.4386
X6.813Y-5.5386
X6.813Y-5.6386
T6
X3.5543Y-3.5102
X3.5543Y-3.7071
X6.9008Y-3.5102
X6.9008Y-3.7071
T7
X3.4132Y-2.9096
X3.4132Y-3.3096
X3.921Y-2.9135
X3.921Y-3.3135
T8
X4.263Y-3.7071
X4.263Y-5.9906
X6.1921Y-3.7071
X6.1921Y-5.9906
T3
G00X6.6055Y-2.9807
M15
G01X6.6055Y-2.9217
M16
G05
G00X6.6213Y-3.2622
M15
G01X6.6213Y-3.215
M16
G05
G00X6.7551Y-3.2622
M15
G01X6.7551Y-3.215
M16
G05
G00X6.9598Y-3.2622
M15
G01X6.9598Y-3.215
M16
G05
G00X6.9953Y-2.9807
M15
G01X6.9953Y-2.9217
M16
G05
M30
