%TF.GenerationSoftware,KiCad,Pcbnew,9.0.3*%
%TF.CreationDate,2026-01-26T14:06:12-05:00*%
%TF.ProjectId,MCU_DAC_board,4d43555f-4441-4435-9f62-6f6172642e6b,rev?*%
%TF.SameCoordinates,Original*%
%TF.FileFunction,Soldermask,Top*%
%TF.FilePolarity,Negative*%
%FSLAX46Y46*%
G04 Gerber Fmt 4.6, Leading zero omitted, Abs format (unit mm)*
G04 Created by KiCad (PCBNEW 9.0.3) date 2026-01-26 14:06:12*
%MOMM*%
%LPD*%
G01*
G04 APERTURE LIST*
G04 Aperture macros list*
%AMRoundRect*
0 Rectangle with rounded corners*
0 $1 Rounding radius*
0 $2 $3 $4 $5 $6 $7 $8 $9 X,Y pos of 4 corners*
0 Add a 4 corners polygon primitive as box body*
4,1,4,$2,$3,$4,$5,$6,$7,$8,$9,$2,$3,0*
0 Add four circle primitives for the rounded corners*
1,1,$1+$1,$2,$3*
1,1,$1+$1,$4,$5*
1,1,$1+$1,$6,$7*
1,1,$1+$1,$8,$9*
0 Add four rect primitives between the rounded corners*
20,1,$1+$1,$2,$3,$4,$5,0*
20,1,$1+$1,$4,$5,$6,$7,0*
20,1,$1+$1,$6,$7,$8,$9,0*
20,1,$1+$1,$8,$9,$2,$3,0*%
G04 Aperture macros list end*
%ADD10R,1.800000X1.800000*%
%ADD11C,1.800000*%
%ADD12RoundRect,0.250000X0.350000X0.450000X-0.350000X0.450000X-0.350000X-0.450000X0.350000X-0.450000X0*%
%ADD13RoundRect,0.250000X-0.475000X0.337500X-0.475000X-0.337500X0.475000X-0.337500X0.475000X0.337500X0*%
%ADD14RoundRect,0.250000X0.475000X-0.337500X0.475000X0.337500X-0.475000X0.337500X-0.475000X-0.337500X0*%
%ADD15RoundRect,0.250000X-0.350000X-0.450000X0.350000X-0.450000X0.350000X0.450000X-0.350000X0.450000X0*%
%ADD16RoundRect,0.237500X0.237500X-0.300000X0.237500X0.300000X-0.237500X0.300000X-0.237500X-0.300000X0*%
%ADD17R,1.000000X1.800000*%
%ADD18C,3.100000*%
%ADD19C,4.700000*%
%ADD20R,1.449999X0.430000*%
%ADD21R,0.430000X1.449999*%
%ADD22R,1.700000X1.700000*%
%ADD23C,1.700000*%
%ADD24R,1.800000X1.000000*%
%ADD25RoundRect,0.250000X1.050000X0.550000X-1.050000X0.550000X-1.050000X-0.550000X1.050000X-0.550000X0*%
%ADD26C,1.828800*%
%ADD27C,2.154000*%
%ADD28RoundRect,0.250000X-1.050000X-0.550000X1.050000X-0.550000X1.050000X0.550000X-1.050000X0.550000X0*%
%ADD29RoundRect,0.375000X0.375000X-0.625000X0.375000X0.625000X-0.375000X0.625000X-0.375000X-0.625000X0*%
%ADD30RoundRect,0.500000X1.400000X-0.500000X1.400000X0.500000X-1.400000X0.500000X-1.400000X-0.500000X0*%
%ADD31RoundRect,0.250000X-0.550000X-0.550000X0.550000X-0.550000X0.550000X0.550000X-0.550000X0.550000X0*%
%ADD32C,1.600000*%
%ADD33O,1.512000X2.820000*%
%ADD34O,1.864000X3.524000*%
G04 APERTURE END LIST*
D10*
%TO.C,J1*%
X92510000Y-103100000D03*
D11*
X95050000Y-103100000D03*
X92510000Y-105640000D03*
X95050000Y-105640000D03*
X92510000Y-108180000D03*
X95050000Y-108180000D03*
X92510000Y-110720000D03*
X95050000Y-110720000D03*
%TD*%
D12*
%TO.C,R5*%
X117780000Y-111910000D03*
X115780000Y-111910000D03*
%TD*%
D13*
%TO.C,C17*%
X112780000Y-134622500D03*
X112780000Y-136697500D03*
%TD*%
D12*
%TO.C,R8*%
X117780000Y-119410000D03*
X115780000Y-119410000D03*
%TD*%
D10*
%TO.C,J3*%
X173050000Y-143220000D03*
D11*
X170510000Y-143220000D03*
X173050000Y-140680000D03*
X170510000Y-140680000D03*
X173050000Y-138140000D03*
X170510000Y-138140000D03*
X173050000Y-135600000D03*
X170510000Y-135600000D03*
%TD*%
D14*
%TO.C,C28*%
X160780000Y-111697500D03*
X160780000Y-109622500D03*
%TD*%
D15*
%TO.C,R26*%
X155780000Y-121910000D03*
X157780000Y-121910000D03*
%TD*%
D13*
%TO.C,C12*%
X112780000Y-109622500D03*
X112780000Y-111697500D03*
%TD*%
D16*
%TO.C,C3*%
X123180000Y-130260000D03*
X123180000Y-128535000D03*
%TD*%
D17*
%TO.C,TP2*%
X86380000Y-118260000D03*
%TD*%
D13*
%TO.C,C11*%
X112780000Y-104622500D03*
X112780000Y-106697500D03*
%TD*%
D18*
%TO.C,H4*%
X157280000Y-94160000D03*
D19*
X157280000Y-94160000D03*
%TD*%
D18*
%TO.C,H2*%
X108280000Y-94160000D03*
D19*
X108280000Y-94160000D03*
%TD*%
D10*
%TO.C,J4*%
X173050000Y-110720000D03*
D11*
X170510000Y-110720000D03*
X173050000Y-108180000D03*
X170510000Y-108180000D03*
X173050000Y-105640000D03*
X170510000Y-105640000D03*
X173050000Y-103100000D03*
X170510000Y-103100000D03*
%TD*%
D17*
%TO.C,TP3*%
X99880000Y-127860000D03*
%TD*%
D15*
%TO.C,R31*%
X155780000Y-109410000D03*
X157780000Y-109410000D03*
%TD*%
D18*
%TO.C,H1*%
X157280000Y-152160000D03*
D19*
X157280000Y-152160000D03*
%TD*%
D15*
%TO.C,R32*%
X155780000Y-106910000D03*
X157780000Y-106910000D03*
%TD*%
D14*
%TO.C,C23*%
X160780000Y-136697499D03*
X160780000Y-134622499D03*
%TD*%
D12*
%TO.C,R10*%
X117780000Y-124410000D03*
X115780000Y-124410000D03*
%TD*%
D20*
%TO.C,U1*%
X140505001Y-129334999D03*
X140505001Y-128685000D03*
X140505001Y-128034999D03*
X140505001Y-127385000D03*
X140505001Y-126734999D03*
X140505001Y-126085000D03*
X140505001Y-125434999D03*
X140505001Y-124785001D03*
X140505001Y-124134999D03*
X140505001Y-123485001D03*
X140505001Y-122834999D03*
X140505001Y-122185001D03*
X140505001Y-121534999D03*
X140505001Y-120885001D03*
X140505001Y-120235000D03*
X140505001Y-119585001D03*
X140505001Y-118935000D03*
X140505001Y-118285001D03*
X140505001Y-117635000D03*
X140505001Y-116985001D03*
D21*
X138954999Y-115434999D03*
X138305000Y-115434999D03*
X137654999Y-115434999D03*
X137005000Y-115434999D03*
X136354999Y-115434999D03*
X135705000Y-115434999D03*
X135054999Y-115434999D03*
X134405001Y-115434999D03*
X133754999Y-115434999D03*
X133105001Y-115434999D03*
X132454999Y-115434999D03*
X131805001Y-115434999D03*
X131154999Y-115434999D03*
X130505001Y-115434999D03*
X129855000Y-115434999D03*
X129205001Y-115434999D03*
X128555000Y-115434999D03*
X127905001Y-115434999D03*
X127255000Y-115434999D03*
X126605001Y-115434999D03*
D20*
X125054999Y-116985001D03*
X125054999Y-117635000D03*
X125054999Y-118285001D03*
X125054999Y-118935000D03*
X125054999Y-119585001D03*
X125054999Y-120235000D03*
X125054999Y-120885001D03*
X125054999Y-121534999D03*
X125054999Y-122185001D03*
X125054999Y-122834999D03*
X125054999Y-123485001D03*
X125054999Y-124134999D03*
X125054999Y-124785001D03*
X125054999Y-125434999D03*
X125054999Y-126085000D03*
X125054999Y-126734999D03*
X125054999Y-127385000D03*
X125054999Y-128034999D03*
X125054999Y-128685000D03*
X125054999Y-129334999D03*
D21*
X126605001Y-130885001D03*
X127255000Y-130885001D03*
X127905001Y-130885001D03*
X128555000Y-130885001D03*
X129205001Y-130885001D03*
X129855000Y-130885001D03*
X130505001Y-130885001D03*
X131154999Y-130885001D03*
X131805001Y-130885001D03*
X132454999Y-130885001D03*
X133105001Y-130885001D03*
X133754999Y-130885001D03*
X134405001Y-130885001D03*
X135054999Y-130885001D03*
X135705000Y-130885001D03*
X136354999Y-130885001D03*
X137005000Y-130885001D03*
X137654999Y-130885001D03*
X138305000Y-130885001D03*
X138954999Y-130885001D03*
%TD*%
D12*
%TO.C,R2*%
X117780000Y-104410000D03*
X115780000Y-104410000D03*
%TD*%
D15*
%TO.C,R33*%
X155780000Y-104410000D03*
X157780000Y-104410000D03*
%TD*%
D22*
%TO.C,J12*%
X87060000Y-122020000D03*
D23*
X87060000Y-124560000D03*
X89600000Y-122020000D03*
X89600000Y-124560000D03*
X92140000Y-122020000D03*
X92140000Y-124560000D03*
X94680000Y-122020000D03*
X94680000Y-124560000D03*
%TD*%
D15*
%TO.C,R25*%
X155780000Y-124410000D03*
X157780000Y-124410000D03*
%TD*%
D24*
%TO.C,TP11*%
X126880000Y-133660000D03*
%TD*%
D15*
%TO.C,R29*%
X155780000Y-114409999D03*
X157780000Y-114409999D03*
%TD*%
%TO.C,R23*%
X155780000Y-129410000D03*
X157780000Y-129410000D03*
%TD*%
%TO.C,R30*%
X155780000Y-111910000D03*
X157780000Y-111910000D03*
%TD*%
D25*
%TO.C,C19*%
X133580000Y-109560000D03*
X129980000Y-109560000D03*
%TD*%
D17*
%TO.C,TP26*%
X99880000Y-118060000D03*
%TD*%
D26*
%TO.C,J6*%
X86694300Y-73903900D03*
X86694300Y-84063900D03*
%TD*%
D15*
%TO.C,R27*%
X155780000Y-119409999D03*
X157780000Y-119409999D03*
%TD*%
%TO.C,R20*%
X155780000Y-136909999D03*
X157780000Y-136909999D03*
%TD*%
D18*
%TO.C,H3*%
X108280000Y-152160000D03*
D19*
X108280000Y-152160000D03*
%TD*%
D12*
%TO.C,R17*%
X117780000Y-141910000D03*
X115780000Y-141910000D03*
%TD*%
%TO.C,R7*%
X117780000Y-116910000D03*
X115780000Y-116910000D03*
%TD*%
D27*
%TO.C,J7*%
X90280000Y-89160000D03*
X90280000Y-94160000D03*
%TD*%
D17*
%TO.C,TP28*%
X100380000Y-132260000D03*
%TD*%
D14*
%TO.C,C22*%
X160780000Y-141697499D03*
X160780000Y-139622499D03*
%TD*%
D15*
%TO.C,R28*%
X155780000Y-116909999D03*
X157780000Y-116909999D03*
%TD*%
D12*
%TO.C,R16*%
X117780000Y-139410000D03*
X115780000Y-139410000D03*
%TD*%
D28*
%TO.C,C20*%
X137380000Y-109660000D03*
X140980000Y-109660000D03*
%TD*%
D12*
%TO.C,R3*%
X117780000Y-106910000D03*
X115780000Y-106910000D03*
%TD*%
D29*
%TO.C,Q1*%
X134480000Y-104460000D03*
X136780000Y-104460000D03*
D30*
X136780000Y-98160000D03*
D29*
X139080000Y-104460000D03*
%TD*%
D12*
%TO.C,R15*%
X117780000Y-136910000D03*
X115780000Y-136910000D03*
%TD*%
%TO.C,R4*%
X117780000Y-109410000D03*
X115780000Y-109410000D03*
%TD*%
%TO.C,R6*%
X117780000Y-114410000D03*
X115780000Y-114410000D03*
%TD*%
D17*
%TO.C,TP30*%
X144780000Y-107460000D03*
%TD*%
D26*
%TO.C,J11*%
X99594300Y-74003900D03*
X99594300Y-84163900D03*
%TD*%
D14*
%TO.C,C26*%
X160780000Y-121697499D03*
X160780000Y-119622499D03*
%TD*%
%TO.C,C29*%
X160780000Y-106697500D03*
X160780000Y-104622500D03*
%TD*%
D27*
%TO.C,J8*%
X175280000Y-94160000D03*
X175280000Y-89160000D03*
%TD*%
D17*
%TO.C,TP29*%
X150580000Y-107260000D03*
%TD*%
D15*
%TO.C,R18*%
X155780000Y-141910000D03*
X157780000Y-141910000D03*
%TD*%
D12*
%TO.C,R13*%
X117780000Y-131910000D03*
X115780000Y-131910000D03*
%TD*%
%TO.C,R9*%
X117780000Y-121910000D03*
X115780000Y-121910000D03*
%TD*%
D15*
%TO.C,R22*%
X155780000Y-131910000D03*
X157780000Y-131910000D03*
%TD*%
D31*
%TO.C,C32*%
X126197621Y-147460000D03*
D32*
X128697621Y-147460000D03*
%TD*%
D22*
%TO.C,J10*%
X115240000Y-147760000D03*
D23*
X117780000Y-147760000D03*
X120320000Y-147760000D03*
%TD*%
D13*
%TO.C,C14*%
X112780000Y-119622500D03*
X112780000Y-121697500D03*
%TD*%
D15*
%TO.C,R21*%
X155780000Y-134409999D03*
X157780000Y-134409999D03*
%TD*%
D24*
%TO.C,TP24*%
X90480000Y-151260000D03*
%TD*%
D12*
%TO.C,R11*%
X117780000Y-126910000D03*
X115780000Y-126910000D03*
%TD*%
D14*
%TO.C,C24*%
X160780000Y-131697500D03*
X160780000Y-129622500D03*
%TD*%
D10*
%TO.C,J2*%
X92510000Y-135600000D03*
D11*
X95050000Y-135600000D03*
X92510000Y-138140000D03*
X95050000Y-138140000D03*
X92510000Y-140680000D03*
X95050000Y-140680000D03*
X92510000Y-143220000D03*
X95050000Y-143220000D03*
%TD*%
D12*
%TO.C,R14*%
X117780000Y-134410000D03*
X115780000Y-134410000D03*
%TD*%
D24*
%TO.C,TP1*%
X96380000Y-151360000D03*
%TD*%
D14*
%TO.C,C27*%
X160780000Y-116697499D03*
X160780000Y-114622499D03*
%TD*%
D15*
%TO.C,R24*%
X155780000Y-126910000D03*
X157780000Y-126910000D03*
%TD*%
%TO.C,R19*%
X155780000Y-139409999D03*
X157780000Y-139409999D03*
%TD*%
D13*
%TO.C,C21*%
X112780000Y-139622500D03*
X112780000Y-141697500D03*
%TD*%
%TO.C,C13*%
X112780000Y-114622500D03*
X112780000Y-116697500D03*
%TD*%
%TO.C,C15*%
X112780000Y-124622500D03*
X112780000Y-126697500D03*
%TD*%
D14*
%TO.C,C25*%
X160780000Y-126697500D03*
X160780000Y-124622500D03*
%TD*%
D13*
%TO.C,C16*%
X112780000Y-129622500D03*
X112780000Y-131697500D03*
%TD*%
D17*
%TO.C,TP27*%
X86480000Y-128060000D03*
%TD*%
D12*
%TO.C,R12*%
X117780000Y-129410000D03*
X115780000Y-129410000D03*
%TD*%
D33*
%TO.C,J5*%
X168180000Y-82260000D03*
D34*
X177680000Y-74960000D03*
D33*
X176780000Y-82260000D03*
D34*
X167780000Y-74960000D03*
D33*
X171580000Y-82260000D03*
%TD*%
D15*
%TO.C,R1*%
X129780000Y-104660000D03*
X131780000Y-104660000D03*
%TD*%
M02*
