%TF.GenerationSoftware,KiCad,Pcbnew,9.0.3*%
%TF.CreationDate,2026-01-26T14:06:12-05:00*%
%TF.ProjectId,MCU_DAC_board,4d43555f-4441-4435-9f62-6f6172642e6b,rev?*%
%TF.SameCoordinates,Original*%
%TF.FileFunction,Soldermask,Bot*%
%TF.FilePolarity,Negative*%
%FSLAX46Y46*%
G04 Gerber Fmt 4.6, Leading zero omitted, Abs format (unit mm)*
G04 Created by KiCad (PCBNEW 9.0.3) date 2026-01-26 14:06:12*
%MOMM*%
%LPD*%
G01*
G04 APERTURE LIST*
G04 Aperture macros list*
%AMRoundRect*
0 Rectangle with rounded corners*
0 $1 Rounding radius*
0 $2 $3 $4 $5 $6 $7 $8 $9 X,Y pos of 4 corners*
0 Add a 4 corners polygon primitive as box body*
4,1,4,$2,$3,$4,$5,$6,$7,$8,$9,$2,$3,0*
0 Add four circle primitives for the rounded corners*
1,1,$1+$1,$2,$3*
1,1,$1+$1,$4,$5*
1,1,$1+$1,$6,$7*
1,1,$1+$1,$8,$9*
0 Add four rect primitives between the rounded corners*
20,1,$1+$1,$2,$3,$4,$5,0*
20,1,$1+$1,$4,$5,$6,$7,0*
20,1,$1+$1,$6,$7,$8,$9,0*
20,1,$1+$1,$8,$9,$2,$3,0*%
G04 Aperture macros list end*
%ADD10R,1.800000X1.800000*%
%ADD11C,1.800000*%
%ADD12C,3.100000*%
%ADD13C,4.700000*%
%ADD14R,1.700000X1.700000*%
%ADD15C,1.700000*%
%ADD16C,1.828800*%
%ADD17C,2.154000*%
%ADD18RoundRect,0.250000X-0.550000X-0.550000X0.550000X-0.550000X0.550000X0.550000X-0.550000X0.550000X0*%
%ADD19C,1.600000*%
%ADD20O,1.512000X2.820000*%
%ADD21O,1.864000X3.524000*%
%ADD22RoundRect,0.237500X-0.300000X-0.237500X0.300000X-0.237500X0.300000X0.237500X-0.300000X0.237500X0*%
%ADD23RoundRect,0.250000X0.070711X-0.565685X0.565685X-0.070711X-0.070711X0.565685X-0.565685X0.070711X0*%
%ADD24RoundRect,0.237500X0.237500X-0.300000X0.237500X0.300000X-0.237500X0.300000X-0.237500X-0.300000X0*%
%ADD25RoundRect,0.250000X0.475000X-0.337500X0.475000X0.337500X-0.475000X0.337500X-0.475000X-0.337500X0*%
%ADD26RoundRect,0.100000X-0.217500X-0.100000X0.217500X-0.100000X0.217500X0.100000X-0.217500X0.100000X0*%
%ADD27RoundRect,0.250000X-0.565685X-0.070711X-0.070711X-0.565685X0.565685X0.070711X0.070711X0.565685X0*%
%ADD28RoundRect,0.237500X-0.380070X0.044194X0.044194X-0.380070X0.380070X-0.044194X-0.044194X0.380070X0*%
%ADD29RoundRect,0.250000X0.565685X0.070711X0.070711X0.565685X-0.565685X-0.070711X-0.070711X-0.565685X0*%
%ADD30RoundRect,0.237500X-0.237500X0.300000X-0.237500X-0.300000X0.237500X-0.300000X0.237500X0.300000X0*%
%ADD31RoundRect,0.237500X0.044194X0.380070X-0.380070X-0.044194X-0.044194X-0.380070X0.380070X0.044194X0*%
%ADD32RoundRect,0.250000X-0.337500X-0.475000X0.337500X-0.475000X0.337500X0.475000X-0.337500X0.475000X0*%
%ADD33RoundRect,0.237500X0.300000X0.237500X-0.300000X0.237500X-0.300000X-0.237500X0.300000X-0.237500X0*%
%ADD34R,3.000000X1.000000*%
%ADD35RoundRect,0.250000X0.350000X0.450000X-0.350000X0.450000X-0.350000X-0.450000X0.350000X-0.450000X0*%
G04 APERTURE END LIST*
D10*
%TO.C,J1*%
X92510000Y-103100000D03*
D11*
X95050000Y-103100000D03*
X92510000Y-105640000D03*
X95050000Y-105640000D03*
X92510000Y-108180000D03*
X95050000Y-108180000D03*
X92510000Y-110720000D03*
X95050000Y-110720000D03*
%TD*%
D10*
%TO.C,J3*%
X173050000Y-143220000D03*
D11*
X170510000Y-143220000D03*
X173050000Y-140680000D03*
X170510000Y-140680000D03*
X173050000Y-138140000D03*
X170510000Y-138140000D03*
X173050000Y-135600000D03*
X170510000Y-135600000D03*
%TD*%
D12*
%TO.C,H4*%
X157280000Y-94160000D03*
D13*
X157280000Y-94160000D03*
%TD*%
D12*
%TO.C,H2*%
X108280000Y-94160000D03*
D13*
X108280000Y-94160000D03*
%TD*%
D10*
%TO.C,J4*%
X173050000Y-110720000D03*
D11*
X170510000Y-110720000D03*
X173050000Y-108180000D03*
X170510000Y-108180000D03*
X173050000Y-105640000D03*
X170510000Y-105640000D03*
X173050000Y-103100000D03*
X170510000Y-103100000D03*
%TD*%
D12*
%TO.C,H1*%
X157280000Y-152160000D03*
D13*
X157280000Y-152160000D03*
%TD*%
D14*
%TO.C,J12*%
X87060000Y-122020000D03*
D15*
X87060000Y-124560000D03*
X89600000Y-122020000D03*
X89600000Y-124560000D03*
X92140000Y-122020000D03*
X92140000Y-124560000D03*
X94680000Y-122020000D03*
X94680000Y-124560000D03*
%TD*%
D16*
%TO.C,J6*%
X86694300Y-73903900D03*
X86694300Y-84063900D03*
%TD*%
D12*
%TO.C,H3*%
X108280000Y-152160000D03*
D13*
X108280000Y-152160000D03*
%TD*%
D17*
%TO.C,J7*%
X90280000Y-89160000D03*
X90280000Y-94160000D03*
%TD*%
D16*
%TO.C,J11*%
X99594300Y-74003900D03*
X99594300Y-84163900D03*
%TD*%
D17*
%TO.C,J8*%
X175280000Y-94160000D03*
X175280000Y-89160000D03*
%TD*%
D18*
%TO.C,C32*%
X126197621Y-147460000D03*
D19*
X128697621Y-147460000D03*
%TD*%
D14*
%TO.C,J10*%
X115240000Y-147760000D03*
D15*
X117780000Y-147760000D03*
X120320000Y-147760000D03*
%TD*%
D10*
%TO.C,J2*%
X92510000Y-135600000D03*
D11*
X95050000Y-135600000D03*
X92510000Y-138140000D03*
X95050000Y-138140000D03*
X92510000Y-140680000D03*
X95050000Y-140680000D03*
X92510000Y-143220000D03*
X95050000Y-143220000D03*
%TD*%
D20*
%TO.C,J5*%
X168180000Y-82260000D03*
D21*
X177680000Y-74960000D03*
D20*
X176780000Y-82260000D03*
D21*
X167780000Y-74960000D03*
D20*
X171580000Y-82260000D03*
%TD*%
D22*
%TO.C,C35*%
X138555000Y-115360000D03*
X140280000Y-115360000D03*
%TD*%
D23*
%TO.C,R36*%
X100165786Y-135174214D03*
X101580000Y-133760000D03*
%TD*%
D24*
%TO.C,C34*%
X140580000Y-122960000D03*
X140580000Y-121235000D03*
%TD*%
D25*
%TO.C,C30*%
X145480000Y-121047500D03*
X145480000Y-118972500D03*
%TD*%
D26*
%TO.C,JP1*%
X118705000Y-120960000D03*
X119520000Y-120960000D03*
%TD*%
D27*
%TO.C,R35*%
X96665786Y-144945786D03*
X98080000Y-146360000D03*
%TD*%
D25*
%TO.C,C31*%
X143180000Y-121072500D03*
X143180000Y-118997500D03*
%TD*%
D28*
%TO.C,C2*%
X123936497Y-132016497D03*
X125156257Y-133236257D03*
%TD*%
D29*
%TO.C,R37*%
X101380000Y-149760000D03*
X99965786Y-148345786D03*
%TD*%
D30*
%TO.C,C33*%
X124980000Y-127935000D03*
X124980000Y-129660000D03*
%TD*%
D22*
%TO.C,C49*%
X138555000Y-113060000D03*
X140280000Y-113060000D03*
%TD*%
D31*
%TO.C,C43*%
X138989880Y-128650120D03*
X137770120Y-129869880D03*
%TD*%
D22*
%TO.C,C18*%
X138755000Y-110760000D03*
X140480000Y-110760000D03*
%TD*%
%TO.C,C4*%
X129980000Y-128060000D03*
X131705000Y-128060000D03*
%TD*%
D32*
%TO.C,C5*%
X130142500Y-126160000D03*
X132217500Y-126160000D03*
%TD*%
D30*
%TO.C,C41*%
X123080000Y-128235000D03*
X123080000Y-129960000D03*
%TD*%
D24*
%TO.C,C40*%
X124380000Y-116822500D03*
X124380000Y-115097500D03*
%TD*%
%TO.C,C8*%
X142380000Y-129960000D03*
X142380000Y-128235000D03*
%TD*%
D33*
%TO.C,C48*%
X127805000Y-113360000D03*
X126080000Y-113360000D03*
%TD*%
D30*
%TO.C,C1*%
X124980000Y-124435000D03*
X124980000Y-126160000D03*
%TD*%
D24*
%TO.C,C42*%
X138880000Y-122985000D03*
X138880000Y-121260000D03*
%TD*%
D22*
%TO.C,C10*%
X130655000Y-111760000D03*
X132380000Y-111760000D03*
%TD*%
D30*
%TO.C,C37*%
X140680000Y-117060000D03*
X140680000Y-118785000D03*
%TD*%
D31*
%TO.C,C44*%
X137480000Y-127260000D03*
X136260240Y-128479760D03*
%TD*%
D33*
%TO.C,C46*%
X133680000Y-113660000D03*
X131955000Y-113660000D03*
%TD*%
D24*
%TO.C,C45*%
X122680000Y-116860000D03*
X122680000Y-115135000D03*
%TD*%
D34*
%TO.C,J9*%
X110800000Y-147290000D03*
X105760000Y-147290000D03*
X110800000Y-144750000D03*
X105760000Y-144750000D03*
X110800000Y-142210000D03*
X105760000Y-142210000D03*
X110800000Y-139670000D03*
X105760000Y-139670000D03*
X110800000Y-137130000D03*
X105760000Y-137130000D03*
X110800000Y-134590000D03*
X105760000Y-134590000D03*
X110800000Y-132050000D03*
X105760000Y-132050000D03*
X110800000Y-129510000D03*
X105760000Y-129510000D03*
X110800000Y-126970000D03*
X105760000Y-126970000D03*
X110800000Y-124430000D03*
X105760000Y-124430000D03*
X110800000Y-121890000D03*
X105760000Y-121890000D03*
X110800000Y-119350000D03*
X105760000Y-119350000D03*
X110800000Y-116810000D03*
X105760000Y-116810000D03*
X110800000Y-114270000D03*
X105760000Y-114270000D03*
X110800000Y-111730000D03*
X105760000Y-111730000D03*
X110800000Y-109190000D03*
X105760000Y-109190000D03*
X110800000Y-106650000D03*
X105760000Y-106650000D03*
X110800000Y-104110000D03*
X105760000Y-104110000D03*
X110800000Y-101570000D03*
X105760000Y-101570000D03*
X110800000Y-99030000D03*
X105760000Y-99030000D03*
%TD*%
D33*
%TO.C,C36*%
X127842500Y-115160000D03*
X126117500Y-115160000D03*
%TD*%
D30*
%TO.C,C47*%
X138780000Y-117060000D03*
X138780000Y-118785000D03*
%TD*%
D31*
%TO.C,C9*%
X140299760Y-129940240D03*
X139080000Y-131160000D03*
%TD*%
D35*
%TO.C,R34*%
X145380000Y-116972500D03*
X143380000Y-116972500D03*
%TD*%
D22*
%TO.C,C7*%
X129255000Y-133060000D03*
X130980000Y-133060000D03*
%TD*%
D30*
%TO.C,C38*%
X123280000Y-124460000D03*
X123280000Y-126185000D03*
%TD*%
D32*
%TO.C,C6*%
X129180000Y-130860000D03*
X131255000Y-130860000D03*
%TD*%
D33*
%TO.C,C39*%
X133580000Y-115460000D03*
X131855000Y-115460000D03*
%TD*%
M02*
